<?xml version="1.0" standalone="no"?>
<svg xmlns="http://www.w3.org/2000/svg" width="24" height="24">
    <rect width="24" height="24" opacity="0"></rect>
    <g>
        <path d="M21.62 8.4Q21.31 6.91 20.42 5.64Q19.54 4.37 18.26 3.5Q17.35 2.9 16.4 2.56Q15.46 2.21 14.45 2.14Q14.3 2.14 14.21 2.21Q14.11 2.28 14.1 2.41Q14.09 2.54 14.16 2.64Q14.5 3.05 14.81 3.48L16.13 5.23Q16.18 5.33 16.28 5.33Q16.39 5.33 16.49 5.26L17.4 4.34Q18.55 5.09 19.34 6.22Q20.14 7.34 20.45 8.66Q20.5 8.88 20.69 9.02Q20.88 9.17 21.14 9.12Q21.41 9.07 21.54 8.86Q21.67 8.64 21.62 8.4ZM7.87 18.77Q7.8 18.67 7.69 18.67Q7.58 18.67 7.51 18.74L6.6 19.66Q5.45 18.91 4.64 17.78Q3.84 16.66 3.55 15.34Q3.5 15.1 3.29 14.96Q3.07 14.83 2.83 14.88Q2.59 14.93 2.46 15.14Q2.33 15.36 2.38 15.6Q2.69 17.09 3.56 18.37Q4.44 19.66 5.71 20.52Q6.58 21.14 7.51 21.46Q8.45 21.77 9.55 21.89Q9.67 21.89 9.77 21.82Q9.86 21.74 9.88 21.61Q9.89 21.48 9.82 21.38L8.57 19.7L7.87 18.77Z"
              fill="#FFFFFF"></path>
        <path d="M19.18 16.9Q19.49 16.9 19.7 16.67Q19.92 16.44 19.92 16.13Q19.92 15.82 19.69 15.6Q19.46 15.38 19.15 15.38L8.57 15.34L8.57 4.82Q8.57 4.51 8.35 4.3Q8.14 4.08 7.82 4.08Q7.51 4.08 7.3 4.3Q7.08 4.51 7.08 4.82L7.08 15.34Q7.08 15.98 7.54 16.44Q7.99 16.9 8.62 16.9L19.18 16.9ZM16.06 20.02Q16.37 20.02 16.58 19.8Q16.8 19.58 16.8 19.27L16.8 8.74Q16.8 8.09 16.34 7.64Q15.89 7.2 15.26 7.2L4.73 7.2Q4.42 7.2 4.19 7.42Q3.96 7.63 3.96 7.94Q3.96 8.26 4.19 8.47Q4.42 8.69 4.73 8.69L15.31 8.74L15.31 19.27Q15.31 19.58 15.53 19.8Q15.74 20.02 16.06 20.02Z"
              fill="#FFFFFF"></path>
    </g>
</svg>