<?xml version="1.0" standalone="no"?>
<svg xmlns="http://www.w3.org/2000/svg" width="24" height="24">
    <rect width="24" height="24" opacity="0"></rect>
    <g>
        <path d="M18.74 2.02Q19.63 2.02 20.38 2.46Q21.12 2.9 21.56 3.65Q22.01 4.39 22.01 5.26L22.01 18.77Q22.01 19.63 21.56 20.38Q21.12 21.12 20.38 21.56Q19.63 22.01 18.74 22.01L5.26 22.01Q4.37 22.01 3.62 21.56Q2.88 21.12 2.44 20.38Q1.99 19.63 1.99 18.77L1.99 5.26Q1.99 4.39 2.44 3.65Q2.88 2.9 3.62 2.46Q4.37 2.02 5.26 2.02L18.74 2.02ZM5.26 3.5Q4.51 3.5 4.01 4.02Q3.5 4.54 3.5 5.26L3.5 18.77Q3.5 19.49 4.01 19.99Q4.51 20.5 5.26 20.5L18.74 20.5Q19.46 20.5 19.98 19.99Q20.5 19.49 20.5 18.77L20.5 5.26Q20.5 4.54 19.98 4.02Q19.46 3.5 18.74 3.5L5.26 3.5ZM9.14 3.12L14.81 3.12L14.81 9.14L9.14 9.14ZM14.81 14.81L14.81 20.88L9.14 20.88L9.14 14.81ZM3.12 9.14L9.14 9.14L9.14 14.81L3.12 14.81ZM14.81 9.14L20.83 9.14L20.83 14.81L14.81 14.81Z"
              fill="rgba(0,0,0,0.9019607843137255)"></path>
    </g>
</svg>