<svg width="24.000000" height="24.000000" viewBox="0 0 24 24" fill="none" xmlns="http://www.w3.org/2000/svg" xmlns:xlink="http://www.w3.org/1999/xlink">
	<desc>
			Created with Pixso.
	</desc>
	<defs>
		<clipPath id="clip278_667">
			<rect id="eye" width="24.000000" height="24.000000" fill="white" fill-opacity="0"/>
		</clipPath>
	</defs>
	<g clip-path="url(#clip278_667)">
		<g opacity="0.000000">
			<rect id="rect" width="24.000000" height="24.000000" fill="#000000" fill-opacity="1.000000"/>
		</g>
		<path id="path" d="M22.87 11.47C22.13 10.14 21.19 8.99 20.04 8.02C18.88 7.04 17.62 6.29 16.24 5.77C14.85 5.25 13.43 4.98 12 4.98C10.55 4.98 9.14 5.25 7.75 5.77C6.37 6.29 5.11 7.04 3.95 8.02C2.8 8.99 1.86 10.14 1.12 11.47C1.04 11.61 1 11.77 1 11.93C1 12.1 1.04 12.27 1.12 12.42C1.86 13.74 2.8 14.89 3.95 15.88C5.11 16.88 6.38 17.64 7.77 18.17C9.16 18.71 10.57 18.98 12 18.98C13.43 18.98 14.85 18.71 16.24 18.17C17.62 17.64 18.88 16.88 20.04 15.89C21.19 14.91 22.13 13.75 22.87 12.42C22.95 12.27 22.99 12.1 22.99 11.93C22.99 11.77 22.95 11.61 22.87 11.47ZM10.14 17.33C8.61 16.97 7.18 16.33 5.87 15.4C4.54 14.48 3.47 13.34 2.66 12L2.66 11.83C3.63 10.19 4.97 8.89 6.66 7.93C8.34 6.97 10.12 6.5 12 6.5C13.9 6.5 15.7 6.98 17.37 7.95C19.05 8.92 20.38 10.22 21.35 11.86L21.35 12.05C20.54 13.38 19.48 14.52 18.16 15.43C16.85 16.36 15.43 16.99 13.91 17.35C12.67 17.62 11.41 17.61 10.14 17.33ZM11.97 17.61C12.91 17.61 13.78 17.38 14.58 16.91C15.37 16.45 16 15.82 16.45 15.02C16.92 14.22 17.16 13.35 17.16 12.4C17.16 11.46 16.92 10.59 16.45 9.8C16 9.01 15.37 8.38 14.58 7.91C13.78 7.45 12.91 7.21 11.97 7.21C11.38 7.21 10.8 7.31 10.25 7.51C10.08 7.57 10 7.63 10 7.69C10 7.76 10.09 7.84 10.26 7.91C10.63 8.09 10.93 8.35 11.16 8.69C11.38 9.04 11.5 9.42 11.5 9.84C11.5 10.43 11.29 10.93 10.87 11.35C10.45 11.77 9.95 11.98 9.37 11.98C9.01 11.98 8.66 11.88 8.34 11.7C8.02 11.51 7.77 11.27 7.58 10.97C7.45 10.77 7.33 10.67 7.21 10.67C7.11 10.67 7.02 10.78 6.95 10.99C6.83 11.47 6.76 11.94 6.76 12.4C6.76 13.35 7 14.22 7.45 15.02C7.92 15.82 8.55 16.45 9.35 16.91C10.16 17.38 11.03 17.61 11.97 17.61Z" fill="#FFFFFF" fill-opacity="0.600000" fill-rule="nonzero"/>
	</g>
</svg>
