<svg width="12.000000" height="12.000000" viewBox="0 0 12 12" fill="none" xmlns="http://www.w3.org/2000/svg" xmlns:xlink="http://www.w3.org/1999/xlink">
	<desc>
			Created with Pixso.
	</desc>
	<defs>
		<clipPath id="clip269_14670">
			<rect id="ic_public_favor_filled (2)" width="12.000000" height="12.000000" fill="white" fill-opacity="0"/>
		</clipPath>
	</defs>
	<g clip-path="url(#clip269_14670)">
		<path id="path-1" d="M6.08 2.32C6.16 2.41 6.24 2.49 6.33 2.58L6.5 2.76C6.77 3.02 7.01 3.28 7.13 3.41L7.2 3.48C7.34 3.64 7.58 3.65 7.73 3.51C7.88 3.37 7.9 3.14 7.76 2.98C7.56 2.77 7.05 2.24 6.62 1.81C7.9 1.12 9.53 1.31 10.61 2.39C11.86 3.65 11.81 5.6 10.66 7.14C10.3 7.61 9.77 8.19 9.07 8.86C8.74 9.18 8.13 9.72 7.29 10.43L6.8 10.84C6.33 11.23 5.66 11.23 5.19 10.84C4.05 9.88 3.29 9.21 2.89 8.83L2.78 8.73C2.15 8.11 1.66 7.57 1.33 7.14C0.18 5.6 0.13 3.65 1.38 2.39C2.64 1.13 4.66 1.08 5.99 2.24L6.08 2.32Z" fill="#000000" fill-opacity="0.300000" fill-rule="nonzero"/>
		<path id="path-1" d="M6.33 2.58L6.5 2.76C6.77 3.02 7.01 3.28 7.13 3.41L7.2 3.48C7.34 3.64 7.58 3.65 7.73 3.51C7.88 3.37 7.9 3.14 7.76 2.98C7.56 2.77 7.05 2.24 6.62 1.81C7.9 1.12 9.53 1.31 10.61 2.39C11.86 3.65 11.81 5.6 10.66 7.14C10.3 7.61 9.77 8.19 9.07 8.86C8.74 9.18 8.13 9.72 7.29 10.43L6.8 10.84C6.33 11.23 5.66 11.23 5.19 10.84C4.05 9.88 3.29 9.21 2.89 8.83L2.78 8.73C2.15 8.11 1.66 7.57 1.33 7.14C0.18 5.6 0.13 3.65 1.38 2.39C2.64 1.13 4.66 1.08 5.99 2.24L6.08 2.32C6.16 2.41 6.24 2.49 6.33 2.58Z" stroke="#000000" stroke-opacity="0" stroke-width="1.000000"/>
	</g>
</svg>
