<svg width="32.000000" height="32.000000" viewBox="0 0 32 32" fill="none" xmlns="http://www.w3.org/2000/svg" xmlns:xlink="http://www.w3.org/1999/xlink">
	<desc>
			Created with Pixso.
	</desc>
	<defs>
		<clipPath id="clip269_14684">
			<rect id="ic_public_share_filled (1)" width="32.000000" height="32.000000" fill="white" fill-opacity="0"/>
		</clipPath>
	</defs>
	<g clip-path="url(#clip269_14684)">
		<path id="path-1" d="M16.33 2.66C18.54 2.66 20.33 4.45 20.33 6.66C20.33 8.87 18.54 10.66 16.33 10.66C16.09 10.66 15.86 10.64 15.64 10.6L8.15 21.83C8.57 22.25 8.9 22.76 9.1 23.33L22.89 23.33C23.44 21.78 24.92 20.66 26.66 20.66C28.87 20.66 30.66 22.45 30.66 24.66C30.66 26.87 28.87 28.66 26.66 28.66C24.92 28.66 23.44 27.55 22.89 26L9.1 26C8.55 27.55 7.07 28.66 5.33 28.66C3.12 28.66 1.33 26.87 1.33 24.66C1.33 22.45 3.12 20.66 5.33 20.66C5.46 20.66 5.59 20.67 5.71 20.68L13.31 9.29C12.7 8.58 12.33 7.67 12.33 6.66C12.33 4.45 14.12 2.66 16.33 2.66Z" fill="#FFFFFF" fill-opacity="1.000000" fill-rule="nonzero"/>
		<path id="path-1" d="M20.33 6.66C20.33 8.87 18.54 10.66 16.33 10.66C16.09 10.66 15.86 10.64 15.64 10.6L8.15 21.83C8.57 22.25 8.9 22.76 9.1 23.33L22.89 23.33C23.44 21.78 24.92 20.66 26.66 20.66C28.87 20.66 30.66 22.45 30.66 24.66C30.66 26.87 28.87 28.66 26.66 28.66C24.92 28.66 23.44 27.55 22.89 26L9.1 26C8.55 27.55 7.07 28.66 5.33 28.66C3.12 28.66 1.33 26.87 1.33 24.66C1.33 22.45 3.12 20.66 5.33 20.66C5.46 20.66 5.59 20.67 5.71 20.68L13.31 9.29C12.7 8.58 12.33 7.67 12.33 6.66C12.33 4.45 14.12 2.66 16.33 2.66C18.54 2.66 20.33 4.45 20.33 6.66Z" stroke="#000000" stroke-opacity="0" stroke-width="1.000000"/>
	</g>
</svg>
