<svg width="24.000000" height="24.000000" viewBox="0 0 24 24" fill="none" xmlns="http://www.w3.org/2000/svg" xmlns:xlink="http://www.w3.org/1999/xlink">
	<desc>
			Created with Pixso.
	</desc>
	<defs/>
	<g opacity="0.000000">
		<rect id="rect" width="24.000000" height="24.000000" transform="matrix(-1 0 0 1 24 0)" fill="#000000" fill-opacity="1.000000"/>
	</g>
	<path id="10" d="M13.03 16.01Q13.49 16.2 14.02 16.2Q14.56 16.2 15.01 16.01Q15.25 15.91 15.47 15.74Q16.1 15.28 16.45 14.35Q16.8 13.42 16.8 12.06Q16.8 10.68 16.45 9.75Q16.1 8.82 15.47 8.36Q15.25 8.2 15.01 8.09Q14.56 7.9 14.02 7.9Q13.49 7.9 13.03 8.1Q12.79 8.2 12.58 8.36Q11.96 8.82 11.61 9.76Q11.26 10.69 11.26 12.06Q11.26 13.42 11.61 14.35Q11.96 15.28 12.58 15.74Q12.79 15.9 13.03 16.01ZM8.66 8.03L6.5 9.28L6.5 10.3L8.41 9.21L8.41 16.08L9.41 16.08L9.41 8.03L8.66 8.03ZM14.58 15.19Q14.33 15.3 14.02 15.3Q13.74 15.3 13.5 15.2Q13.06 15.01 12.76 14.49Q12.31 13.67 12.31 12.06Q12.31 10.43 12.76 9.61Q13.06 9.08 13.5 8.89Q13.74 8.79 14.02 8.79Q14.32 8.79 14.57 8.9Q15 9.09 15.29 9.61Q15.75 10.43 15.75 12.06Q15.75 13.69 15.29 14.49Q15.01 15 14.58 15.19Z" fill="#FFFFFF" fill-opacity="1.000000" fill-rule="evenodd"/>
	<path id="path" d="M1 12.1C1 10.17 1.47 8.38 2.39 6.71C3.32 5.05 4.58 3.7 6.18 2.68C7.79 1.66 9.54 1.1 11.46 1.01C12.92 0.94 14.34 1.14 15.71 1.62C17.07 2.11 18.3 2.84 19.38 3.84C20.47 4.83 21.33 5.98 21.95 7.3C22.56 8.6 22.91 9.99 22.99 11.47C23.05 12.92 22.84 14.34 22.37 15.71C21.88 17.07 21.15 18.3 20.16 19.38C19.16 20.47 18.01 21.33 16.7 21.95C15.39 22.56 14 22.9 12.52 22.97C10.91 22.97 9.5 22.77 8.31 22.37C7.12 21.98 5.95 21.28 4.79 20.28C4.63 20.15 4.55 19.98 4.54 19.78C4.51 19.56 4.58 19.37 4.72 19.21C4.85 19.06 5.02 18.97 5.22 18.95C5.43 18.94 5.62 19.01 5.77 19.14C6.71 19.96 7.75 20.58 8.89 20.98C10.05 21.37 11.24 21.54 12.47 21.48C13.74 21.41 14.94 21.11 16.08 20.58C17.21 20.04 18.2 19.3 19.05 18.36C19.9 17.43 20.54 16.37 20.96 15.2C21.38 14.02 21.56 12.8 21.5 11.54C21.43 10.28 21.14 9.08 20.62 7.93C20.08 6.8 19.34 5.81 18.41 4.96C17.48 4.1 16.42 3.45 15.25 3.04C14.07 2.61 12.84 2.43 11.56 2.5C9.9 2.58 8.38 3.05 7 3.91C5.62 4.79 4.54 5.94 3.74 7.37C2.93 8.79 2.54 10.33 2.54 12L4.14 12C4.22 12 4.3 12.02 4.37 12.08C4.42 12.13 4.46 12.21 4.49 12.29C4.5 12.37 4.48 12.45 4.43 12.53L2.37 15.88C2.32 15.97 2.25 16.02 2.16 16.04C2.08 16.06 1.99 16.06 1.91 16.03C1.82 15.99 1.76 15.93 1.72 15.84C1.52 15.28 1.34 14.65 1.2 13.96C1.07 13.26 1 12.63 1 12.1Z" fill="#FFFFFF" fill-opacity="0.901961" fill-rule="nonzero"/>
</svg>
