<svg width="16.000000" height="16.000000" viewBox="0 0 16 16" fill="none" xmlns="http://www.w3.org/2000/svg" xmlns:xlink="http://www.w3.org/1999/xlink">
	<desc>
			Created with Pixso.
	</desc>
	<defs>
		<clipPath id="clip10_128">
			<rect id="sun_max_fill" width="16.000000" height="16.000000" fill="white" fill-opacity="0"/>
		</clipPath>
	</defs>
	<g opacity="0.600000">
		<g clip-path="url(#clip10_128)">
			<g opacity="0.000000">
				<rect id="rect" width="16.000000" height="16.000000" fill="#000000" fill-opacity="0.600000"/>
			</g>
			<path id="path" d="M8 2.66C8.14 2.66 8.25 2.62 8.35 2.52C8.45 2.42 8.5 2.31 8.5 2.18L8.5 1.46C8.5 1.34 8.45 1.23 8.35 1.13C8.25 1.03 8.14 0.98 8 0.98C7.86 0.98 7.74 1.03 7.64 1.13C7.54 1.23 7.49 1.34 7.49 1.46L7.49 2.18C7.49 2.31 7.54 2.42 7.64 2.52C7.74 2.62 7.86 2.66 8 2.66ZM4.21 4.23C4.32 4.13 4.37 4.01 4.38 3.87C4.38 3.74 4.33 3.63 4.24 3.54L3.73 3.03C3.64 2.94 3.53 2.89 3.4 2.89C3.26 2.9 3.15 2.95 3.06 3.05C2.95 3.15 2.9 3.26 2.9 3.39C2.9 3.53 2.94 3.64 3.02 3.73L3.54 4.25C3.62 4.33 3.73 4.37 3.87 4.37C4.01 4.37 4.12 4.33 4.21 4.23ZM2.67 7.99C2.67 7.85 2.62 7.74 2.53 7.64C2.43 7.54 2.31 7.49 2.19 7.49L1.47 7.49C1.34 7.49 1.23 7.54 1.14 7.64C1.05 7.74 1.01 7.85 1.01 7.99C1.01 8.13 1.05 8.25 1.14 8.35C1.23 8.45 1.34 8.5 1.47 8.5L2.19 8.5C2.31 8.5 2.43 8.45 2.53 8.35C2.62 8.25 2.67 8.13 2.67 7.99ZM4.21 11.78C4.12 11.68 4.01 11.62 3.88 11.62C3.74 11.62 3.63 11.66 3.55 11.76L3.04 12.26C2.94 12.35 2.9 12.46 2.9 12.6C2.9 12.73 2.96 12.84 3.06 12.94C3.15 13.04 3.27 13.09 3.41 13.1C3.55 13.1 3.66 13.05 3.74 12.96L4.26 12.46C4.34 12.36 4.38 12.25 4.38 12.12C4.38 11.98 4.32 11.87 4.21 11.78ZM8 13.33C7.86 13.33 7.74 13.37 7.65 13.47C7.55 13.57 7.5 13.68 7.5 13.81L7.5 14.53C7.5 14.65 7.55 14.76 7.65 14.86C7.74 14.94 7.86 14.99 8 14.99C8.14 14.99 8.26 14.94 8.36 14.86C8.46 14.76 8.51 14.65 8.51 14.53L8.51 13.81C8.51 13.68 8.46 13.57 8.36 13.47C8.26 13.37 8.14 13.33 8 13.33ZM11.78 11.76C11.68 11.85 11.62 11.97 11.62 12.11C11.62 12.25 11.66 12.36 11.74 12.45L12.26 12.96C12.35 13.05 12.46 13.1 12.6 13.1C12.73 13.09 12.84 13.04 12.94 12.94C13.04 12.84 13.09 12.73 13.1 12.59C13.1 12.45 13.05 12.34 12.96 12.26L12.46 11.74C12.36 11.64 12.25 11.6 12.12 11.61C11.98 11.61 11.87 11.66 11.78 11.76ZM13.33 7.99C13.33 8.13 13.37 8.25 13.47 8.34C13.57 8.44 13.68 8.49 13.81 8.49L14.53 8.49C14.65 8.49 14.76 8.44 14.86 8.34C14.96 8.25 15.01 8.13 15.01 7.99C15.01 7.85 14.96 7.73 14.86 7.63C14.76 7.53 14.65 7.48 14.53 7.48L13.81 7.48C13.68 7.48 13.57 7.53 13.47 7.63C13.37 7.73 13.33 7.85 13.33 7.99ZM11.76 4.21C11.86 4.31 11.98 4.37 12.12 4.37C12.25 4.37 12.36 4.33 12.45 4.23L12.96 3.73C13.04 3.64 13.09 3.53 13.09 3.39C13.09 3.26 13.04 3.15 12.94 3.05C12.84 2.95 12.73 2.9 12.59 2.89C12.45 2.89 12.33 2.94 12.24 3.03L11.74 3.53C11.66 3.63 11.62 3.74 11.62 3.87C11.62 4.01 11.66 4.12 11.76 4.21ZM8 3.32C7.16 3.32 6.38 3.53 5.66 3.95C4.94 4.37 4.38 4.94 3.96 5.65C3.54 6.37 3.33 7.15 3.33 7.99C3.33 8.83 3.54 9.61 3.96 10.34C4.38 11.05 4.94 11.62 5.66 12.04C6.38 12.46 7.16 12.67 8 12.67C8.84 12.67 9.62 12.46 10.34 12.04C11.05 11.62 11.62 11.05 12.04 10.34C12.46 9.61 12.67 8.83 12.67 7.99C12.67 7.15 12.46 6.37 12.04 5.65C11.62 4.94 11.05 4.37 10.34 3.95C9.62 3.53 8.84 3.32 8 3.32Z" fill="#000000" fill-opacity="0.600000" fill-rule="nonzero"/>
		</g>
	</g>
</svg>
