<?xml version="1.0" standalone="no"?><!DOCTYPE svg PUBLIC "-//W3C//DTD SVG 1.1//EN" "http://www.w3.org/Graphics/SVG/1.1/DTD/svg11.dtd"><svg t="1733304483225" class="icon" viewBox="0 0 1024 1024" version="1.1" xmlns="http://www.w3.org/2000/svg" p-id="9573" xmlns:xlink="http://www.w3.org/1999/xlink" width="200" height="200"><path d="M877.714286 73.142857H146.285714c-20.114286 0-36.571429 16.457143-36.571428 36.571429v804.571428c0 20.114286 16.457143 36.571429 36.571428 36.571429h731.428572c20.114286 0 36.571429-16.457143 36.571428-36.571429V109.714286c0-20.114286-16.457143-36.571429-36.571428-36.571429zM340.114286 146.285714h109.714285v159.085715l-40.228571-16.457143c-9.142857-3.657143-20.114286-3.657143-27.428571 0l-40.228572 16.457143V146.285714h-1.828571z m-74.971429 0v215.771429c0 12.8 5.485714 23.771429 16.457143 31.085714 10.971429 7.314286 23.771429 7.314286 34.742857 3.657143l76.8-32.914286 76.8 32.914286c3.657143 1.828571 9.142857 3.657143 14.628572 3.657143 7.314286 0 14.628571-1.828571 20.114285-5.485714 10.971429-7.314286 16.457143-18.285714 16.457143-31.085715V148.114286H841.142857v603.428571H182.857143v-603.428571h82.285714V146.285714zM182.857143 877.714286v-54.857143h658.285714v54.857143H182.857143z" p-id="9574" fill="#2c2c2c"></path><path d="M768 493.714286H512v73.142857h256v-73.142857zM768 603.428571H256v73.142858h512v-73.142858z" p-id="9575" fill="#2c2c2c"></path></svg>