<?xml version="1.0" standalone="no"?><!DOCTYPE svg PUBLIC "-//W3C//DTD SVG 1.1//EN" "http://www.w3.org/Graphics/SVG/1.1/DTD/svg11.dtd"><svg t="1733304286497" class="icon" viewBox="0 0 1024 1024" version="1.1" xmlns="http://www.w3.org/2000/svg" p-id="5324" xmlns:xlink="http://www.w3.org/1999/xlink" width="200" height="200"><path d="M860.5 121.4v183.2h-13.3c-3.1-24.6-8.2-45.4-15.3-62.5s-16.4-30.9-27.9-41.5-25.6-18.2-42.1-23-35.7-7.2-57.6-7.2h-110v596.8c0 48 5.2 78 15.6 89.9 14.2 16.1 36.7 24.2 67.4 24.2h27.1v21.3H373.1v-21.3h27.6c33 0 56.5-10 70.3-29.9 8.5-11.9 12.7-39.9 12.7-84.1V170.4h-93.9c-23.8 0-44.6 1.7-62.2 5.2-17.7 3.5-32.6 10-44.9 19.6s-22.3 23.2-29.9 40.9c-7.7 17.7-13.4 40.5-17.3 68.6h-21.9V121.4h646.9z" fill="#2c2c2c" p-id="5325"></path></svg>