<svg width="24.000000" height="24.000000" viewBox="0 0 24 24" fill="none" xmlns="http://www.w3.org/2000/svg" xmlns:xlink="http://www.w3.org/1999/xlink">
	<desc>
			Created with Pixso.
	</desc>
	<defs>
		<clipPath id="clip708_55146">
			<rect id="heart" width="24.000000" height="24.000000" fill="white" fill-opacity="0"/>
		</clipPath>
	</defs>
	<g clip-path="url(#clip708_55146)">
		<g opacity="0.000000">
			<rect id="rect" width="24.000000" height="24.000000" fill="#000000" fill-opacity="1.000000"/>
		</g>
		<path id="path" d="M2.51 9.33C2.51 8.15 2.73 7.13 3.15 6.28C3.57 5.44 4.17 4.8 4.95 4.36C5.73 3.93 6.65 3.71 7.72 3.71C8.42 3.71 9.1 3.86 9.75 4.14C10.4 4.43 10.97 4.84 11.46 5.37C11.59 5.53 11.77 5.61 12 5.61C12.23 5.61 12.42 5.53 12.54 5.37C13.04 4.84 13.62 4.43 14.26 4.14C14.91 3.86 15.58 3.71 16.26 3.71C17.46 3.71 18.46 3.98 19.25 4.51C20.02 5.05 20.59 5.75 20.94 6.59C21.3 7.44 21.48 8.35 21.48 9.33C21.48 10.55 20.79 12.08 19.43 13.92C18.68 14.92 17.8 15.92 16.78 16.92C15.76 17.91 14.81 18.72 13.91 19.36C13.02 19.98 12.38 20.29 12 20.29C11.61 20.29 10.99 19.99 10.14 19.37C9.3 18.76 8.37 17.96 7.36 16.96C6.36 15.97 5.44 14.96 4.62 13.92C3.98 13.12 3.47 12.3 3.09 11.48C2.71 10.66 2.51 9.94 2.51 9.33ZM16.26 2.22C15.48 2.22 14.73 2.36 14 2.64C13.27 2.92 12.6 3.32 12 3.83C11.39 3.32 10.72 2.92 10 2.64C9.26 2.36 8.5 2.22 7.72 2.22C6.42 2.22 5.26 2.54 4.25 3.16C3.22 3.78 2.42 4.62 1.85 5.67C1.29 6.72 1 7.87 1 9.11C1 10.22 1.39 11.47 2.16 12.85C2.94 14.23 3.96 15.58 5.2 16.9C6.53 18.28 7.82 19.44 9.07 20.37C10.33 21.3 11.3 21.77 11.98 21.77C12.72 21.77 13.7 21.31 14.91 20.41C16.12 19.51 17.4 18.34 18.76 16.9C20 15.62 21.01 14.28 21.79 12.89C22.59 11.49 22.98 10.24 22.98 9.11C22.98 7.87 22.7 6.72 22.12 5.67C21.54 4.62 20.75 3.78 19.73 3.16C18.7 2.54 17.54 2.22 16.26 2.22Z" fill="#000000" fill-opacity="0.901961" fill-rule="nonzero"/>
	</g>
</svg>
