<svg width="24.000000" height="24.000000" viewBox="0 0 24 24" fill="none" xmlns="http://www.w3.org/2000/svg" xmlns:xlink="http://www.w3.org/1999/xlink">
	<desc>
			Created with Pixso.
	</desc>
	<defs>
		<clipPath id="clip732_55187">
			<rect id="dot_grid_2x2" width="24.000000" height="24.000000" fill="white" fill-opacity="0"/>
		</clipPath>
	</defs>
	<g clip-path="url(#clip732_55187)">
		<g opacity="0.000000">
			<rect id="rect" width="24.000000" height="24.000000" fill="#000000" fill-opacity="1.000000"/>
		</g>
		<path id="path" d="M17.75 4.75C17.26 4.75 16.84 4.91 16.5 5.26C16.17 5.59 16 6 16 6.5C16 6.97 16.17 7.39 16.5 7.73C16.84 8.08 17.26 8.26 17.75 8.26C18.23 8.26 18.65 8.08 19 7.73C19.33 7.39 19.5 6.97 19.5 6.5C19.5 6 19.33 5.59 19 5.26C18.65 4.91 18.23 4.75 17.75 4.75ZM6.23 4.75C5.75 4.75 5.35 4.91 5.01 5.26C4.67 5.59 4.5 6 4.5 6.5C4.5 6.97 4.67 7.39 5.01 7.73C5.35 8.08 5.75 8.26 6.23 8.26C6.71 8.26 7.13 8.08 7.47 7.73C7.81 7.39 7.98 6.97 7.98 6.5C7.98 6 7.81 5.59 7.47 5.26C7.13 4.91 6.71 4.75 6.23 4.75ZM17.75 15.74C17.26 15.74 16.84 15.91 16.5 16.26C16.17 16.6 16 17.02 16 17.5C16 17.98 16.17 18.39 16.5 18.73C16.84 19.07 17.26 19.25 17.75 19.25C18.23 19.25 18.65 19.07 19 18.73C19.33 18.39 19.5 17.98 19.5 17.5C19.5 17.02 19.33 16.6 19 16.26C18.65 15.91 18.23 15.74 17.75 15.74ZM6.23 15.74C5.75 15.74 5.35 15.91 5.01 16.26C4.67 16.6 4.5 17.02 4.5 17.5C4.5 17.98 4.67 18.39 5.01 18.73C5.35 19.07 5.75 19.25 6.23 19.25C6.71 19.25 7.13 19.07 7.47 18.73C7.81 18.39 7.98 17.98 7.98 17.5C7.98 17.02 7.81 16.6 7.47 16.26C7.13 15.91 6.71 15.74 6.23 15.74Z" fill="#000000" fill-opacity="0.901961" fill-rule="nonzero"/>
	</g>
</svg>
