<svg width="24.000000" height="24.000000" viewBox="0 0 24 24" fill="none" xmlns="http://www.w3.org/2000/svg" xmlns:xlink="http://www.w3.org/1999/xlink">
	<desc>
			Created with Pixso.
	</desc>
	<defs>
		<clipPath id="clip708_55159">
			<rect id="square_and_pencil" width="24.000000" height="24.000000" fill="white" fill-opacity="0"/>
		</clipPath>
	</defs>
	<g clip-path="url(#clip708_55159)">
		<g opacity="0.000000">
			<rect id="rect" width="24.000000" height="24.000000" fill="#000000" fill-opacity="1.000000"/>
		</g>
		<mask id="mask708_55163" mask-type="alpha" maskUnits="userSpaceOnUse" x="0.000000" y="0.000000" width="24.020020" height="24.000000">
			<rect id="rect" width="24.000000" height="24.000000" fill="#FFFFFF" fill-opacity="1.000000"/>
			<path id="path" d="M23.37 0.64C23.16 0.44 22.91 0.28 22.64 0.16C22.35 0.05 22.06 0 21.77 0C21.46 0 21.16 0.05 20.89 0.16C20.6 0.28 20.36 0.44 20.16 0.64L10.6 10.22C10.46 10.36 10.35 10.51 10.27 10.66L8.89 13.08C8.77 13.33 8.7 13.59 8.7 13.86C8.7 14.12 8.78 14.36 8.93 14.57C9.05 14.79 9.23 14.97 9.46 15.11C9.7 15.24 9.94 15.31 10.2 15.31C10.43 15.31 10.67 15.24 10.89 15.12L13.33 13.73C13.48 13.66 13.64 13.55 13.79 13.39L23.37 3.84C23.8 3.39 24.02 2.86 24.02 2.24C24.02 1.62 23.8 1.09 23.37 0.64Z" fill="#000000" fill-opacity="1.000000" fill-rule="nonzero"/>
		</mask>
		<g mask="url(#mask708_55163)">
			<path id="path" d="M17.62 21.6C18.28 21.6 18.91 21.43 19.49 21.1C20.06 20.76 20.52 20.3 20.85 19.73C21.19 19.15 21.35 18.52 21.35 17.86L21.35 6.36C21.35 5.68 21.19 5.06 20.85 4.48C20.52 3.9 20.06 3.45 19.49 3.12C18.91 2.78 18.28 2.62 17.62 2.62L6.12 2.62C5.43 2.62 4.8 2.78 4.22 3.12C3.64 3.45 3.19 3.9 2.85 4.48C2.52 5.06 2.35 5.68 2.35 6.36L2.35 17.86C2.35 18.52 2.52 19.15 2.85 19.73C3.19 20.3 3.64 20.76 4.22 21.1C4.8 21.43 5.43 21.6 6.12 21.6L17.62 21.6ZM17.62 4.09C18.22 4.09 18.75 4.31 19.2 4.75C19.64 5.2 19.87 5.73 19.87 6.36L19.87 17.83C19.87 18.45 19.64 18.99 19.2 19.43C18.75 19.87 18.22 20.09 17.62 20.09L6.12 20.09C5.49 20.09 4.95 19.87 4.52 19.43C4.08 18.99 3.85 18.45 3.85 17.83L3.85 6.36C3.85 5.73 4.08 5.2 4.52 4.75C4.95 4.31 5.49 4.09 6.12 4.09L17.62 4.09Z" fill="#000000" fill-opacity="0.901961" fill-rule="nonzero"/>
		</g>
		<path id="path" d="M9.91 13.7C9.86 13.78 9.85 13.86 9.89 13.94C9.92 14.02 9.98 14.07 10.06 14.11C10.15 14.14 10.23 14.14 10.31 14.11L12.12 13.1C12.24 13.02 12.36 12.94 12.48 12.86L12.64 12.74L11.27 11.4L11.14 11.62C11.08 11.68 11.04 11.73 11.02 11.77C11 11.81 10.96 11.86 10.91 11.93L9.91 13.7ZM22.54 1.48C22.32 1.28 22.07 1.17 21.77 1.17C21.48 1.17 21.23 1.28 21.02 1.48L12.02 10.49C11.97 10.55 11.82 10.72 11.75 10.8L13.22 12.26C13.29 12.21 13.4 12.12 13.54 12L22.54 3C22.75 2.79 22.87 2.53 22.87 2.23C22.87 1.94 22.75 1.69 22.54 1.48Z" fill="#000000" fill-opacity="0.901961" fill-rule="nonzero"/>
	</g>
</svg>
