<svg width="24.000000" height="24.000000" viewBox="0 0 24 24" fill="none" xmlns="http://www.w3.org/2000/svg" xmlns:xlink="http://www.w3.org/1999/xlink">
	<desc>
			Created with Pixso.
	</desc>
	<defs>
		<clipPath id="clip269_14662">
			<rect id="ic_public_share_filled (1)" width="24.000000" height="24.000000" fill="white" fill-opacity="0"/>
		</clipPath>
	</defs>
	<g clip-path="url(#clip269_14662)">
		<path id="path-1" d="M12.25 2C13.9 2 15.25 3.34 15.25 5C15.25 6.65 13.9 8 12.25 8C12.07 8 11.9 7.98 11.73 7.95L6.11 16.37C6.43 16.68 6.67 17.07 6.82 17.5L17.17 17.5C17.58 16.33 18.69 15.5 20 15.5C21.65 15.5 23 16.84 23 18.5C23 20.15 21.65 21.5 20 21.5C18.69 21.5 17.58 20.66 17.17 19.5L6.82 19.5C6.41 20.66 5.3 21.5 4 21.5C2.34 21.5 1 20.15 1 18.5C1 16.84 2.34 15.5 4 15.5C4.09 15.5 4.19 15.5 4.28 15.51L9.98 6.96C9.52 6.44 9.25 5.75 9.25 5C9.25 3.34 10.59 2 12.25 2Z" fill="#000000" fill-opacity="0.600000" fill-rule="nonzero"/>
		<path id="path-1" d="M15.25 5C15.25 6.65 13.9 8 12.25 8C12.07 8 11.9 7.98 11.73 7.95L6.11 16.37C6.43 16.68 6.67 17.07 6.82 17.5L17.17 17.5C17.58 16.33 18.69 15.5 20 15.5C21.65 15.5 23 16.84 23 18.5C23 20.15 21.65 21.5 20 21.5C18.69 21.5 17.58 20.66 17.17 19.5L6.82 19.5C6.41 20.66 5.3 21.5 4 21.5C2.34 21.5 1 20.15 1 18.5C1 16.84 2.34 15.5 4 15.5C4.09 15.5 4.19 15.5 4.28 15.51L9.98 6.96C9.52 6.44 9.25 5.75 9.25 5C9.25 3.34 10.59 2 12.25 2C13.9 2 15.25 3.34 15.25 5Z" stroke="#000000" stroke-opacity="0" stroke-width="1.000000"/>
	</g>
</svg>
