<svg width="24.000000" height="24.000000" viewBox="0 0 24 24" fill="none" xmlns="http://www.w3.org/2000/svg" xmlns:xlink="http://www.w3.org/1999/xlink">
	<desc>
			Created with Pixso.
	</desc>
	<defs>
		<clipPath id="clip269_14654">
			<rect id="ic_public_favor_filled (2)" width="24.000000" height="24.000000" fill="white" fill-opacity="0"/>
		</clipPath>
	</defs>
	<g clip-path="url(#clip269_14654)">
		<path id="path-1" d="M12.15 4.65C12.32 4.82 12.49 4.99 12.66 5.17L13.01 5.52C13.54 6.05 14.02 6.56 14.27 6.82L14.41 6.97C14.69 7.28 15.16 7.31 15.47 7.03C15.78 6.75 15.8 6.28 15.52 5.97C15.13 5.54 14.1 4.49 13.24 3.62C15.8 2.24 19.07 2.63 21.23 4.79C23.73 7.3 23.62 11.2 21.32 14.28C20.61 15.22 19.54 16.39 18.15 17.72C17.48 18.37 16.26 19.44 14.59 20.86L13.6 21.69C12.67 22.47 11.32 22.47 10.39 21.68C8.11 19.76 6.58 18.43 5.79 17.67L5.57 17.46C4.31 16.23 3.33 15.15 2.67 14.28C0.37 11.2 0.26 7.3 2.76 4.79C5.29 2.26 9.33 2.16 11.99 4.49L12.15 4.65Z" fill="#000000" fill-opacity="0.600000" fill-rule="nonzero"/>
		<path id="path-1" d="M12.66 5.17L13.01 5.52C13.54 6.05 14.02 6.56 14.27 6.82L14.41 6.97C14.69 7.28 15.16 7.31 15.47 7.03C15.78 6.75 15.8 6.28 15.52 5.97C15.13 5.54 14.1 4.49 13.24 3.62C15.8 2.24 19.07 2.63 21.23 4.79C23.73 7.3 23.62 11.2 21.32 14.28C20.61 15.22 19.54 16.39 18.15 17.72C17.48 18.37 16.26 19.44 14.59 20.86L13.6 21.69C12.67 22.47 11.32 22.47 10.39 21.68C8.11 19.76 6.58 18.43 5.79 17.67L5.57 17.46C4.31 16.23 3.33 15.15 2.67 14.28C0.37 11.2 0.26 7.3 2.76 4.79C5.29 2.26 9.33 2.16 11.99 4.49L12.15 4.65C12.32 4.82 12.49 4.99 12.66 5.17Z" stroke="#000000" stroke-opacity="0" stroke-width="1.000000"/>
	</g>
</svg>
