<svg width="24.000000" height="24.000000" viewBox="0 0 24 24" fill="none" xmlns="http://www.w3.org/2000/svg" xmlns:xlink="http://www.w3.org/1999/xlink">
	<desc>
			Created with Pixso.
	</desc>
	<defs>
		<clipPath id="clip269_14658">
			<rect id="ic_public_comments_filled" width="24.000000" height="24.000000" fill="white" fill-opacity="0"/>
		</clipPath>
	</defs>
	<g clip-path="url(#clip269_14658)">
		<path id="path-1" d="M15.25 2.5C19.39 2.5 22.75 5.85 22.75 10C22.75 14.14 19.39 17.5 15.25 17.5L14.24 17.5L9.95 21.66C9.23 22.36 8.1 21.7 8.26 20.78L8.29 20.68C8.58 19.81 8.81 19.03 8.97 18.42L9.03 18.2L9.07 18.04C9.11 17.89 9.16 17.67 9.2 17.49L8.75 17.5C4.6 17.5 1.25 14.14 1.25 10C1.25 5.85 4.6 2.5 8.75 2.5L15.25 2.5ZM7 11.5C7.69 11.5 8.25 10.94 8.25 10.25C8.25 9.55 7.69 9 7 9C6.3 9 5.75 9.55 5.75 10.25C5.75 10.94 6.3 11.5 7 11.5ZM12 11.5C12.69 11.5 13.25 10.94 13.25 10.25C13.25 9.55 12.69 9 12 9C11.3 9 10.75 9.55 10.75 10.25C10.75 10.94 11.3 11.5 12 11.5ZM17 11.5C17.69 11.5 18.25 10.94 18.25 10.25C18.25 9.55 17.69 9 17 9C16.3 9 15.75 9.55 15.75 10.25C15.75 10.94 16.3 11.5 17 11.5Z" fill="#000000" fill-opacity="0.600000" fill-rule="nonzero"/>
		<path id="path-1" d="M22.75 10C22.75 14.14 19.39 17.5 15.25 17.5L14.24 17.5L9.95 21.66C9.23 22.36 8.1 21.7 8.26 20.78L8.29 20.68C8.58 19.81 8.81 19.03 8.97 18.42L9.03 18.2L9.07 18.04C9.11 17.89 9.16 17.67 9.2 17.49L8.75 17.5C4.6 17.5 1.25 14.14 1.25 10C1.25 5.85 4.6 2.5 8.75 2.5L15.25 2.5C19.39 2.5 22.75 5.85 22.75 10ZM8.25 10.25C8.25 9.55 7.69 9 7 9C6.3 9 5.75 9.55 5.75 10.25C5.75 10.94 6.3 11.5 7 11.5C7.69 11.5 8.25 10.94 8.25 10.25ZM13.25 10.25C13.25 9.55 12.69 9 12 9C11.3 9 10.75 9.55 10.75 10.25C10.75 10.94 11.3 11.5 12 11.5C12.69 11.5 13.25 10.94 13.25 10.25ZM18.25 10.25C18.25 9.55 17.69 9 17 9C16.3 9 15.75 9.55 15.75 10.25C15.75 10.94 16.3 11.5 17 11.5C17.69 11.5 18.25 10.94 18.25 10.25Z" stroke="#000000" stroke-opacity="0" stroke-width="1.000000"/>
	</g>
</svg>
