<svg width="32.000000" height="32.000000" viewBox="0 0 32 32" fill="none" xmlns="http://www.w3.org/2000/svg" xmlns:xlink="http://www.w3.org/1999/xlink">
	<desc>
			Created with Pixso.
	</desc>
	<defs>
		<clipPath id="clip269_14676">
			<rect id="ic_public_favor_filled (2)" width="32.000000" height="32.000000" fill="white" fill-opacity="0"/>
		</clipPath>
	</defs>
	<g clip-path="url(#clip269_14676)">
		<path id="path-1" d="M16.21 6.21C16.42 6.43 16.66 6.66 16.89 6.89L17.35 7.37C18.05 8.07 18.7 8.74 19.02 9.09L19.21 9.3C19.58 9.71 20.21 9.74 20.62 9.37C21.04 9 21.07 8.37 20.7 7.96C20.18 7.38 18.81 5.98 17.66 4.83C21.07 2.99 25.42 3.51 28.3 6.39C31.65 9.73 31.5 14.94 28.43 19.04C27.49 20.29 26.05 21.85 24.2 23.63C23.3 24.5 21.68 25.93 19.45 27.81L18.14 28.92C16.9 29.96 15.09 29.96 13.85 28.91C10.81 26.35 8.77 24.57 7.72 23.57L7.42 23.28C5.75 21.65 4.44 20.21 3.56 19.04C0.49 14.94 0.34 9.73 3.69 6.39C7.06 3.01 12.45 2.88 15.98 5.98L16.21 6.21Z" fill="#FFFFFF" fill-opacity="1.000000" fill-rule="nonzero"/>
		<path id="path-1" d="M16.89 6.89L17.35 7.37C18.05 8.07 18.7 8.74 19.02 9.09L19.21 9.3C19.58 9.71 20.21 9.74 20.62 9.37C21.04 9 21.07 8.37 20.7 7.96C20.18 7.38 18.81 5.98 17.66 4.83C21.07 2.99 25.42 3.51 28.3 6.39C31.65 9.73 31.5 14.94 28.43 19.04C27.49 20.29 26.05 21.85 24.2 23.63C23.3 24.5 21.68 25.93 19.45 27.81L18.14 28.92C16.9 29.96 15.09 29.96 13.85 28.91C10.81 26.35 8.77 24.57 7.72 23.57L7.42 23.28C5.75 21.65 4.44 20.21 3.56 19.04C0.49 14.94 0.34 9.73 3.69 6.39C7.06 3.01 12.45 2.88 15.98 5.98L16.21 6.21C16.42 6.43 16.66 6.66 16.89 6.89Z" stroke="#000000" stroke-opacity="0" stroke-width="1.000000"/>
	</g>
</svg>
