<svg width="24.000000" height="24.000000" viewBox="0 0 24 24" fill="none" xmlns="http://www.w3.org/2000/svg" xmlns:xlink="http://www.w3.org/1999/xlink">
	<desc>
			Created with Pixso.
	</desc>
	<defs>
		<clipPath id="clip269_14646">
			<rect id="line_viewfinder" width="24.000000" height="24.000000" fill="white" fill-opacity="0"/>
		</clipPath>
	</defs>
	<g clip-path="url(#clip269_14646)">
		<g opacity="0.000000">
			<rect id="rect" width="24.000000" height="24.000000" fill="#000000" fill-opacity="1.000000"/>
		</g>
		<path id="path" d="M4.61 9.53C4.76 9.53 4.9 9.45 5.03 9.31C5.14 9.17 5.2 8.99 5.2 8.78L5.2 5.76C5.2 5.14 5.38 4.6 5.73 4.16C6.08 3.72 6.51 3.5 7.01 3.5L9.37 3.5C9.53 3.5 9.67 3.43 9.8 3.29C9.92 3.15 9.98 2.97 9.98 2.76C9.98 2.54 9.92 2.35 9.81 2.21C9.69 2.07 9.55 2 9.37 2L7.01 2C6.47 2 5.97 2.16 5.51 2.5C5.04 2.84 4.67 3.29 4.4 3.86C4.13 4.44 4 5.08 4 5.76L4 8.78C4 8.99 4.06 9.17 4.18 9.31C4.3 9.45 4.45 9.53 4.61 9.53ZM9.35 22C9.51 22 9.66 21.92 9.78 21.77C9.9 21.61 9.96 21.43 9.96 21.23C9.96 21.02 9.9 20.84 9.78 20.7C9.66 20.56 9.51 20.49 9.35 20.49L7.01 20.49C6.51 20.49 6.08 20.27 5.73 19.83C5.38 19.39 5.2 18.85 5.2 18.23L5.2 15.21C5.2 15 5.14 14.82 5.03 14.68C4.9 14.54 4.76 14.46 4.61 14.46C4.45 14.46 4.3 14.54 4.18 14.68C4.06 14.82 4 15.01 4 15.23L4 18.23C4 18.9 4.13 19.52 4.41 20.1C4.68 20.68 5.05 21.14 5.51 21.48C5.97 21.82 6.47 22 7.01 22L9.35 22ZM16.98 22C17.52 22 18.02 21.82 18.48 21.48C18.94 21.14 19.31 20.68 19.58 20.1C19.86 19.52 20 18.9 20 18.23L20 15.23C20 15.03 19.93 14.85 19.81 14.69C19.69 14.54 19.54 14.46 19.38 14.46C19.21 14.46 19.07 14.54 18.96 14.69C18.84 14.85 18.79 15.03 18.79 15.23L18.79 18.23C18.79 18.85 18.61 19.39 18.26 19.83C17.91 20.27 17.48 20.49 16.98 20.49L14.58 20.49C14.42 20.49 14.28 20.56 14.15 20.7C14.03 20.84 13.97 21.02 13.97 21.23C13.97 21.43 14.03 21.61 14.15 21.77C14.28 21.92 14.42 22 14.58 22L16.98 22ZM19.38 9.53C19.54 9.53 19.69 9.45 19.81 9.31C19.93 9.17 20 8.99 20 8.78L20 5.76C20 5.08 19.86 4.44 19.59 3.86C19.32 3.29 18.95 2.84 18.48 2.5C18.02 2.16 17.52 2 16.98 2L14.64 2C14.48 2 14.33 2.07 14.21 2.21C14.09 2.35 14.03 2.54 14.03 2.76C14.03 2.97 14.09 3.15 14.21 3.29C14.33 3.43 14.48 3.5 14.64 3.5L16.98 3.5C17.48 3.5 17.91 3.72 18.26 4.16C18.61 4.6 18.79 5.14 18.79 5.76L18.79 8.78C18.79 8.99 18.84 9.17 18.96 9.31C19.07 9.45 19.21 9.53 19.38 9.53Z" fill="#FFFFFF" fill-opacity="0.901961" fill-rule="nonzero"/>
	</g>
</svg>
