<svg width="24.000000" height="24.000000" viewBox="0 0 24 24" fill="none" xmlns="http://www.w3.org/2000/svg" xmlns:xlink="http://www.w3.org/1999/xlink">
	<desc>
			Created with Pixso.
	</desc>
	<defs/>
	<g opacity="0.000000">
		<rect id="rect" width="24.000000" height="24.000000" fill="#000000" fill-opacity="1.000000"/>
	</g>
	<path id="10" d="M13.03 16.01Q13.49 16.2 14.02 16.2Q14.56 16.2 15.01 16.01Q15.25 15.91 15.47 15.74Q16.1 15.28 16.45 14.35Q16.8 13.42 16.8 12.06Q16.8 10.68 16.45 9.75Q16.1 8.82 15.47 8.36Q15.25 8.2 15.01 8.09Q14.56 7.9 14.02 7.9Q13.49 7.9 13.03 8.1Q12.79 8.2 12.58 8.36Q11.96 8.82 11.61 9.76Q11.26 10.69 11.26 12.06Q11.26 13.42 11.61 14.35Q11.96 15.28 12.58 15.74Q12.79 15.9 13.03 16.01ZM8.66 8.03L6.5 9.28L6.5 10.3L8.41 9.21L8.41 16.08L9.41 16.08L9.41 8.03L8.66 8.03ZM14.58 15.19Q14.33 15.3 14.02 15.3Q13.74 15.3 13.5 15.2Q13.06 15.01 12.76 14.49Q12.31 13.67 12.31 12.06Q12.31 10.43 12.76 9.61Q13.06 9.08 13.5 8.89Q13.74 8.79 14.02 8.79Q14.32 8.79 14.57 8.9Q15 9.09 15.29 9.61Q15.75 10.43 15.75 12.06Q15.75 13.69 15.29 14.49Q15.01 15 14.58 15.19Z" fill="#FFFFFF" fill-opacity="1.000000" fill-rule="evenodd"/>
	<path id="path" d="M22.99 12.1C22.99 10.17 22.52 8.38 21.6 6.71C20.67 5.05 19.41 3.7 17.81 2.68C16.2 1.66 14.45 1.1 12.53 1.01C11.07 0.94 9.65 1.14 8.29 1.62C6.92 2.11 5.69 2.84 4.61 3.84C3.52 4.83 2.66 5.98 2.04 7.3C1.43 8.6 1.08 9.99 1 11.47C0.94 12.92 1.15 14.34 1.62 15.71C2.11 17.07 2.84 18.3 3.83 19.38C4.83 20.47 5.98 21.33 7.29 21.95C8.6 22.56 9.99 22.9 11.47 22.97C13.08 22.97 14.49 22.77 15.68 22.37C16.87 21.98 18.04 21.28 19.2 20.28C19.36 20.15 19.44 19.98 19.45 19.78C19.48 19.56 19.41 19.37 19.27 19.21C19.14 19.06 18.97 18.97 18.77 18.95C18.56 18.94 18.37 19.01 18.22 19.14C17.28 19.96 16.24 20.58 15.1 20.98C13.94 21.37 12.75 21.54 11.52 21.48C10.25 21.41 9.05 21.11 7.91 20.58C6.78 20.04 5.79 19.3 4.94 18.36C4.09 17.43 3.45 16.37 3.04 15.2C2.61 14.02 2.43 12.8 2.5 11.54C2.56 10.28 2.85 9.08 3.37 7.93C3.91 6.8 4.65 5.81 5.58 4.96C6.51 4.1 7.57 3.45 8.75 3.04C9.92 2.61 11.15 2.43 12.43 2.5C14.09 2.58 15.61 3.05 16.99 3.91C18.37 4.79 19.45 5.94 20.25 7.37C21.06 8.79 21.46 10.33 21.46 12L19.85 12C19.77 12 19.69 12.02 19.62 12.08C19.57 12.13 19.53 12.21 19.5 12.29C19.49 12.37 19.51 12.45 19.56 12.53L21.62 15.88C21.67 15.97 21.74 16.02 21.83 16.04C21.91 16.06 22 16.06 22.08 16.03C22.17 15.99 22.23 15.93 22.27 15.84C22.47 15.28 22.65 14.65 22.79 13.96C22.92 13.26 22.99 12.63 22.99 12.1Z" fill="#FFFFFF" fill-opacity="0.901961" fill-rule="nonzero"/>
</svg>
