<?xml version="1.0" encoding="UTF-8"?>
<svg width="24px" height="24px" viewBox="0 0 24 24" version="1.1" xmlns="http://www.w3.org/2000/svg" xmlns:xlink="http://www.w3.org/1999/xlink">
    <title>ic_gallery_material_select_checkbox</title>
    <g id="ic_gallery_material_select_checkbox" stroke="none" stroke-width="1" fill="none" fill-rule="evenodd">
        <g id="编组-6" fill="#000000" fill-rule="nonzero">
            <g id="编组" transform="translate(2.000000, 2.000000)">
                <path d="M16,0 C18.209139,0 20,1.790861 20,4 L20,16 C20,18.209139 18.209139,20 16,20 L4,20 C1.790861,20 0,18.209139 0,16 L0,4 C0,1.790861 1.790861,0 4,0 L16,0 Z M16,1.5 L4,1.5 C2.6745166,1.5 1.58996133,2.53153594 1.50531768,3.83562431 L1.5,4 L1.5,16 C1.5,17.3254834 2.53153594,18.4100387 3.83562431,18.4946823 L4,18.5 L16,18.5 C17.3254834,18.5 18.4100387,17.4684641 18.4946823,16.1643757 L18.5,16 L18.5,4 C18.5,2.6745166 17.4684641,1.58996133 16.1643757,1.50531768 L16,1.5 Z M15.5303301,6.46966991 C15.7965966,6.73593648 15.8208027,7.15260016 15.6029482,7.44621165 L15.5303301,7.53033009 L9.7374369,13.3232233 C9.0942204,13.9664398 8.0748689,14.004276 7.3874012,13.4367321 L7.26256313,13.3232233 L4.96966991,11.0303301 C4.6767767,10.7374369 4.6767767,10.2625631 4.96966991,9.9696699 C5.23593648,9.7034034 5.65260016,9.6791973 5.94621165,9.8970518 L6.03033009,9.9696699 L8.3232233,12.2625631 C8.4045825,12.3439224 8.5280669,12.3574822 8.6234678,12.3032427 L8.6767767,12.2625631 L14.4696699,6.46966991 C14.7625631,6.1767767 15.2374369,6.1767767 15.5303301,6.46966991 Z" id="形状结合"></path>
            </g>
        </g>
    </g>
</svg>