<?xml version="1.0" encoding="UTF-8"?>
<svg width="16px" height="16px" viewBox="0 0 16 16" version="1.1" xmlns="http://www.w3.org/2000/svg" xmlns:xlink="http://www.w3.org/1999/xlink">
    <title> ic_s_ic S_search 2</title>
    <defs>
        <path d="M10.3035747,9.68004127 L12.7631456,12.1393721 C12.8363689,12.2125954 12.8363689,12.3313139 12.7631456,12.4045372 L12.3212039,12.8464789 C12.2479805,12.9197022 12.1292621,12.9197022 12.0560388,12.8464789 L9.58932617,10.3808773 C9.84565312,10.1666117 10.0845484,9.93218727 10.3035747,9.68004127 Z M5.58333333,0 C8.66692319,0 11.1666667,2.49974348 11.1666667,5.58333333 C11.1666667,7.08117687 10.5768526,8.44126194 9.61680898,9.44400405 L9.83137117,9.20672673 C9.75535882,9.29575766 9.67659673,9.38237 9.59521636,9.46643228 C9.52389782,9.54008006 9.45116171,9.61122103 9.37653345,9.68034819 C9.3691703,9.68716827 9.36188286,9.69388248 9.35457755,9.70057751 C8.3613131,10.6109637 7.0372189,11.1666667 5.58333333,11.1666667 C2.49974348,11.1666667 0,8.66692319 0,5.58333333 C0,2.49974348 2.49974348,0 5.58333333,0 Z M5.58333333,1 C3.05202823,1 1,3.05202823 1,5.58333333 C1,8.11463844 3.05202823,10.1666667 5.58333333,10.1666667 C8.11463844,10.1666667 10.1666667,8.11463844 10.1666667,5.58333333 C10.1666667,3.05202823 8.11463844,1 5.58333333,1 Z" id="path-1"></path>
    </defs>
    <g id="页面-1" stroke="none" stroke-width="1" fill="none" fill-rule="evenodd">
        <g id="图标" transform="translate(-32.000000, -305.000000)">
            <rect fill="#B5B5B5" x="0" y="0" width="664" height="763" opacity="0"></rect>
            <rect id="矩形" x="32" y="305" width="16" height="16"></rect>
            <g id="-ic_s/ic-S_search-2" transform="translate(32.000000, 305.000000)" opacity="0.600000024">
                <g id="编组-2" transform="translate(1.333333, 1.333333)">
                    <mask id="mask-2" fill="white">
                        <use xlink:href="#path-1"></use>
                    </mask>
                    <g id="形状结合" fill-rule="nonzero"></g>
                    <rect id="color/#B5B5B5" fill="#B5B5B5" mask="url(#mask-2)" x="-1.33333333" y="-1.33333333" width="16" height="16"></rect>
                </g>
            </g>
        </g>
    </g>
</svg>