<?xml version="1.0" encoding="UTF-8"?>
<svg width="24px" height="24px" viewBox="0 0 24 24" version="1.1" xmlns="http://www.w3.org/2000/svg" xmlns:xlink="http://www.w3.org/1999/xlink">
    <title>newicon备份</title>
    <g id="页面-1" stroke="none" stroke-width="1" fill="none" fill-rule="evenodd">
        <g id="图标" transform="translate(-28.000000, -128.000000)">
            <rect id="矩形" x="28" y="128" width="24" height="24"></rect>
            <g id="newicon备份" transform="translate(40.000000, 140.000000) scale(-1, 1) translate(-40.000000, -140.000000) translate(28.000000, 128.000000)">
                <g id="编组-9" transform="translate(2.000000, 3.000000)" fill="#000000">
                    <path d="M14.7001107,11 L20.2999151,11 C20.6865613,11 21,11.3198306 21,11.7143617 C21,11.8765728 20.9458969,12.0339542 20.8465896,12.1606199 L18.0466874,15.7318702 C17.8051514,16.0399472 17.3645933,16.0898964 17.0626733,15.8434348 C17.0223031,15.81048 16.9856346,15.7730637 16.9533384,15.7318702 L14.1534362,12.1606199 C13.9119002,11.8525429 13.9608511,11.4030005 14.2627711,11.1565389 C14.3869053,11.0552064 14.5411414,11 14.7001107,11 Z" id="矩形备份" transform="translate(17.500000, 13.500000) rotate(-90.000000) translate(-17.500000, -13.500000) "></path>
                    <path d="M19.25,0 C19.6642136,0 20,0.44771525 20,1 C20,1.55228475 19.6642136,2 19.25,2 L0.75,2 C0.335786438,2 0,1.55228475 0,1 C0,0.44771525 0.335786438,0 0.75,0 L19.25,0 Z" id="路径" fill-rule="nonzero"></path>
                    <path d="M19.2307692,5 C19.6556037,5 20,5.44771525 20,6 C20,6.55228475 19.6556037,7 19.2307692,7 L0.769230769,7 C0.344396346,7 0,6.55228475 0,6 C0,5.44771525 0.344396346,5 0.769230769,5 L19.2307692,5 Z" id="路径" fill-rule="nonzero"></path>
                    <path d="M11.25,10 C11.6642136,10 12,10.4477153 12,11 C12,11.5522847 11.6642136,12 11.25,12 L0.75,12 C0.335786438,12 0,11.5522847 0,11 C0,10.4477153 0.335786438,10 0.75,10 L11.25,10 Z" id="路径" fill-rule="nonzero"></path>
                    <path d="M11.25,15 C11.6642136,15 12,15.4477153 12,16 C12,16.5522847 11.6642136,17 11.25,17 L0.75,17 C0.335786438,17 0,16.5522847 0,16 C0,15.4477153 0.335786438,15 0.75,15 L11.25,15 Z" id="路径备份" fill-rule="nonzero"></path>
                </g>
                <rect id="矩形" x="0" y="0" width="24" height="24"></rect>
            </g>
        </g>
    </g>
</svg>