<?xml version="1.0" encoding="us-ascii" standalone="no"?><svg xmlns="http://www.w3.org/2000/svg" xmlns:xlink="http://www.w3.org/1999/xlink" contentStyleType="text/css" height="500px" preserveAspectRatio="none" style="width:879px;height:500px;background:#FFFFFF;" version="1.1" viewBox="0 0 879 500" width="879px" zoomAndPan="magnify"><defs/><g><rect fill="none" height="389.4722" style="stroke:#000000;stroke-width:1.5;" width="862" x="10" y="56.0679"/><rect fill="none" height="224.9421" style="stroke:#000000;stroke-width:1.5;" width="612" x="20" y="82.7739"/><rect fill="none" height="159.5301" style="stroke:#000000;stroke-width:1.5;" width="474" x="148" y="141.186"/><rect fill="none" height="114.8241" style="stroke:#000000;stroke-width:1.5;" width="421" x="441" y="323.716"/><line style="stroke:#181818;stroke-width:0.5;stroke-dasharray:5.0,5.0;" x1="89" x2="89" y1="39.0679" y2="462.5401"/><line style="stroke:#181818;stroke-width:0.5;stroke-dasharray:5.0,5.0;" x1="227" x2="227" y1="39.0679" y2="462.5401"/><line style="stroke:#181818;stroke-width:0.5;stroke-dasharray:5.0,5.0;" x1="406" x2="406" y1="39.0679" y2="462.5401"/><line style="stroke:#181818;stroke-width:0.5;stroke-dasharray:5.0,5.0;" x1="531" x2="531" y1="39.0679" y2="462.5401"/><line style="stroke:#181818;stroke-width:0.5;stroke-dasharray:5.0,5.0;" x1="680" x2="680" y1="39.0679" y2="462.5401"/><line style="stroke:#181818;stroke-width:0.5;stroke-dasharray:5.0,5.0;" x1="800" x2="800" y1="39.0679" y2="462.5401"/><rect fill="#E2E2F0" height="33.0679" rx="2.5" ry="2.5" style="stroke:#181818;stroke-width:0.5;" width="118" x="30" y="5"/><text fill="#000000" font-family="sans-serif" font-size="14" lengthAdjust="spacing" textLength="104" x="37" y="26.9659">SamplerThread</text><rect fill="#E2E2F0" height="33.0679" rx="2.5" ry="2.5" style="stroke:#181818;stroke-width:0.5;" width="118" x="30" y="461.5401"/><text fill="#000000" font-family="sans-serif" font-size="14" lengthAdjust="spacing" textLength="104" x="37" y="483.5061">SamplerThread</text><rect fill="#E2E2F0" height="33.0679" rx="2.5" ry="2.5" style="stroke:#181818;stroke-width:0.5;" width="138" x="158" y="5"/><text fill="#000000" font-family="sans-serif" font-size="14" lengthAdjust="spacing" textLength="124" x="165" y="26.9659">ApplicationThread</text><rect fill="#E2E2F0" height="33.0679" rx="2.5" ry="2.5" style="stroke:#181818;stroke-width:0.5;" width="138" x="158" y="461.5401"/><text fill="#000000" font-family="sans-serif" font-size="14" lengthAdjust="spacing" textLength="124" x="165" y="483.5061">ApplicationThread</text><rect fill="#E2E2F0" height="33.0679" rx="2.5" ry="2.5" style="stroke:#181818;stroke-width:0.5;" width="70" x="371" y="5"/><text fill="#000000" font-family="sans-serif" font-size="14" lengthAdjust="spacing" textLength="56" x="378" y="26.9659">Sampler</text><rect fill="#E2E2F0" height="33.0679" rx="2.5" ry="2.5" style="stroke:#181818;stroke-width:0.5;" width="70" x="371" y="461.5401"/><text fill="#000000" font-family="sans-serif" font-size="14" lengthAdjust="spacing" textLength="56" x="378" y="483.5061">Sampler</text><rect fill="#E2E2F0" height="33.0679" rx="2.5" ry="2.5" style="stroke:#181818;stroke-width:0.5;" width="161" x="451" y="5"/><text fill="#000000" font-family="sans-serif" font-size="14" lengthAdjust="spacing" textLength="147" x="458" y="26.9659">ThreadCommunicator</text><rect fill="#E2E2F0" height="33.0679" rx="2.5" ry="2.5" style="stroke:#181818;stroke-width:0.5;" width="161" x="451" y="461.5401"/><text fill="#000000" font-family="sans-serif" font-size="14" lengthAdjust="spacing" textLength="147" x="458" y="483.5061">ThreadCommunicator</text><rect fill="#E2E2F0" height="33.0679" rx="2.5" ry="2.5" style="stroke:#181818;stroke-width:0.5;" width="116" x="622" y="5"/><text fill="#000000" font-family="sans-serif" font-size="14" lengthAdjust="spacing" textLength="102" x="629" y="26.9659">ListenerThread</text><rect fill="#E2E2F0" height="33.0679" rx="2.5" ry="2.5" style="stroke:#181818;stroke-width:0.5;" width="116" x="622" y="461.5401"/><text fill="#000000" font-family="sans-serif" font-size="14" lengthAdjust="spacing" textLength="102" x="629" y="483.5061">ListenerThread</text><rect fill="#E2E2F0" height="33.0679" rx="2.5" ry="2.5" style="stroke:#181818;stroke-width:0.5;" width="104" x="748" y="5"/><text fill="#000000" font-family="sans-serif" font-size="14" lengthAdjust="spacing" textLength="90" x="755" y="26.9659">StreamWriter</text><rect fill="#E2E2F0" height="33.0679" rx="2.5" ry="2.5" style="stroke:#181818;stroke-width:0.5;" width="104" x="748" y="461.5401"/><text fill="#000000" font-family="sans-serif" font-size="14" lengthAdjust="spacing" textLength="90" x="755" y="483.5061">StreamWriter</text><path d="M10,56.0679 L77,56.0679 L77,65.7739 L67,75.7739 L10,75.7739 L10,56.0679 " fill="#EEEEEE" style="stroke:#000000;stroke-width:1.5;"/><rect fill="none" height="389.4722" style="stroke:#000000;stroke-width:1.5;" width="862" x="10" y="56.0679"/><text fill="#000000" font-family="sans-serif" font-size="13" font-weight="bold" lengthAdjust="spacing" textLength="22" x="25" y="70.9649">par</text><path d="M20,82.7739 L93,82.7739 L93,92.4799 L83,102.4799 L20,102.4799 L20,82.7739 " fill="#EEEEEE" style="stroke:#000000;stroke-width:1.5;"/><rect fill="none" height="224.9421" style="stroke:#000000;stroke-width:1.5;" width="612" x="20" y="82.7739"/><text fill="#000000" font-family="sans-serif" font-size="13" font-weight="bold" lengthAdjust="spacing" textLength="28" x="35" y="97.6709">loop</text><text fill="#000000" font-family="sans-serif" font-size="11" font-weight="bold" lengthAdjust="spacing" textLength="90" x="108" y="96.5328">[while sampling]</text><polygon fill="#181818" points="215,122.186,225,126.186,215,130.186,219,126.186" style="stroke:#181818;stroke-width:1.0;"/><line style="stroke:#181818;stroke-width:1.0;" x1="89" x2="221" y1="126.186" y2="126.186"/><text fill="#000000" font-family="sans-serif" font-size="13" lengthAdjust="spacing" textLength="53" x="96" y="120.377">SIGPROF</text><path d="M148,141.186 L402,141.186 L402,150.892 L392,160.892 L148,160.892 L148,141.186 " fill="#EEEEEE" style="stroke:#000000;stroke-width:1.5;"/><rect fill="none" height="159.5301" style="stroke:#000000;stroke-width:1.5;" width="474" x="148" y="141.186"/><text fill="#000000" font-family="sans-serif" font-size="13" font-weight="bold" lengthAdjust="spacing" textLength="209" x="163" y="156.083">SigProfSamplingProfilerHandler</text><line style="stroke:#181818;stroke-width:1.0;" x1="227" x2="269" y1="184.598" y2="184.598"/><line style="stroke:#181818;stroke-width:1.0;" x1="269" x2="269" y1="184.598" y2="197.598"/><line style="stroke:#181818;stroke-width:1.0;" x1="228" x2="269" y1="197.598" y2="197.598"/><polygon fill="#181818" points="238,193.598,228,197.598,238,201.598,234,197.598" style="stroke:#181818;stroke-width:1.0;"/><text fill="#000000" font-family="sans-serif" font-size="13" lengthAdjust="spacing" textLength="127" x="234" y="178.789">collect thread sample</text><polygon fill="#181818" points="394,225.304,404,229.304,394,233.304,398,229.304" style="stroke:#181818;stroke-width:1.0;"/><line style="stroke:#181818;stroke-width:1.0;" x1="227" x2="400" y1="229.304" y2="229.304"/><text fill="#000000" font-family="sans-serif" font-size="13" lengthAdjust="spacing" textLength="155" x="234" y="223.495">GetSampleCommunicator</text><polygon fill="#181818" points="238,257.01,228,261.01,238,265.01,234,261.01" style="stroke:#181818;stroke-width:1.0;"/><line style="stroke:#181818;stroke-width:1.0;stroke-dasharray:2.0,2.0;" x1="232" x2="405" y1="261.01" y2="261.01"/><text fill="#000000" font-family="sans-serif" font-size="13" lengthAdjust="spacing" textLength="142" x="244" y="255.201">ThreadCommunicator&amp;</text><polygon fill="#181818" points="519.5,288.716,529.5,292.716,519.5,296.716,523.5,292.716" style="stroke:#181818;stroke-width:1.0;"/><line style="stroke:#181818;stroke-width:1.0;" x1="227" x2="525.5" y1="292.716" y2="292.716"/><text fill="#000000" font-family="sans-serif" font-size="13" lengthAdjust="spacing" textLength="74" x="234" y="286.907">SendSample</text><line style="stroke:#000000;stroke-width:1.0;stroke-dasharray:2.0,2.0;" x1="10" x2="872" y1="315.716" y2="315.716"/><path d="M441,323.716 L514,323.716 L514,333.4221 L504,343.4221 L441,343.4221 L441,323.716 " fill="#EEEEEE" style="stroke:#000000;stroke-width:1.5;"/><rect fill="none" height="114.8241" style="stroke:#000000;stroke-width:1.5;" width="421" x="441" y="323.716"/><text fill="#000000" font-family="sans-serif" font-size="13" font-weight="bold" lengthAdjust="spacing" textLength="28" x="456" y="338.6131">loop</text><text fill="#000000" font-family="sans-serif" font-size="11" font-weight="bold" lengthAdjust="spacing" textLength="90" x="529" y="337.475">[while sampling]</text><polygon fill="#181818" points="542.5,363.1281,532.5,367.1281,542.5,371.1281,538.5,367.1281" style="stroke:#181818;stroke-width:1.0;"/><line style="stroke:#181818;stroke-width:1.0;" x1="536.5" x2="679" y1="367.1281" y2="367.1281"/><text fill="#000000" font-family="sans-serif" font-size="13" lengthAdjust="spacing" textLength="74" x="548.5" y="361.3191">ReadSample</text><polygon fill="#181818" points="668,394.8341,678,398.8341,668,402.8341,672,398.8341" style="stroke:#181818;stroke-width:1.0;"/><line style="stroke:#181818;stroke-width:1.0;stroke-dasharray:2.0,2.0;" x1="531.5" x2="674" y1="398.8341" y2="398.8341"/><text fill="#000000" font-family="sans-serif" font-size="13" lengthAdjust="spacing" textLength="68" x="538.5" y="393.0251">SampleInfo</text><polygon fill="#181818" points="788,426.5401,798,430.5401,788,434.5401,792,430.5401" style="stroke:#181818;stroke-width:1.0;"/><line style="stroke:#181818;stroke-width:1.0;" x1="680" x2="794" y1="430.5401" y2="430.5401"/><text fill="#000000" font-family="sans-serif" font-size="13" lengthAdjust="spacing" textLength="76" x="687" y="424.7311">WriteSample</text><!--SRC=[XLB1QiCm3BtdAtJQBJyGng0CrXKABVLWPvEegS2nZAFItvyTPpHkabO7H-ZvlIV9STeBrUIq5L2wSmRzpyMZRWetGJRE6Qgr4Di5TEHbjNJjaxlkQYEJStXFlQ1Tz58IIjsl9mcI4IaA266O7TmkP13ww4UsJK2Ch7CeF-ODLw1ss-Ffy7KdjPwl3XIrHyzdDMh6F7ZuRssRE1DCOYQwubIpCLWBIBeqj8klbSOXAjYYf3nRttF-UrdU1URBVtjjFoU5dQ5jLDv-gAGL3WcQ7jVVvv-Jl_QQsIbK7imUY778nJO7riwU-OdbzB-gOFXEtD8quVW3]--></g></svg>