<?xml version="1.0" encoding="us-ascii" standalone="no"?><svg xmlns="http://www.w3.org/2000/svg" xmlns:xlink="http://www.w3.org/1999/xlink" contentStyleType="text/css" height="602px" preserveAspectRatio="none" style="width:1021px;height:602px;background:#FFFFFF;" version="1.1" viewBox="0 0 1021 602" width="1021px" zoomAndPan="magnify"><defs/><g><rect fill="none" height="142.8241" style="stroke:#000000;stroke-width:1.5;" width="273" x="742" y="246.304"/><rect fill="none" height="64.412" style="stroke:#000000;stroke-width:1.5;" width="253" x="752" y="273.01"/><line style="stroke:#181818;stroke-width:0.5;stroke-dasharray:5.0,5.0;" x1="40" x2="40" y1="39.0679" y2="564.6582"/><line style="stroke:#181818;stroke-width:0.5;stroke-dasharray:5.0,5.0;" x1="191" x2="191" y1="39.0679" y2="564.6582"/><line style="stroke:#181818;stroke-width:0.5;stroke-dasharray:5.0,5.0;" x1="591" x2="591" y1="39.0679" y2="564.6582"/><line style="stroke:#181818;stroke-width:0.5;stroke-dasharray:5.0,5.0;" x1="694" x2="694" y1="39.0679" y2="564.6582"/><line style="stroke:#181818;stroke-width:0.5;stroke-dasharray:5.0,5.0;" x1="821" x2="821" y1="39.0679" y2="564.6582"/><rect fill="#E2E2F0" height="33.0679" rx="2.5" ry="2.5" style="stroke:#181818;stroke-width:0.5;" width="71" x="5" y="5"/><text fill="#000000" font-family="sans-serif" font-size="14" lengthAdjust="spacing" textLength="57" x="12" y="26.9659">Runtime</text><rect fill="#E2E2F0" height="33.0679" rx="2.5" ry="2.5" style="stroke:#181818;stroke-width:0.5;" width="71" x="5" y="563.6582"/><text fill="#000000" font-family="sans-serif" font-size="14" lengthAdjust="spacing" textLength="57" x="12" y="585.6241">Runtime</text><rect fill="#E2E2F0" height="33.0679" rx="2.5" ry="2.5" style="stroke:#181818;stroke-width:0.5;" width="210" x="86" y="5"/><text fill="#000000" font-family="sans-serif" font-size="14" lengthAdjust="spacing" textLength="196" x="93" y="26.9659">RuntimeNotificationManager</text><rect fill="#E2E2F0" height="33.0679" rx="2.5" ry="2.5" style="stroke:#181818;stroke-width:0.5;" width="210" x="86" y="563.6582"/><text fill="#000000" font-family="sans-serif" font-size="14" lengthAdjust="spacing" textLength="196" x="93" y="585.6241">RuntimeNotificationManager</text><rect fill="#E2E2F0" height="33.0679" rx="2.5" ry="2.5" style="stroke:#181818;stroke-width:0.5;" width="70" x="556" y="5"/><text fill="#000000" font-family="sans-serif" font-size="14" lengthAdjust="spacing" textLength="56" x="563" y="26.9659">Sampler</text><rect fill="#E2E2F0" height="33.0679" rx="2.5" ry="2.5" style="stroke:#181818;stroke-width:0.5;" width="70" x="556" y="563.6582"/><text fill="#000000" font-family="sans-serif" font-size="14" lengthAdjust="spacing" textLength="56" x="563" y="585.6241">Sampler</text><rect fill="#E2E2F0" height="33.0679" rx="2.5" ry="2.5" style="stroke:#181818;stroke-width:0.5;" width="116" x="636" y="5"/><text fill="#000000" font-family="sans-serif" font-size="14" lengthAdjust="spacing" textLength="102" x="643" y="26.9659">ListenerThread</text><rect fill="#E2E2F0" height="33.0679" rx="2.5" ry="2.5" style="stroke:#181818;stroke-width:0.5;" width="116" x="636" y="563.6582"/><text fill="#000000" font-family="sans-serif" font-size="14" lengthAdjust="spacing" textLength="102" x="643" y="585.6241">ListenerThread</text><rect fill="#E2E2F0" height="33.0679" rx="2.5" ry="2.5" style="stroke:#181818;stroke-width:0.5;" width="118" x="762" y="5"/><text fill="#000000" font-family="sans-serif" font-size="14" lengthAdjust="spacing" textLength="104" x="769" y="26.9659">SamplerThread</text><rect fill="#E2E2F0" height="33.0679" rx="2.5" ry="2.5" style="stroke:#181818;stroke-width:0.5;" width="118" x="762" y="563.6582"/><text fill="#000000" font-family="sans-serif" font-size="14" lengthAdjust="spacing" textLength="104" x="769" y="585.6241">SamplerThread</text><polygon fill="#181818" points="579,68.7739,589,72.7739,579,76.7739,583,72.7739" style="stroke:#181818;stroke-width:1.0;"/><line style="stroke:#181818;stroke-width:1.0;" x1="40.5" x2="585" y1="72.7739" y2="72.7739"/><text fill="#000000" font-family="sans-serif" font-size="13" lengthAdjust="spacing" textLength="39" x="47.5" y="66.9649">Create</text><polygon fill="#181818" points="202,100.4799,192,104.4799,202,108.4799,198,104.4799" style="stroke:#181818;stroke-width:1.0;"/><line style="stroke:#181818;stroke-width:1.0;" x1="196" x2="590" y1="104.4799" y2="104.4799"/><text fill="#000000" font-family="sans-serif" font-size="13" lengthAdjust="spacing" textLength="351" x="208" y="98.6709">AddListener(instance_, THREAD_EVENTS | LOAD_MODULE)</text><polygon fill="#181818" points="51.5,132.186,41.5,136.186,51.5,140.186,47.5,136.186" style="stroke:#181818;stroke-width:1.0;"/><line style="stroke:#181818;stroke-width:1.0;stroke-dasharray:2.0,2.0;" x1="45.5" x2="590" y1="136.186" y2="136.186"/><text fill="#000000" font-family="sans-serif" font-size="13" lengthAdjust="spacing" textLength="56" x="57.5" y="130.377">instance_</text><polygon fill="#181818" points="579,163.892,589,167.892,579,171.892,583,167.892" style="stroke:#181818;stroke-width:1.0;"/><line style="stroke:#181818;stroke-width:1.0;" x1="40.5" x2="585" y1="167.892" y2="167.892"/><text fill="#000000" font-family="sans-serif" font-size="13" lengthAdjust="spacing" textLength="29" x="47.5" y="162.083">Start</text><polygon fill="#181818" points="682,195.598,692,199.598,682,203.598,686,199.598" style="stroke:#181818;stroke-width:1.0;"/><line style="stroke:#181818;stroke-width:1.0;" x1="591" x2="688" y1="199.598" y2="199.598"/><text fill="#000000" font-family="sans-serif" font-size="13" lengthAdjust="spacing" textLength="37" x="598" y="193.789">create</text><polygon fill="#181818" points="809,227.304,819,231.304,809,235.304,813,231.304" style="stroke:#181818;stroke-width:1.0;"/><line style="stroke:#181818;stroke-width:1.0;" x1="591" x2="815" y1="231.304" y2="231.304"/><text fill="#000000" font-family="sans-serif" font-size="13" lengthAdjust="spacing" textLength="37" x="598" y="225.495">create</text><path d="M742,246.304 L815,246.304 L815,256.01 L805,266.01 L742,266.01 L742,246.304 " fill="#EEEEEE" style="stroke:#000000;stroke-width:1.5;"/><rect fill="none" height="142.8241" style="stroke:#000000;stroke-width:1.5;" width="273" x="742" y="246.304"/><text fill="#000000" font-family="sans-serif" font-size="13" font-weight="bold" lengthAdjust="spacing" textLength="28" x="757" y="261.201">loop</text><text fill="#000000" font-family="sans-serif" font-size="11" font-weight="bold" lengthAdjust="spacing" textLength="90" x="830" y="260.0629">[while sampling]</text><path d="M752,273.01 L825,273.01 L825,282.716 L815,292.716 L752,292.716 L752,273.01 " fill="#EEEEEE" style="stroke:#000000;stroke-width:1.5;"/><rect fill="none" height="64.412" style="stroke:#000000;stroke-width:1.5;" width="253" x="752" y="273.01"/><text fill="#000000" font-family="sans-serif" font-size="13" font-weight="bold" lengthAdjust="spacing" textLength="28" x="767" y="287.907">loop</text><text fill="#000000" font-family="sans-serif" font-size="11" font-weight="bold" lengthAdjust="spacing" textLength="160" x="840" y="286.7689">[for each application thread]</text><line style="stroke:#181818;stroke-width:1.0;" x1="821" x2="863" y1="316.4221" y2="316.4221"/><line style="stroke:#181818;stroke-width:1.0;" x1="863" x2="863" y1="316.4221" y2="329.4221"/><line style="stroke:#181818;stroke-width:1.0;" x1="822" x2="863" y1="329.4221" y2="329.4221"/><polygon fill="#181818" points="832,325.4221,822,329.4221,832,333.4221,828,329.4221" style="stroke:#181818;stroke-width:1.0;"/><text fill="#000000" font-family="sans-serif" font-size="13" lengthAdjust="spacing" textLength="127" x="828" y="310.6131">collect thread sample</text><line style="stroke:#181818;stroke-width:1.0;" x1="821" x2="863" y1="368.1281" y2="368.1281"/><line style="stroke:#181818;stroke-width:1.0;" x1="863" x2="863" y1="368.1281" y2="381.1281"/><line style="stroke:#181818;stroke-width:1.0;" x1="822" x2="863" y1="381.1281" y2="381.1281"/><polygon fill="#181818" points="832,377.1281,822,381.1281,832,385.1281,828,381.1281" style="stroke:#181818;stroke-width:1.0;"/><text fill="#000000" font-family="sans-serif" font-size="13" lengthAdjust="spacing" textLength="146" x="828" y="362.3191">sleep(samplingInterval_)</text><polygon fill="#181818" points="579,415.8341,589,419.8341,579,423.8341,583,419.8341" style="stroke:#181818;stroke-width:1.0;"/><line style="stroke:#181818;stroke-width:1.0;" x1="40.5" x2="585" y1="419.8341" y2="419.8341"/><text fill="#000000" font-family="sans-serif" font-size="13" lengthAdjust="spacing" textLength="28" x="47.5" y="414.0251">Stop</text><polygon fill="#181818" points="602,447.5401,592,451.5401,602,455.5401,598,451.5401" style="stroke:#181818;stroke-width:1.0;"/><line style="stroke:#181818;stroke-width:1.0;stroke-dasharray:2.0,2.0;" x1="596" x2="693" y1="451.5401" y2="451.5401"/><text fill="#000000" font-family="sans-serif" font-size="13" lengthAdjust="spacing" textLength="22" x="608" y="445.7311">join</text><polygon fill="#181818" points="602,479.2461,592,483.2461,602,487.2461,598,483.2461" style="stroke:#181818;stroke-width:1.0;"/><line style="stroke:#181818;stroke-width:1.0;stroke-dasharray:2.0,2.0;" x1="596" x2="820" y1="483.2461" y2="483.2461"/><text fill="#000000" font-family="sans-serif" font-size="13" lengthAdjust="spacing" textLength="22" x="608" y="477.4371">join</text><polygon fill="#181818" points="579,510.9521,589,514.9521,579,518.9521,583,514.9521" style="stroke:#181818;stroke-width:1.0;"/><line style="stroke:#181818;stroke-width:1.0;" x1="40.5" x2="585" y1="514.9521" y2="514.9521"/><text fill="#000000" font-family="sans-serif" font-size="13" lengthAdjust="spacing" textLength="47" x="47.5" y="509.1431">Destroy</text><polygon fill="#181818" points="202,542.6582,192,546.6582,202,550.6582,198,546.6582" style="stroke:#181818;stroke-width:1.0;"/><line style="stroke:#181818;stroke-width:1.0;" x1="196" x2="590" y1="546.6582" y2="546.6582"/><text fill="#000000" font-family="sans-serif" font-size="13" lengthAdjust="spacing" textLength="376" x="208" y="540.8492">RemoveListener(instance_, THREAD_EVENTS | LOAD_MODULE)</text><!--SRC=[bLBBQiCm4BphA_QOGFq3fXH2RMZ1IS1sUpL2tiGgiYJaRKgX7ry_uofnQBitxSpEp2wot94Kqd9DaBvhaZKoUztR6P87AJX9exTSyoCwZvRnsggBNY8RGeqkhnpoSea-8cmqWU1XGa9uR252niP6XztE4iAcB2U_bTGDSIsmk8FyAOqtKH6_nhiyWoz8zkrhkuzUadWzIy_Q8Po7bsDbrAxXfVBN344CmNyml6tF1AQCiV1HIONGT0ofZmpQwli7um2vg83R5XcM1Hhk1MDvkaj6HYaKD8uD9jXFenvKVbDe5A9TJUcUDQ4xSLMiMITmupx6pkUv3uAh-xmPgJt2XMUFBsf7s90pdt_-4odMveJ__XRV]--></g></svg>