<svg width="72.000000" height="68.000000" viewBox="0 0 72 68" fill="none" xmlns="http://www.w3.org/2000/svg" xmlns:xlink="http://www.w3.org/1999/xlink">
	<desc>
			Created with Pixso.
	</desc>
	<defs/>
	<path id="矩形 39" d="M30 0L42 0C58.56 0 72 13.43 72 30L72 44C72 57.25 61.25 68 48 68L24 68C10.74 68 0 57.25 0 44L0 30C0 13.43 13.43 0 30 0Z" fill="#FFCE84" fill-opacity="1.000000" fill-rule="evenodd"/>
	<path id="矩形 39" d="M42 0C58.56 0 72 13.43 72 30L72 44C72 57.25 61.25 68 48 68L24 68C10.74 68 0 57.25 0 44L0 30C0 13.43 13.43 0 30 0L42 0ZM42 3C56.91 3 69 15.08 69 30L69 44C69 55.59 59.59 65 48 65L24 65C12.4 65 3 55.59 3 44L3 30C3 15.08 15.08 3 30 3L42 3Z" fill="#327AF7" fill-opacity="1.000000" fill-rule="evenodd"/>
	<path id="path" d="M20 34.67C20 35.48 20.1 36.41 20.3 37.46C20.49 38.5 20.74 39.45 21.04 40.29C21.09 40.43 21.18 40.52 21.3 40.57C21.44 40.62 21.57 40.63 21.7 40.59C21.82 40.56 21.92 40.48 21.99 40.36L25 35.32C25.07 35.2 25.09 35.07 25.06 34.95C25.04 34.83 24.98 34.73 24.88 34.64C24.8 34.56 24.69 34.52 24.58 34.52L22.24 34.52C22.24 32.02 22.82 29.7 23.98 27.57C25.14 25.42 26.72 23.7 28.72 22.38C30.73 21.08 32.94 20.37 35.36 20.25C37.22 20.15 39.01 20.42 40.72 21.06C42.43 21.69 43.96 22.66 45.3 23.96C46.68 25.23 47.75 26.72 48.52 28.42C49.28 30.13 49.72 31.94 49.81 33.83C49.91 35.73 49.65 37.56 49.03 39.33C48.41 41.1 47.48 42.68 46.25 44.07C45.02 45.49 43.58 46.6 41.93 47.41C40.27 48.21 38.53 48.66 36.69 48.76C34.9 48.86 33.16 48.61 31.49 48.01C29.81 47.41 28.3 46.49 26.95 45.26C26.72 45.05 26.45 44.95 26.15 44.97C25.85 44.99 25.6 45.12 25.41 45.36C25.2 45.6 25.11 45.88 25.13 46.2C25.16 46.51 25.29 46.76 25.52 46.95C27.19 48.47 28.89 49.52 30.63 50.11C32.36 50.7 34.4 51 36.75 51C38.89 50.89 40.92 50.38 42.83 49.46C44.74 48.53 46.42 47.25 47.86 45.62C49.3 43.99 50.37 42.14 51.06 40.09C51.76 38.04 52.07 35.92 51.98 33.72C51.86 31.51 51.36 29.42 50.45 27.46C49.56 25.49 48.32 23.76 46.74 22.26C45.16 20.77 43.37 19.67 41.38 18.94C39.39 18.22 37.34 17.91 35.22 18.01C32.43 18.15 29.87 18.99 27.54 20.54C25.22 22.07 23.38 24.09 22.03 26.59C20.67 29.09 20 31.79 20 34.67Z" fill="#000000" fill-opacity="0.901961" fill-rule="nonzero"/>
	<path id="path" d="M20.3 37.46C20.49 38.5 20.74 39.45 21.04 40.29C21.09 40.43 21.18 40.52 21.3 40.57C21.44 40.62 21.57 40.63 21.7 40.59C21.82 40.56 21.92 40.48 21.99 40.36L25 35.32C25.07 35.2 25.09 35.07 25.06 34.95C25.04 34.83 24.98 34.73 24.88 34.64C24.8 34.56 24.69 34.52 24.58 34.52L22.24 34.52C22.24 32.02 22.82 29.7 23.98 27.57C25.14 25.42 26.72 23.7 28.72 22.38C30.73 21.08 32.94 20.37 35.36 20.25C37.22 20.15 39.01 20.42 40.72 21.06C42.43 21.69 43.96 22.66 45.3 23.96C46.68 25.23 47.75 26.72 48.52 28.42C49.28 30.13 49.72 31.94 49.81 33.83C49.91 35.73 49.65 37.56 49.03 39.33C48.41 41.1 47.48 42.68 46.25 44.07C45.02 45.49 43.58 46.6 41.93 47.41C40.27 48.21 38.53 48.66 36.69 48.76C34.9 48.86 33.16 48.61 31.49 48.01C29.81 47.41 28.3 46.49 26.95 45.26C26.72 45.05 26.45 44.95 26.15 44.97C25.85 44.99 25.6 45.12 25.41 45.36C25.2 45.6 25.11 45.88 25.13 46.2C25.16 46.51 25.29 46.76 25.52 46.95C27.19 48.47 28.89 49.52 30.63 50.11C32.36 50.7 34.4 51 36.75 51C38.89 50.89 40.92 50.38 42.83 49.46C44.74 48.53 46.42 47.25 47.86 45.62C49.3 43.99 50.37 42.14 51.06 40.09C51.76 38.04 52.07 35.92 51.98 33.72C51.86 31.51 51.36 29.42 50.45 27.46C49.56 25.49 48.32 23.76 46.74 22.26C45.16 20.77 43.37 19.67 41.38 18.94C39.39 18.22 37.34 17.91 35.22 18.01C32.43 18.15 29.87 18.99 27.54 20.54C25.22 22.07 23.38 24.09 22.03 26.59C20.67 29.09 20 31.79 20 34.67C20 35.48 20.1 36.41 20.3 37.46Z" stroke="#327AF7" stroke-opacity="1.000000" stroke-width="5.500000"/>
	<path id="path" d="M20 34.67C20 35.48 20.1 36.41 20.3 37.46C20.49 38.5 20.74 39.45 21.04 40.29C21.09 40.43 21.18 40.52 21.3 40.57C21.44 40.62 21.57 40.63 21.7 40.59C21.82 40.56 21.92 40.48 21.99 40.36L25 35.32C25.07 35.2 25.09 35.07 25.06 34.95C25.04 34.83 24.98 34.73 24.88 34.64C24.8 34.56 24.69 34.52 24.58 34.52L22.24 34.52C22.24 32.02 22.82 29.7 23.98 27.57C25.14 25.42 26.72 23.7 28.72 22.38C30.73 21.08 32.94 20.37 35.36 20.25C37.22 20.15 39.01 20.42 40.72 21.06C42.43 21.69 43.96 22.66 45.3 23.96C46.68 25.23 47.75 26.72 48.52 28.42C49.28 30.13 49.72 31.94 49.81 33.83C49.91 35.73 49.65 37.56 49.03 39.33C48.41 41.1 47.48 42.68 46.25 44.07C45.02 45.49 43.58 46.6 41.93 47.41C40.27 48.21 38.53 48.66 36.69 48.76C34.9 48.86 33.16 48.61 31.49 48.01C29.81 47.41 28.3 46.49 26.95 45.26C26.72 45.05 26.45 44.95 26.15 44.97C25.85 44.99 25.6 45.12 25.41 45.36C25.2 45.6 25.11 45.88 25.13 46.2C25.16 46.51 25.29 46.76 25.52 46.95C27.19 48.47 28.89 49.52 30.63 50.11C32.36 50.7 34.4 51 36.75 51C38.89 50.89 40.92 50.38 42.83 49.46C44.74 48.53 46.42 47.25 47.86 45.62C49.3 43.99 50.37 42.14 51.06 40.09C51.76 38.04 52.07 35.92 51.98 33.72C51.86 31.51 51.36 29.42 50.45 27.46C49.56 25.49 48.32 23.76 46.74 22.26C45.16 20.77 43.37 19.67 41.38 18.94C39.39 18.22 37.34 17.91 35.22 18.01C32.43 18.15 29.87 18.99 27.54 20.54C25.22 22.07 23.38 24.09 22.03 26.59C20.67 29.09 20 31.79 20 34.67Z" fill="#FFFFFF" fill-opacity="1.000000" fill-rule="nonzero"/>
	<path id="path" d="M20.3 37.46C20.49 38.5 20.74 39.45 21.04 40.29C21.09 40.43 21.18 40.52 21.3 40.57C21.44 40.62 21.57 40.63 21.7 40.59C21.82 40.56 21.92 40.48 21.99 40.36L25 35.32C25.07 35.2 25.09 35.07 25.06 34.95C25.04 34.83 24.98 34.73 24.88 34.64C24.8 34.56 24.69 34.52 24.58 34.52L22.24 34.52C22.24 32.02 22.82 29.7 23.98 27.57C25.14 25.42 26.72 23.7 28.72 22.38C30.73 21.08 32.94 20.37 35.36 20.25C37.22 20.15 39.01 20.42 40.72 21.06C42.43 21.69 43.96 22.66 45.3 23.96C46.68 25.23 47.75 26.72 48.52 28.42C49.28 30.13 49.72 31.94 49.81 33.83C49.91 35.73 49.65 37.56 49.03 39.33C48.41 41.1 47.48 42.68 46.25 44.07C45.02 45.49 43.58 46.6 41.93 47.41C40.27 48.21 38.53 48.66 36.69 48.76C34.9 48.86 33.16 48.61 31.49 48.01C29.81 47.41 28.3 46.49 26.95 45.26C26.72 45.05 26.45 44.95 26.15 44.97C25.85 44.99 25.6 45.12 25.41 45.36C25.2 45.6 25.11 45.88 25.13 46.2C25.16 46.51 25.29 46.76 25.52 46.95C27.19 48.47 28.89 49.52 30.63 50.11C32.36 50.7 34.4 51 36.75 51C38.89 50.89 40.92 50.38 42.83 49.46C44.74 48.53 46.42 47.25 47.86 45.62C49.3 43.99 50.37 42.14 51.06 40.09C51.76 38.04 52.07 35.92 51.98 33.72C51.86 31.51 51.36 29.42 50.45 27.46C49.56 25.49 48.32 23.76 46.74 22.26C45.16 20.77 43.37 19.67 41.38 18.94C39.39 18.22 37.34 17.91 35.22 18.01C32.43 18.15 29.87 18.99 27.54 20.54C25.22 22.07 23.38 24.09 22.03 26.59C20.67 29.09 20 31.79 20 34.67C20 35.48 20.1 36.41 20.3 37.46Z" stroke="#FFFFFF" stroke-opacity="1.000000" stroke-width="2.000000"/>
</svg>
