<?xml version="1.0" encoding="UTF-8"?>
<svg width="24px" height="24px" viewBox="0 0 24 24" version="1.1" xmlns="http://www.w3.org/2000/svg" xmlns:xlink="http://www.w3.org/1999/xlink">
    <title>image_back</title>
    <defs>
        <path d="M3.20724438,10.7499686 L9.1767767,16.7196699 L9.21051799,16.7556673 C9.46920128,17.0502619 9.45795419,17.4991526 9.1767767,17.7803301 C8.89559921,18.0615076 8.44670847,18.0727547 8.15211392,17.8140714 L8.11611652,17.7803301 L1.08574438,10.7499686 L3.20724438,10.7499686 Z M8.11611652,0.219669914 C8.40900974,-0.0732233047 8.88388348,-0.0732233047 9.1767767,0.219669914 C9.45795419,0.500847404 9.46920128,0.949738137 9.21051799,1.24433269 L9.1767767,1.28033009 L2.20694661,8.25 L18.8964466,8.25 C19.2958668,8.25 19.6223618,8.56222999 19.6451734,8.9559318 L19.6464466,9 C19.6464466,9.39942022 19.3342166,9.72591522 18.9405148,9.74872683 L18.8964466,9.75 L1,9.75 C0.73478351,9.75 0.480429597,9.64464316 0.292893219,9.45710678 C-0.0846135965,9.07959997 -0.0971971571,8.47535891 0.255142537,8.08273648 L0.292893219,8.04289322 L8.11611652,0.219669914 Z" id="path-1"></path>
    </defs>
    <g id="image_back" stroke="none" stroke-width="1" fill="none" fill-rule="evenodd">
        <g id="Public/ic_public_back" transform="translate(2.103553, 3.000000)">
            <mask id="mask-2" fill="white">
                <use xlink:href="#path-1"></use>
            </mask>
            <use id="形状结合" fill="#FFFFFF" fill-rule="nonzero" xlink:href="#path-1"></use>
        </g>
    </g>
</svg>