<?xml version="1.0" encoding="UTF-8"?>
<svg width="24px" height="24px" viewBox="0 0 24 24" version="1.1" xmlns="http://www.w3.org/2000/svg" xmlns:xlink="http://www.w3.org/1999/xlink">
    <title>Public_ic_public_view_list备份 2</title>
    <g id="页面-1" stroke="none" stroke-width="1" fill="none" fill-rule="evenodd">
        <g id="图标" transform="translate(-124.000000, -309.000000)">
            <g id="编组-17" transform="translate(124.000000, 309.000000)">
                <g id="编组" fill="#FFFFFF" opacity="0.903483073">
                    <g id="Public/ic_public_view_list备份">
                        <path d="M15.25,5.25 C17.1829966,5.25 18.75,6.81700338 18.75,8.75 L18.75,15.25 C18.75,17.1829966 17.1829966,18.75 15.25,18.75 L2.25,18.75 C0.317003376,18.75 -1.25,17.1829966 -1.25,15.25 L-1.25,8.75 C-1.25,6.81700338 0.317003376,5.25 2.25,5.25 L15.25,5.25 Z M15.5,6.75 L2,6.75 C1.03350169,6.75 0.25,7.53350169 0.25,8.5 L0.25,8.5 L0.25,15.5 C0.25,16.4664983 1.03350169,17.25 2,17.25 L2,17.25 L15.5,17.25 C16.4664983,17.25 17.25,16.4664983 17.25,15.5 L17.25,15.5 L17.25,8.5 C17.25,7.53350169 16.4664983,6.75 15.5,6.75 L15.5,6.75 Z" id="形状结合" transform="translate(8.750000, 12.000000) rotate(-90.000000) translate(-8.750000, -12.000000) "></path>
                        <path d="M27,9.5 C28.3807119,9.5 29.5,10.6192881 29.5,12 C29.5,13.3807119 28.3807119,14.5 27,14.5 L12,14.5 C10.6192881,14.5 9.5,13.3807119 9.5,12 C9.5,10.6192881 10.6192881,9.5 12,9.5 L27,9.5 Z M27,11 L12,11 C11.4477153,11 11,11.4477153 11,12 C11,12.5522847 11.4477153,13 12,13 L12,13 L27,13 C27.5522847,13 28,12.5522847 28,12 C28,11.4477153 27.5522847,11 27,11 L27,11 Z" id="形状结合" transform="translate(19.500000, 12.000000) rotate(-90.000000) translate(-19.500000, -12.000000) "></path>
                    </g>
                </g>
                <rect id="矩形" x="0" y="0" width="24" height="24"></rect>
            </g>
        </g>
    </g>
</svg>