<?xml version="1.0" encoding="UTF-8"?>
<svg width="24px" height="24px" viewBox="0 0 24 24" version="1.1" xmlns="http://www.w3.org/2000/svg" xmlns:xlink="http://www.w3.org/1999/xlink">
    <title>qieHuang 2</title>
    <g id="页面-1" stroke="none" stroke-width="1" fill="none" fill-rule="evenodd">
        <g id="图标" transform="translate(-124.000000, -345.000000)">
            <g id="编组-18" transform="translate(124.000000, 345.000000)">
                <g id="编组" fill="#FFFFFF" fill-rule="nonzero">
                    <g id="上下" transform="translate(2.000000, 2.000000)">
                        <path d="M17,0 C18.6568542,0 20,1.34314575 20,3 L20,10.5 C20,12.1568542 18.6568542,13.5 17,13.5 L3,13.5 C1.34314575,13.5 0,12.1568542 0,10.5 L0,3 C0,1.34314575 1.34314575,0 3,0 L17,0 Z M17,1.5 L3,1.5 C2.17157288,1.5 1.5,2.17157288 1.5,3 L1.5,10.5 C1.5,11.3284271 2.17157288,12 3,12 L17,12 C17.8284271,12 18.5,11.3284271 18.5,10.5 L18.5,3 C18.5,2.17157288 17.8284271,1.5 17,1.5 Z" id="形状结合"></path>
                        <path d="M17.5,15 C18.8807119,15 20,16.1192881 20,17.5 C20,18.8807119 18.8807119,20 17.5,20 L2.5,20 C1.11928813,20 0,18.8807119 0,17.5 C0,16.1192881 1.11928813,15 2.5,15 L17.5,15 Z M17.5,16.5 L2.5,16.5 C1.94771525,16.5 1.5,16.9477153 1.5,17.5 C1.5,18.0522847 1.94771525,18.5 2.5,18.5 L17.5,18.5 C18.0522847,18.5 18.5,18.0522847 18.5,17.5 C18.5,16.9477153 18.0522847,16.5 17.5,16.5 Z" id="形状结合"></path>
                    </g>
                </g>
                <rect id="矩形" x="0" y="0" width="24" height="24"></rect>
            </g>
        </g>
    </g>
</svg>