<?xml version="1.0" encoding="UTF-8"?>
<svg width="24px" height="24px" viewBox="0 0 24 24" version="1.1" xmlns="http://www.w3.org/2000/svg" xmlns:xlink="http://www.w3.org/1999/xlink">
    <title>蒙版 2</title>
    <g id="页面-1" stroke="none" stroke-width="1" fill="none" fill-rule="evenodd">
        <g id="图标" transform="translate(-124.000000, -200.000000)">
            <g id="编组-14" transform="translate(124.000000, 200.000000)">
                <g id="编组" fill="#FFFFFF" fill-opacity="0.858823529" fill-rule="nonzero">
                    <g id="蒙版">
                        <path d="M18.5537883,3.39705176 C18.8473998,3.1791973 19.2640635,3.20340335 19.5303301,3.46966991 C19.7965966,3.73593648 19.8208027,4.15260016 19.6029482,4.44621165 L19.5303301,4.53033009 L9.71175495,14.3480734 C10.5085798,15.159928 11,16.2725753 11,17.5 C11,19.9852814 8.98528137,22 6.5,22 C4.01471863,22 2,19.9852814 2,17.5 C2,15.0147186 4.01471863,13 6.5,13 C7.2148945,13 7.89085308,13.1667044 8.49112297,13.4633605 L8.49755682,13.4532833 L8.57017498,13.3691649 L10.939,10.999 L4.46966991,4.53033009 C4.1767767,4.23743687 4.1767767,3.76256313 4.46966991,3.46966991 C4.73593648,3.20340335 5.15260016,3.1791973 5.44621165,3.39705176 L5.53033009,3.46966991 L12,9.939 L18.4696699,3.46966991 L18.5537883,3.39705176 Z M14.06,12 L15.429825,13.3691649 C15.4593777,13.3987175 15.4859485,13.4301229 15.5095375,13.463007 C16.1091469,13.1667044 16.7851055,13 17.5,13 C19.9852814,13 22,15.0147186 22,17.5 C22,19.9852814 19.9852814,22 17.5,22 C15.0147186,22 13,19.9852814 13,17.5 C13,16.2725753 13.4914202,15.159928 14.2882451,14.3480734 L13,13.06 L14.06,12 Z M6.5,14.5 C4.84314575,14.5 3.5,15.8431458 3.5,17.5 C3.5,19.1568542 4.84314575,20.5 6.5,20.5 C8.15685425,20.5 9.5,19.1568542 9.5,17.5 C9.5,15.8431458 8.15685425,14.5 6.5,14.5 Z M17.5,14.5 C15.8431458,14.5 14.5,15.8431458 14.5,17.5 C14.5,19.1568542 15.8431458,20.5 17.5,20.5 C19.1568542,20.5 20.5,19.1568542 20.5,17.5 C20.5,15.8431458 19.1568542,14.5 17.5,14.5 Z" id="形状"></path>
                    </g>
                </g>
                <rect id="矩形" x="0" y="0" width="24" height="24"></rect>
            </g>
        </g>
    </g>
</svg>