<?xml version="1.0" encoding="UTF-8"?>
<svg width="24px" height="24px" viewBox="0 0 24 24" version="1.1" xmlns="http://www.w3.org/2000/svg" xmlns:xlink="http://www.w3.org/1999/xlink">
    <title>蒙版 4</title>
    <defs>
        <path d="M17.5820124,8.27109483 C17.5219318,8.69222778 17.1322918,8.98485268 16.7117272,8.92469083 C16.2911625,8.86452898 15.9989325,8.47436245 16.0590132,8.0532295 C16.067044,7.99693778 16.0717779,7.94110845 16.0742863,7.87580151 C16.0764627,7.81913803 16.0769231,7.77027209 16.0769231,7.64864865 C16.0769231,7.08208625 15.9686089,6.54520663 15.7561,6.05577552 C15.5441653,5.56766718 15.245056,5.13201111 14.8663281,4.75277144 C14.5078491,4.39380801 14.0505544,4.08287963 13.5534849,3.85663364 C13.1034831,3.65181092 12.547882,3.54054054 11.974359,3.54054054 C11.4085612,3.54054054 10.8724061,3.64900107 10.3836355,3.86179721 C9.89618585,4.07401822 9.4611177,4.37353177 9.08238983,4.75277144 C8.72391083,5.11173487 8.41340206,5.56964758 8.19261799,6.05577552 C7.98010903,6.54520663 7.87179487,7.08208625 7.87179487,7.64864865 C7.87179487,7.77027209 7.87225525,7.81913803 7.87443167,7.87580151 C7.87694009,7.94110845 7.88167392,7.99693778 7.88970474,8.0532295 C7.9497854,8.47436245 7.65755541,8.86452898 7.23699079,8.92469083 C6.81642616,8.98485268 6.42678618,8.69222778 6.36670552,8.27109483 C6.35073515,8.15915116 6.34155951,8.05093652 6.33710679,7.9350093 C6.33391462,7.85190082 6.33333333,7.79020088 6.33333333,7.64864865 C6.33333333,6.87365699 6.4838484,6.12760061 6.78689758,5.42990854 C7.08723897,4.76826458 7.50192743,4.15671628 7.99453325,3.66344478 C8.50811306,3.14917093 9.10353844,2.7392628 9.77021068,2.44901361 C10.4553636,2.15071846 11.2004132,2 11.974359,2 C12.7598104,2 13.5320481,2.15465626 14.1901048,2.45417717 C14.8508559,2.75492443 15.4615789,3.17017328 15.9541847,3.66344478 C16.4677645,4.17771862 16.8771195,4.77394863 17.166977,5.44152178 C17.4648696,6.12760061 17.6153846,6.87365699 17.6153846,7.64864865 C17.6153846,7.79020088 17.6148033,7.85190082 17.6116112,7.9350093 C17.6071584,8.05093652 17.5979828,8.15915116 17.5820124,8.27109483 Z M6.04699528,10.5906598 C6.236987,10.9711567 6.08296828,11.4338373 5.70298482,11.6240858 C5.46974736,11.7408621 5.28035009,11.8606431 5.14756765,11.9769848 L5.11328765,12.0053118 C4.95451593,12.1289678 4.82913436,12.2469097 4.54392829,12.5325012 C4.4147831,12.6618209 4.30254838,12.8174328 4.14678943,13.0773819 C4.00878883,13.3076937 3.90577548,13.5191564 3.82548212,13.7402615 C3.75206821,13.9424226 3.70152032,14.1122226 3.598811,14.4883769 C3.55702944,14.749646 3.53846154,14.9802758 3.53846154,15.2486486 C3.53846154,15.5601935 3.56399082,15.820944 3.61805833,16.0375063 C3.72428716,16.4629959 3.776579,16.6425245 3.86390533,16.8523909 C3.95909324,17.0811506 4.07592293,17.2858788 4.24556302,17.5285493 C4.41324061,17.7684124 4.58945345,17.9847071 4.7490565,18.1445259 C4.90865954,18.3043446 5.12466239,18.4807956 5.3642018,18.6486997 C5.56708535,18.7909101 5.80359365,18.9230932 6.0618997,19.0406637 C6.30525043,19.1514271 6.54373105,19.226053 6.78363373,19.263011 L6.81875703,19.2684219 L6.85323253,19.2770524 C7.06950258,19.331193 7.32990127,19.3567568 7.64102564,19.3567568 L7.80301918,19.3562299 C7.84394747,19.3558225 7.87575208,19.355127 7.91027064,19.3539749 C7.99269954,19.3512235 8.06408666,19.3459501 8.10430847,19.3415614 L8.12198357,19.3388227 C8.13847776,19.3364632 8.23299509,19.3231473 8.25970212,19.3192945 C8.30938808,19.3121267 8.34932314,19.3060196 8.38635975,19.2998385 C8.46881583,19.2860772 8.53322449,19.2724129 8.58354785,19.2580153 L9.07694911,19.116853 C9.09374511,19.1098267 9.11117894,19.1026206 9.12992155,19.0949428 C9.15042256,19.0865447 9.17533478,19.0764251 9.21632812,19.0597755 C9.24688789,19.0473276 9.26917324,19.0381207 9.29002052,19.0292887 C9.36137072,18.9990613 9.41319454,18.9740935 9.46450851,18.9447316 L9.50214339,18.9245628 C9.63443125,18.8583295 9.78539424,18.7711178 9.90664087,18.6901775 C10.2601245,18.4542033 10.7377163,18.5498507 10.973372,18.903812 C11.2090278,19.2577733 11.1135094,19.7360105 10.7600258,19.9719847 C10.5902872,20.0852967 10.3917953,20.2004631 10.2086224,20.2931721 C10.1054441,20.3511738 10.0057223,20.3988246 9.88946666,20.4480761 C9.86090711,20.4601753 9.83261571,20.4718636 9.79601755,20.4867711 C9.63698049,20.5515515 9.67603243,20.5355542 9.63634818,20.5525847 L9.59153581,20.5718159 L9.00619574,20.739282 C8.89247959,20.7718162 8.77437327,20.7968725 8.63928127,20.8194183 C8.58953904,20.8277199 8.53905796,20.8354397 8.47907993,20.8440923 C8.44926173,20.848394 8.35350942,20.8618838 8.35722999,20.8611413 L8.32618057,20.8656735 C8.20565693,20.8807593 8.08829491,20.8894289 7.96152423,20.8936603 C7.86960818,20.8967283 7.80028113,20.8972973 7.64102564,20.8972973 C7.22767836,20.8972973 6.85787825,20.8623218 6.51484023,20.7801069 C6.14093409,20.719059 5.78014387,20.60464 5.42527979,20.4431201 C5.08494638,20.2882141 4.76666833,20.1103304 4.48195204,19.9107597 C4.17370591,19.6946958 3.88987526,19.4628369 3.66119991,19.2338525 C3.43252457,19.0048682 3.20097851,18.7206539 2.98520621,18.4119913 C2.75598591,18.0840912 2.58528546,17.7849617 2.44378698,17.4449064 C2.31743809,17.1412593 2.25007181,16.9099771 2.12553141,16.4111423 C2.03733259,16.0578703 2,15.6765633 2,15.2486486 C2,14.8814501 2.02756503,14.5571233 2.08738929,14.1976927 L2.09378755,14.1592513 L2.10402783,14.1216528 C2.22492715,13.6777562 2.28458619,13.4755605 2.37964608,13.2137925 C2.49532342,12.89525 2.64115543,12.5958903 2.82756954,12.2847803 C3.04243996,11.926179 3.22111434,11.6784494 3.45607171,11.4431745 C3.7780065,11.1208047 3.93498849,10.9726497 4.15197292,10.8024076 C4.39274162,10.5947783 4.6819455,10.4129187 5.0149639,10.2461845 C5.39494736,10.055936 5.85700355,10.2101628 6.04699528,10.5906598 Z M18.9593951,10.2205088 C19.250493,10.3662544 19.5209964,10.5419532 19.8055953,10.7636071 C20.031439,10.9395006 20.1881087,11.0868741 20.5182873,11.4174988 L20.5532641,11.4549356 C20.7834108,11.7183159 20.980127,11.9809586 21.1467894,12.2591046 C21.2324775,12.402111 21.3026424,12.5426305 21.3899548,12.7358977 C21.4062031,12.7718635 21.4218576,12.8069305 21.4516021,12.8737138 C21.5007756,12.9839175 21.529554,13.0462707 21.5598158,13.106876 C21.7181043,13.4238807 21.8198354,13.7686667 21.8869697,14.172017 C21.9451935,14.5218319 21.974359,14.8722907 21.974359,15.222973 C21.974359,15.6368788 21.9394307,16.0071787 21.8573267,16.3506803 C21.7963612,16.7250917 21.6820966,17.0863695 21.5207947,17.4417131 C21.3660977,17.7825064 21.1884542,18.1012146 20.9891528,18.3863156 C20.7733805,18.6949783 20.5418344,18.9791925 20.3131591,19.2081768 C20.0844837,19.4371612 19.8006531,19.6690202 19.4924069,19.885084 C19.1649493,20.1146141 18.8662236,20.2855452 18.5266272,20.4272349 C18.2233899,20.5537546 17.9924198,20.6212119 17.4942582,20.7459206 C17.1414629,20.8342386 16.7606705,20.8716216 16.3333333,20.8716216 C16.0075737,20.8716216 15.8620105,20.866763 15.6481784,20.8399978 C15.3749916,20.8058033 15.2020236,20.7770044 15.0178547,20.7274102 C14.7882506,20.6899431 14.5613302,20.6227466 14.3380108,20.526909 C14.0668936,20.4105589 13.9422402,20.3552758 13.803802,20.2865634 C13.6090402,20.2013958 13.4740377,20.1196793 13.2143332,19.946309 C12.8608496,19.7103348 12.7653312,19.2320976 13.000987,18.8781363 C13.2366427,18.524175 13.7142345,18.4285276 14.0677181,18.6645018 C14.2601536,18.7929655 14.3386168,18.8401071 14.43122,18.8798477 L14.4722156,18.8988872 C14.5819627,18.9538349 14.6894254,19.0016606 14.9440405,19.1109288 C15.0625772,19.1617989 15.1769396,19.1945181 15.2882728,19.2104443 L15.3402888,19.2178852 L15.3908111,19.2323397 C15.4991983,19.2633493 15.6144415,19.2832456 15.8390011,19.3113535 C15.9701573,19.3277702 16.0693494,19.3310811 16.3333333,19.3310811 C16.6444577,19.3310811 16.9048564,19.3055173 17.1211264,19.2513767 C17.5460418,19.1450043 17.7253281,19.0926418 17.9349112,19.0051975 C18.1633622,18.909881 18.3678142,18.7928934 18.6101572,18.6230241 C18.8496966,18.4551199 19.0656994,18.2786689 19.2253025,18.1188502 C19.3849055,17.9590315 19.5611184,17.7427367 19.728796,17.5028736 C19.8708144,17.2997159 20.0028191,17.062888 20.1202309,16.8042329 C20.2308449,16.5605533 20.3053701,16.3217504 20.3422782,16.0815235 L20.3476818,16.0463528 L20.3563006,16.0118307 C20.4103682,15.7952684 20.4358974,15.5345178 20.4358974,15.222973 C20.4358974,14.9574391 20.4137809,14.6916816 20.3694406,14.4252803 C20.3257152,14.1625733 20.2662262,13.9609541 20.183774,13.7958267 C20.1408774,13.7099176 20.1046855,13.6315019 20.0469734,13.502162 C20.0168889,13.4346236 20.0028488,13.4031729 19.9882503,13.370859 C19.9233192,13.227133 19.8764969,13.133362 19.8275695,13.0517062 C19.7158264,12.8652159 19.5781636,12.6802391 19.4118262,12.4882072 C19.1396884,12.2160387 19.016348,12.1005701 18.8610713,11.9796362 C18.6519314,11.816752 18.4651247,11.6954163 18.2713742,11.5984101 C17.8913907,11.4081617 17.737372,10.9454811 17.9273637,10.5649841 C18.1173554,10.1844872 18.5794116,10.0302603 18.9593951,10.2205088 Z M16.3076923,9.6 C16.6153846,9.6 16.9230769,9.62567568 17.2307692,9.67702703 C16.542735,11.4240428 15.0304932,12.7701882 13.1453956,13.173109 L12.8974359,13.2202703 L12.9994767,13.4889292 C13.1878598,14.03508 13.2820513,14.6324324 13.2820513,15.2486486 C13.2820513,16.6351351 12.7948718,17.8932432 11.974359,18.8689189 C11.1538462,17.8932432 10.6666667,16.6351351 10.6666667,15.2486486 C10.6666667,14.6324324 10.7796965,14.0539437 10.9573148,13.4970136 L11.0512821,13.2202703 L10.8033224,13.1732372 C8.91822472,12.7722386 7.40598291,11.4486486 6.71794872,9.67702703 C7.02564103,9.62567568 7.33333333,9.6 7.64102564,9.6 C9.2928475,9.6 10.7835784,10.314367 11.8079932,11.4374635 L11.974359,11.6283784 L12.1407247,11.4374635 C13.1651396,10.314367 14.6558704,9.6 16.3076923,9.6 Z" id="path-1"></path>
    </defs>
    <g id="页面-1" stroke="none" stroke-width="1" fill="none" fill-rule="evenodd">
        <g id="图标" transform="translate(-124.000000, -272.000000)">
            <g id="编组-16" transform="translate(124.000000, 272.000000)">
                <g id="蒙版">
                    <mask id="mask-2" fill="white">
                        <use xlink:href="#path-1"></use>
                    </mask>
                    <use id="形状" fill-opacity="0.858823529" fill="#FFFFFF" fill-rule="nonzero" xlink:href="#path-1"></use>
                </g>
                <rect id="矩形" x="0" y="0" width="24" height="24"></rect>
            </g>
        </g>
    </g>
</svg>