<svg xmlns="http://www.w3.org/2000/svg"
     width="40"
     height="40"
     version="1.1"
     viewBox="0 0 40 40">
    <g
        fill="#fc446b"
        fill-rule="evenodd"
        stroke="none"
        stroke-width="1"
        transform="translate(7 6)">
        <path d="M3.8458278,5.20714286 L22.6541722,5.20714286 C23.9914503,5.20714286 24.4763797,5.34638127 24.9652686,5.60784191 C25.4541574,5.86930255 25.8378403,6.25298541 26.0993009,6.7418743 C26.3607616,7.23076319 26.5,7.71569255 26.5,9.05297066 L26.5,11.9684579 C26.5,13.305736 26.3607616,13.7906654 26.0993009,14.2795543 C25.8378403,14.7684432 25.4541574,15.152126 24.9652686,15.4135867 C24.4763797,15.6750473 23.9914503,15.8142857 22.6541722,15.8142857 L3.8458278,15.8142857 C2.50854969,15.8142857 2.02362033,15.6750473 1.53473144,15.4135867 C1.04584256,15.152126 0.662159695,14.7684432 0.400699056,14.2795543 C0.139238417,13.7906654 6.01853049e-17,13.305736 -1.03584031e-16,11.9684579 L1.03584031e-16,9.05297066 C-6.01853049e-17,7.71569255 0.139238417,7.23076319 0.400699056,6.7418743 C0.662159695,6.25298541 1.04584256,5.86930255 1.53473144,5.60784191 C2.02362033,5.34638127 2.50854969,5.20714286 3.8458278,5.20714286 Z"/>
        <path
            d="M13.25,1.59872116e-14 C16.8482988,1.59872116e-14 19.8053571,2.73895629 19.8053571,6.17142857 C19.8053571,6.91701298 19.2009416,7.52142857 18.4553571,7.52142857 C17.7097727,7.52142857 17.1053571,6.91701298 17.1053571,6.17142857 C17.1053571,4.2782979 15.40138,2.7 13.25,2.7 C11.09862,2.7 9.39464286,4.2782979 9.39464286,6.17142857 C9.39464286,6.91701298 8.79022727,7.52142857 8.04464286,7.52142857 C7.29905844,7.52142857 6.69464286,6.91701298 6.69464286,6.17142857 C6.69464286,2.73895629 9.65170123,1.59872116e-14 13.25,1.59872116e-14 Z"
            style="mix-blend-mode:multiply"
            opacity=".6"/>
        <path
            d="M21.2345293,10.0285714 C22.5718075,10.0285714 23.0567368,10.1678098 23.5456257,10.4292705 C24.0345146,10.6907311 24.4181974,11.074414 24.6796581,11.5633029 C24.9411187,12.0521918 25.0803571,12.5371211 25.0803571,13.8743992 L25.0803571,23.5398865 C25.0803571,24.8771646 24.9411187,25.362094 24.6796581,25.8509828 C24.4181974,26.3398717 24.0345146,26.7235546 23.5456257,26.9850152 C23.0567368,27.2464759 22.5718075,27.3857143 21.2345293,27.3857143 L5.26547066,27.3857143 C3.92819255,27.3857143 3.44326319,27.2464759 2.9543743,26.9850152 C2.46548541,26.7235546 2.08180255,26.3398717 1.82034191,25.8509828 C1.55888127,25.362094 1.41964286,24.8771646 1.41964286,23.5398865 L1.41964286,13.8743992 C1.41964286,12.5371211 1.55888127,12.0521918 1.82034191,11.5633029 C2.08180255,11.074414 2.46548541,10.6907311 2.9543743,10.4292705 C3.44326319,10.1678098 3.92819255,10.0285714 5.26547066,10.0285714 L21.2345293,10.0285714 Z M15.1160714,17.7428571 L11.3839286,17.7428571 C10.5850881,17.7428571 9.9375,18.3904453 9.9375,19.1892857 C9.9375,19.9881262 10.5850881,20.6357143 11.3839286,20.6357143 L11.3839286,20.6357143 L15.1160714,20.6357143 C15.9149119,20.6357143 16.5625,19.9881262 16.5625,19.1892857 C16.5625,18.3904453 15.9149119,17.7428571 15.1160714,17.7428571 L15.1160714,17.7428571 Z"
            opacity=".8"
            style="mix-blend-mode:multiply"/>
    </g>
</svg>