<?xml version="1.0" encoding="UTF-8"?>
<svg width="16px"
     height="16px"
     viewBox="0 0 16 16"
     version="1.1"
     xmlns="http://www.w3.org/2000/svg"
     xmlns:xlink="http://www.w3.org/1999/xlink">
    <title>ic_label_heat</title>
    <g
        id="ic_label_heat"
        stroke="none"
        stroke-width="1"
        fill="none"
        fill-rule="evenodd">
        <path
            d="M8.42597972,2.4 C7.98967648,2.4 6.1072338,4.60677889 6.1072338,6.34086355 C6.1072338,7.45946984 6.86988702,8.49803932 6.81426985,8.94967467 C6.74099337,9.54471118 5.99825305,9.72220734 5.40790963,8.61377127 C4.97499445,7.80092442 5.25752608,7.08109311 5.25752608,7.00822777 C5.25752608,6.93536244 5.06748754,6.92911969 4.90816172,7.08109311 C4.31070257,7.65098132 3.92194715,9.06374121 4.01327322,10.0906712 C4.0602634,10.6190595 4.10227046,11.1339159 4.76381123,12.0260744 C5.425352,12.918233 6.43187365,13.3123022 6.9618147,13.4850165 C7.30431855,13.5966427 8.1919093,13.6288142 8.77673704,13.5735339 C9.43472366,13.5113384 10.7864818,13.0132339 11.5095488,11.8213249 C12.2152176,10.6580953 12.2576205,8.58626916 10.9814045,7.31553657 C9.70518858,6.04480398 9.4034575,6.16374737 8.7558694,4.90291025 C8.10828129,3.64207314 8.86228296,2.4 8.42597972,2.4 Z"
            id="路径-2备份-5"
            fill="#fc446b"></path>
    </g>
</svg>