<?xml version="1.0" encoding="UTF-8"?>
<svg viewBox="0 0 96 96" version="1.1" xmlns="http://www.w3.org/2000/svg" xmlns:xlink="http://www.w3.org/1999/xlink">
    <title>ic_music_me_nor</title>
    <defs>
        <path d="M62,24.0207684 C62,16.2757692 55.7309241,10 48.0005842,10 C40.2692024,10 34,16.2756425 34,24.0207684 C34,31.7658944 40.2692024,38.0415369 48.0005842,38.0415369 C55.7309241,38.0415369 62,31.7657676 62,24.0207684 Z M68,24.0207684 C68,35.0780437 59.0460667,44.0415369 48.0005842,44.0415369 C36.9539333,44.0415369 28,35.0780437 28,24.0207684 C28,12.9634931 36.9539333,4 48.0005842,4 C59.0460667,4 68,12.9634931 68,24.0207684 Z M78,85 L78,72 L78,72 C78,62.0588745 69.9411255,54 60,54 L36,54 C26.0588745,54 18,62.0588745 18,72 L18,85 C18,86.6568542 16.6568542,88 15,88 C13.3431458,88 12,86.6568542 12,85 L12,72 L12,72 C12,58.745166 22.745166,48 36,48 L60,48 C73.254834,48 84,58.745166 84,72 L84,85 C84,86.6568542 82.6568542,88 81,88 C79.3431458,88 78,86.6568542 78,85 Z" id="path-1"></path>
    </defs>
    <g id="ic_music_me_nor" stroke="none" stroke-width="1" fill="none" fill-rule="evenodd">
        <mask id="mask-2" fill="white">
            <use xlink:href="#path-1"></use>
        </mask>
        <use id="Combined-Shape" fill="#666666" fill-rule="nonzero" xlink:href="#path-1"></use>
    </g>
</svg>