<?xml version="1.0" encoding="UTF-8"?>
<svg viewBox="0 0 96 96" version="1.1" xmlns="http://www.w3.org/2000/svg" xmlns:xlink="http://www.w3.org/1999/xlink">
    <title>ic_music_home</title>
    <defs>
        <path d="M81,48 C82.6568542,48 84,49.3431458 84,51 L84,79 C84,86.1797017 78.1797017,92 71,92 L25,92 C17.8202983,92 12,86.1797017 12,79 L12,51.2501516 C12,49.5932974 13.3431458,48.2501516 15,48.2501516 C16.6568542,48.2501516 18,49.5932974 18,51.2501516 L18,79 C18,82.8659932 21.1340068,86 25,86 L71,86 C74.8659932,86 78,82.8659932 78,79 L78,51 C78,49.3431458 79.3431458,48 81,48 Z M54.363961,6.56354262 L93.6790981,45.8786797 C94.8506709,47.0502525 94.8506709,48.9497475 93.6790981,50.1213203 C92.5075252,51.2928932 90.6080303,51.2928932 89.4364574,50.1213203 L50.1213203,10.8061833 C48.9497475,9.63461043 47.0502525,9.63461043 45.8786797,10.8061833 L6.56354262,50.1213203 C5.39196975,51.2928932 3.49247481,51.2928932 2.32090194,50.1213203 C1.14932906,48.9497475 1.14932906,47.0502525 2.32090194,45.8786797 L41.636039,6.56354262 C45.1507576,3.048824 50.8492424,3.048824 54.363961,6.56354262 Z" id="path-1"></path>
    </defs>
    <g id="ic_music_home" stroke="none" stroke-width="1" fill="none" fill-rule="evenodd">
        <mask id="mask-2" fill="white">
            <use xlink:href="#path-1"></use>
        </mask>
        <use id="合并形状" fill="#666666" fill-rule="nonzero" xlink:href="#path-1"></use>
    </g>
</svg>