<?xml version="1.0" encoding="UTF-8"?>
<svg viewBox="0 0 96 96" version="1.1" xmlns="http://www.w3.org/2000/svg" xmlns:xlink="http://www.w3.org/1999/xlink">
    <title>ic_music_home_select</title>
    <defs>
        <path d="M45.9862977,21.197973 C46.7652344,20.4288962 48.0177156,20.4288962 48.7966523,21.197973 L48.7966523,21.197973 L81.998,53.9782814 L82,80 C82,86.627417 76.627417,92 70,92 L24,92 C17.372583,92 12,86.627417 12,80 L11.998,54.7542814 Z M54.4974747,7.41421356 L92.6812409,45.5979797 C94.243338,47.1600769 94.243338,49.6927368 92.6812409,51.254834 C91.1191437,52.8169312 88.5864838,52.8169312 87.0243866,51.254834 L81.999,46.2292814 L81.998,46.3582814 L50.2018297,14.9641979 C48.6958853,13.4773161 46.304939,13.4277534 44.7399945,14.8155097 L44.5811203,14.9641979 L11.998,47.1342814 L11.999,47.0832814 L8.062,51.0202814 L7.748,51.3302814 L7.66905409,51.4058367 C6.09856437,52.8151955 3.68160014,52.7648613 2.17157288,51.254834 C0.609475708,49.6927368 0.609475708,47.1600769 2.17157288,45.5979797 L40.3553391,7.41421356 C44.260582,3.50897064 50.5922318,3.50897064 54.4974747,7.41421356 Z" id="path-1"></path>
    </defs>
    <g id="ic_music_home_select" stroke="none" stroke-width="1" fill="none" fill-rule="evenodd">
        <mask id="mask-2" fill="white">
            <use xlink:href="#path-1"></use>
        </mask>
        <use id="Combined-Shape" fill="#FF1949" fill-rule="nonzero" xlink:href="#path-1"></use>
    </g>
</svg>