<?xml version="1.0" encoding="UTF-8"?>
<svg viewBox="0 0 96 96" version="1.1" xmlns="http://www.w3.org/2000/svg" xmlns:xlink="http://www.w3.org/1999/xlink">
    <title>ic_music_me_select</title>
    <defs>
        <path d="M64,50 C75.045695,50 84,58.954305 84,70 L84,82 C84,86.418278 80.418278,90 76,90 L20,90 C15.581722,90 12,86.418278 12,82 L12,70 C12,58.954305 20.954305,50 32,50 L64,50 Z M48.0005842,6 C59.0460667,6 68,14.9634931 68,26.0207684 C68,37.0780437 59.0460667,46.0415369 48.0005842,46.0415369 C36.9539333,46.0415369 28,37.0780437 28,26.0207684 C28,14.9634931 36.9539333,6 48.0005842,6 Z" id="path-1"></path>
    </defs>
    <g id="ic_music_me_select" stroke="none" stroke-width="1" fill="none" fill-rule="evenodd">
        <mask id="mask-2" fill="white">
            <use xlink:href="#path-1"></use>
        </mask>
        <use id="合并形状" fill="#FF1949" fill-rule="nonzero" xlink:href="#path-1"></use>
    </g>
</svg>