<?xml version="1.0" encoding="UTF-8"?>
<svg width="40px" height="40px" viewBox="0 0 40 40" version="1.1" xmlns="http://www.w3.org/2000/svg" xmlns:xlink="http://www.w3.org/1999/xlink">
    <title>ok</title>
    <g id="页面-1" stroke="none" stroke-width="1" fill="none" fill-rule="evenodd">
        <g id="Container/Panel/Phone/Items/Title/Text-only_line2" transform="translate(-357.000000, -59.000000)" fill="#000000">
            <g id="edit" transform="translate(305.000000, 8.000000)">
                <g id="Container/Panel/Phone/Items/Title/Secondary-page" transform="translate(0.000000, 51.000000)">
                    <g id="ok" transform="translate(52.000000, 0.000000)">
                        <path d="M21.0714887,27.6960678 C20.7460518,28.0215047 20.2184143,28.0215047 19.8929774,27.6960678 C19.5774022,27.3804926 19.5678393,26.8747858 19.8642887,26.5476875 L19.8929774,26.5175565 L20.2958997,26.1140551 L20.3096441,26.1008898 L24.1398058,22.2707281 C24.295128,22.115406 24.3021881,21.8679656 24.1609861,21.704269 L24.1398058,21.6814725 L15.5179774,13.0596441 C15.1925405,12.7342072 15.1925405,12.2065697 15.5179774,11.8811328 C15.8335526,11.5655576 16.3392594,11.5559947 16.6663578,11.8524441 L16.6964887,11.8811328 L21.4808997,16.6660551 L21.4881554,16.6727994 L25.6129449,20.797589 C26.2515381,21.4361822 26.263587,22.46406 25.6490917,23.1173432 L25.6129449,23.1546116 L21.0714887,27.6960678 Z" id="形状结合" fill-opacity="0.901960784" fill-rule="nonzero" transform="translate(20.687500, 19.788600) rotate(-270.000000) translate(-20.687500, -19.788600) "></path>
                    </g>
                </g>
            </g>
        </g>
    </g>
</svg>