<?xml version="1.0" encoding="UTF-8"?>
<svg width="40px" height="40px" viewBox="0 0 40 40" version="1.1" xmlns="http://www.w3.org/2000/svg" xmlns:xlink="http://www.w3.org/1999/xlink">
    <title>svgback</title>
    <defs>
        <path d="M16.2823403,12.1892194 L16.3152459,12.2194945 L23.4739788,18.7535196 C24.1607833,19.4230189 24.1750917,20.4998256 23.516904,21.1862961 L23.4739788,21.2295755 L16.3140514,27.7766082 C16.1817842,27.9055427 16.0133575,27.9777461 15.8405918,27.9932183 L15.7933902,27.9960314 L15.7461168,27.9960314 C15.5570714,27.9904051 15.3697472,27.9172641 15.2254556,27.7766082 C14.9355841,27.4940405 14.9252316,27.042178 15.1943979,26.7475178 L15.2254556,26.7154413 L22.0225176,20.522131 C22.3123891,20.2395633 22.3227416,19.7877008 22.0535753,19.4930406 L22.0225176,19.4609641 L15.2266501,13.2806614 C14.9260426,12.9876282 14.9260426,12.5125277 15.2266501,12.2194945 C15.3715858,12.0782107 15.5599392,12.0050459 15.7498433,12 L15.7973274,12 C15.9713765,12.0059394 16.1437969,12.06896 16.2823403,12.1892194 Z" id="path-1"></path>
    </defs>
    <g id="页面-1" stroke="none" stroke-width="1" fill="none" fill-rule="evenodd">
        <g id="Container/Panel/Phone/Items/Title/Text-only_line2" transform="translate(-305.000000, -59.000000)">
            <g id="edit" transform="translate(305.000000, 8.000000)">
                <g id="back" transform="translate(0.000000, 51.000000)">
                    <use id="路径" fill-opacity="0.901960784" fill="#000000" fill-rule="nonzero" transform="translate(19.500021, 19.998016) scale(-1, 1) translate(-19.500021, -19.998016) " xlink:href="#path-1"></use>
                </g>
            </g>
        </g>
    </g>
</svg>