<?xml version="1.0" encoding="UTF-8"?>
<svg width="40px" height="40px" viewBox="0 0 40 40" version="1.1" xmlns="http://www.w3.org/2000/svg" xmlns:xlink="http://www.w3.org/1999/xlink">
    <title>svg编组 7</title>
    <defs>
        <path d="M25.6568542,14.3431457 C25.9497475,14.636039 25.9497475,15.1109127 25.6568542,15.4038059 L15.4038059,25.6568542 C15.1109127,25.9497475 14.636039,25.9497475 14.3431457,25.6568542 C14.0502525,25.363961 14.0502525,24.8890873 14.3431457,24.5961941 L18.9400469,19.9992929 L14.3431457,15.4038059 C14.0502525,15.1109127 14.0502525,14.636039 14.3431457,14.3431457 C14.636039,14.0502525 15.1109127,14.0502525 15.4038059,14.3431457 L20.0007071,18.9386327 L24.5961941,14.3431457 C24.8890873,14.0502525 25.363961,14.0502525 25.6568542,14.3431457 Z M25.6568542,24.5961941 C25.9497475,24.8890873 25.9497475,25.363961 25.6568542,25.6568542 C25.363961,25.9497475 24.8890873,25.9497475 24.5961941,25.6568542 L20.7071068,21.7677669 L21.7677669,20.7071068 L25.6568542,24.5961941 Z" id="path-1"></path>
    </defs>
    <g id="页面-1" stroke="none" stroke-width="1" fill="none" fill-rule="evenodd">
        <g id="Container/Panel/Phone/Items/Title/Text-only_line2" transform="translate(-304.000000, -8.000000)">
            <g id="编组-7" transform="translate(304.000000, 8.000000)">
                <use id="形状" fill-opacity="0.901960784" fill="#000000" xlink:href="#path-1"></use>
            </g>
        </g>
    </g>
</svg>