<?xml version="1.0" encoding="UTF-8"?>
<svg width="40px" height="40px" viewBox="0 0 40 40" version="1.1" xmlns="http://www.w3.org/2000/svg" xmlns:xlink="http://www.w3.org/1999/xlink">
    <title>svgedit</title>
    <g id="页面-1" stroke="none" stroke-width="1" fill="none" fill-rule="evenodd">
        <g id="Container/Panel/Phone/Items/Title/Text-only_line2" transform="translate(-354.000000, -8.000000)" fill="#000000">
            <g id="edit" transform="translate(305.000000, 8.000000)">
                <g transform="translate(49.000000, 0.000000)">
                    <path d="M23.6541722,12.425 C24.1316771,12.425 24.5012306,12.4427081 24.8013063,12.4771815 L24.8013063,12.4771815 L23.5780505,13.6994032 L16.2692253,13.7001271 C15.2639884,13.7111386 14.9357852,13.7796427 14.6006501,13.9588749 C14.3212093,14.1083214 14.1083214,14.3212093 13.9588749,14.6006501 C13.7647466,14.9636384 13.7,15.3183182 13.7,16.3458265 L13.7,16.3458265 L13.7001271,23.7307747 C13.7111386,24.7360116 13.7796427,25.0642148 13.9588749,25.3993499 C14.1083214,25.6787907 14.3212093,25.8916786 14.6006501,26.0411251 C14.9449476,26.2252574 15.2817228,26.2928644 16.1935017,26.2994701 L16.1935017,26.2994701 L23.6541722,26.3 C24.6816818,26.3 25.0363616,26.2352534 25.3993499,26.0411251 C25.6787907,25.8916786 25.8916786,25.6787907 26.0411251,25.3993499 C26.2252574,25.0550524 26.2928644,24.7182772 26.2994701,23.8064982 L26.2994701,23.8064982 L26.3000022,16.4213348 L27.522819,15.1986974 C27.557292,15.4987725 27.575,15.8683249 27.575,16.3458278 L27.575,16.3458278 L27.5749971,23.6548281 C27.5629932,25.0274888 27.4257496,25.5041142 27.181969,25.9694126 C26.9093541,26.4794801 26.5396891,26.859303 26.0698739,27.127196 C25.503543,27.4313044 25.0120387,27.575 23.6541646,27.575 L23.6541646,27.575 L16.1789757,27.5742417 C14.9737488,27.5629923 14.4964153,27.426027 14.0305874,27.181969 C13.5205199,26.9093541 13.140697,26.5396891 12.872804,26.0698739 C12.5686956,25.503543 12.425,25.0120387 12.425,23.6541722 L12.425,23.6541722 L12.425,16.3458278 C12.425,15.0162748 12.5631131,14.5171435 12.818031,14.0305874 C13.0906459,13.5205199 13.4603109,13.140697 13.9301261,12.872804 C14.496457,12.5686956 14.9879613,12.425 16.3458278,12.425 L16.3458278,12.425 Z M26.9860813,11.8455314 L28.1695739,12.700276 L20.1389187,21.0294686 L18.9554261,20.174724 L26.9860813,11.8455314 Z" id="形状结合" stroke="#000000" stroke-width="0.15" fill-rule="nonzero"></path>
                </g>
            </g>
        </g>
    </g>
</svg>