<?xml version="1.0" standalone="no"?><!DOCTYPE svg PUBLIC "-//W3C//DTD SVG 1.1//EN" "http://www.w3.org/Graphics/SVG/1.1/DTD/svg11.dtd"><svg t="1749264091999" class="icon" viewBox="0 0 1024 1024" version="1.1" xmlns="http://www.w3.org/2000/svg" p-id="1861" xmlns:xlink="http://www.w3.org/1999/xlink" width="200" height="200"><path d="M682.666667 128a213.333333 213.333333 0 0 0-207.274667 264.021333l0.213333 0.853334c2.346667 9.728 4.437333 18.261333 5.845334 25.173333 1.28 6.528 2.858667 15.530667 2.218666 24.917333-0.853333 12.714667-3.498667 22.101333-9.386666 33.408-6.229333 12.074667-16.810667 22.613333-25.6 31.317334l-2.56 2.56-266.624 266.581333a47.829333 47.829333 0 0 0 67.669333 67.669333l266.581333-266.581333 2.56-2.56c8.746667-8.789333 19.285333-19.413333 31.317334-25.642667 11.349333-5.888 20.693333-8.533333 33.450666-9.386666 9.344-0.64 18.346667 0.938667 24.917334 2.261333 6.869333 1.365333 15.402667 3.413333 25.173333 5.802667l0.810667 0.213333a213.333333 213.333333 0 0 0 262.741333-230.997333l-70.570667 70.570666a391.125333 391.125333 0 0 1-21.802666 20.821334 86.186667 86.186667 0 0 1-29.312 17.152 85.333333 85.333333 0 0 1-52.736 0 86.314667 86.314667 0 0 1-29.269334-17.152 391.296 391.296 0 0 1-21.845333-20.821334l-33.365333-33.365333c-7.594667-7.637333-15.018667-15.018667-20.778667-21.845333a86.272 86.272 0 0 1-17.194667-29.269334 85.333333 85.333333 0 0 1 0-52.736c4.053333-12.373333 10.837333-21.845333 17.152-29.269333 5.802667-6.826667 13.226667-14.208 20.821334-21.845333l70.570666-70.570667A216.149333 216.149333 0 0 0 682.666667 128zM384 341.333333a298.666667 298.666667 0 0 1 421.632-272.213333 42.666667 42.666667 0 0 1 12.586667 68.992L697.173333 259.242667c-8.96 8.96-13.824 13.866667-17.066666 17.664l-0.341334 0.426666 0.341334 0.426667c3.242667 3.84 8.106667 8.746667 17.066666 17.664l31.445334 31.488c8.96 8.96 13.866667 13.781333 17.664 17.066667l0.426666 0.341333 0.426667-0.384c3.84-3.242667 8.746667-8.106667 17.664-17.066667l121.130667-121.088a42.666667 42.666667 0 0 1 69.034666 12.586667 298.666667 298.666667 0 0 1-343.168 413.141333 662.186667 662.186667 0 0 0-24.874666-5.717333l-0.512 0.469333a390.528 390.528 0 0 0-12.288 11.989334l-266.581334 266.581333a133.162667 133.162667 0 1 1-188.330666-188.330667l266.581333-266.581333a389.546667 389.546667 0 0 0 11.989333-12.245333l0.426667-0.554667a661.077333 661.077333 0 0 0-5.717333-24.917333A299.306667 299.306667 0 0 1 384 341.333333z m14.933333 95.104a12.032 12.032 0 0 0-0.213333 0.682667v0.085333a11.861333 11.861333 0 0 0-0.213333 0.725334v0.042666" fill="#000000" p-id="1862"></path></svg>