<svg width="32.000000" height="32.000000" viewBox="0 0 32 32" fill="none" xmlns="http://www.w3.org/2000/svg" xmlns:xlink="http://www.w3.org/1999/xlink">
	<desc>
			Created with Pixso.
	</desc>
	<defs>
		<clipPath id="clip119_13934">
			<rect id="ic_public_comments_filled" width="32.000000" height="32.000000" fill="white" fill-opacity="0"/>
		</clipPath>
	</defs>
	<g clip-path="url(#clip119_13934)">
		<path id="path-1" d="M20.33 3.33C25.85 3.33 30.33 7.81 30.33 13.33C30.33 18.85 25.85 23.33 20.33 23.33L18.98 23.33L13.26 28.89C12.31 29.81 10.8 28.94 11.02 27.71L11.05 27.57C11.44 26.41 11.75 25.37 11.97 24.57L12.04 24.27L12.09 24.05C12.14 23.85 12.21 23.56 12.26 23.33L11.66 23.33C6.14 23.33 1.66 18.85 1.66 13.33C1.66 7.81 6.14 3.33 11.66 3.33L20.33 3.33ZM9.33 15.33C10.25 15.33 11 14.58 11 13.66C11 12.74 10.25 12 9.33 12C8.41 12 7.66 12.74 7.66 13.66C7.66 14.58 8.41 15.33 9.33 15.33ZM16 15.33C16.92 15.33 17.66 14.58 17.66 13.66C17.66 12.74 16.92 12 16 12C15.07 12 14.33 12.74 14.33 13.66C14.33 14.58 15.07 15.33 16 15.33ZM22.66 15.33C23.58 15.33 24.33 14.58 24.33 13.66C24.33 12.74 23.58 12 22.66 12C21.74 12 21 12.74 21 13.66C21 14.58 21.74 15.33 22.66 15.33Z" fill="#FFFFFF" fill-opacity="1.000000" fill-rule="nonzero"/>
		<path id="path-1" d="M30.33 13.33C30.33 18.85 25.85 23.33 20.33 23.33L18.98 23.33L13.26 28.89C12.31 29.81 10.8 28.94 11.02 27.71L11.05 27.57C11.44 26.41 11.75 25.37 11.97 24.57L12.04 24.27L12.09 24.05C12.14 23.85 12.21 23.56 12.26 23.33L11.66 23.33C6.14 23.33 1.66 18.85 1.66 13.33C1.66 7.81 6.14 3.33 11.66 3.33L20.33 3.33C25.85 3.33 30.33 7.81 30.33 13.33ZM11 13.66C11 12.74 10.25 12 9.33 12C8.41 12 7.66 12.74 7.66 13.66C7.66 14.58 8.41 15.33 9.33 15.33C10.25 15.33 11 14.58 11 13.66ZM17.66 13.66C17.66 12.74 16.92 12 16 12C15.07 12 14.33 12.74 14.33 13.66C14.33 14.58 15.07 15.33 16 15.33C16.92 15.33 17.66 14.58 17.66 13.66ZM24.33 13.66C24.33 12.74 23.58 12 22.66 12C21.74 12 21 12.74 21 13.66C21 14.58 21.74 15.33 22.66 15.33C23.58 15.33 24.33 14.58 24.33 13.66Z" stroke="#000000" stroke-opacity="0" stroke-width="1.000000"/>
	</g>
</svg>
