<svg width="40.000000" height="40.000000" viewBox="0 0 40 40" fill="none" xmlns="http://www.w3.org/2000/svg" xmlns:xlink="http://www.w3.org/1999/xlink">
	<desc>
			Created with Pixso.
	</desc>
	<defs>
		<clipPath id="clip4_348">
			<rect id="svg" width="40.000000" height="40.000000" fill="white" fill-opacity="0"/>
		</clipPath>
	</defs>
	<g clip-path="url(#clip4_348)">
		<circle id="circle" cx="20.000000" cy="20.000000" r="20.000000" fill="#0A59F7" fill-opacity="1.000000"/>
		<circle id="circle" cx="20.000000" cy="20.000000" r="20.000000" stroke="#000000" stroke-opacity="0" stroke-width="1.000000"/>
		<path id="path" d="M28.41 26C28.36 25.99 28.31 25.99 28.25 25.99L11.73 25.99C11.33 25.99 10.99 25.65 10.99 25.24C10.99 24.84 11.33 24.5 11.73 24.5L13.99 24.5C14.41 24.5 14.74 24.17 14.74 23.75C14.74 23.33 14.41 23 13.99 23L11.73 23C10.5 23 9.5 24 9.5 25.24C9.5 26.43 10.42 27.41 11.58 27.49C11.63 27.5 11.68 27.5 11.74 27.5L28.26 27.5C28.66 27.5 29 27.84 29 28.25C29 28.66 28.66 28.99 28.26 28.99L14 28.99C13.59 28.99 13.25 29.33 13.25 29.74C13.25 30.16 13.59 30.5 14 30.5L28.26 30.5C29.49 30.5 30.5 29.49 30.5 28.25C30.5 27.06 29.57 26.08 28.41 26Z" fill="#FFFFFF" fill-opacity="0.600000" fill-rule="nonzero"/>
		<path id="path" d="M28.25 25.99L11.73 25.99C11.33 25.99 10.99 25.65 10.99 25.24C10.99 24.84 11.33 24.5 11.73 24.5L13.99 24.5C14.41 24.5 14.74 24.17 14.74 23.75C14.74 23.33 14.41 23 13.99 23L11.73 23C10.5 23 9.5 24 9.5 25.24C9.5 26.43 10.42 27.41 11.58 27.49C11.63 27.5 11.68 27.5 11.74 27.5L28.26 27.5C28.66 27.5 29 27.84 29 28.25C29 28.66 28.66 28.99 28.26 28.99L14 28.99C13.59 28.99 13.25 29.33 13.25 29.74C13.25 30.16 13.59 30.5 14 30.5L28.26 30.5C29.49 30.5 30.5 29.49 30.5 28.25C30.5 27.06 29.57 26.08 28.41 26C28.36 25.99 28.31 25.99 28.25 25.99Z" stroke="#000000" stroke-opacity="0" stroke-width="1.000000"/>
		<path id="path" d="M19.85 9.85C23.1 9.85 25.72 12.49 25.72 15.74C25.72 16.58 25.38 17.63 24.79 18.8L24.67 19.04L24.55 19.27L24.33 19.65L24.11 20.02L23.99 20.21L23.76 20.58L23.64 20.77L23.39 21.12L23.26 21.3L23.01 21.64L22.76 21.95C21.68 23.31 20.74 24.11 19.85 24.11C19.07 24.11 18.27 23.5 17.35 22.44L17.2 22.27L17.06 22.1L16.81 21.79L16.68 21.62L16.55 21.45L16.3 21.1L16.06 20.75L15.82 20.38L15.59 20.02L15.47 19.82L15.25 19.44L15.04 19.06L14.86 18.69C14.3 17.56 13.98 16.56 13.98 15.74C13.98 12.49 16.61 9.85 19.85 9.85ZM19.85 13.91C18.85 13.91 18.04 14.72 18.04 15.73C18.04 16.73 18.85 17.54 19.85 17.54C20.86 17.54 21.67 16.73 21.67 15.73C21.67 14.72 20.86 13.91 19.85 13.91Z" fill="#FFFFFF" fill-opacity="1.000000" fill-rule="evenodd"/>
		<path id="path" d="M25.72 15.74C25.72 16.58 25.38 17.63 24.79 18.8L24.67 19.04L24.55 19.27L24.33 19.65L24.11 20.02L23.99 20.21L23.76 20.58L23.64 20.77L23.39 21.12L23.26 21.3L23.01 21.64L22.76 21.95C21.68 23.31 20.74 24.11 19.85 24.11C19.07 24.11 18.27 23.5 17.35 22.44L17.2 22.27L17.06 22.1L16.81 21.79L16.68 21.62L16.55 21.45L16.3 21.1L16.06 20.75L15.82 20.38L15.59 20.02L15.47 19.82L15.25 19.44L15.04 19.06L14.86 18.69C14.3 17.56 13.98 16.56 13.98 15.74C13.98 12.49 16.61 9.85 19.85 9.85C23.1 9.85 25.72 12.49 25.72 15.74ZM18.04 15.73C18.04 16.73 18.85 17.54 19.85 17.54C20.86 17.54 21.67 16.73 21.67 15.73C21.67 14.72 20.86 13.91 19.85 13.91C18.85 13.91 18.04 14.72 18.04 15.73Z" stroke="#000000" stroke-opacity="0" stroke-width="1.000000"/>
	</g>
</svg>
