<svg xmlns="http://www.w3.org/2000/svg" width="24" height="24" version="1.1" viewBox="0 0 24 24">
  <path fill="#000" fill-rule="evenodd" stroke="none" stroke-width="1" d="M11,0 C17.0751322,0 22,4.92486775 22,11 C22,17.0751322 17.0751322,22 11,22 C4.92486775,22 0,17.0751322 0,11 C0,4.92486775 4.92486775,0 11,0 Z M11,1.5 C5.75329488,1.5 1.5,5.75329488 1.5,11 C1.5,16.2467051 5.75329488,20.5 11,20.5 C16.2467051,20.5 20.5,16.2467051 20.5,11 C20.5,5.75329488 16.2467051,1.5 11,1.5 Z M16.75,13.5 C17.1642136,13.5 17.5,13.8357864 17.5,14.25 C17.5,14.6642136 17.1642136,15 16.75,15 L5.25,15 C4.83578644,15 4.5,14.6642136 4.5,14.25 C4.5,13.8357864 4.83578644,13.5 5.25,13.5 L16.75,13.5 Z M11.25,10.25 C11.6642136,10.25 12,10.5857864 12,11 C12,11.4142136 11.6642136,11.75 11.25,11.75 L10.75,11.75 C10.3357864,11.75 10,11.4142136 10,11 C10,10.5857864 10.3357864,10.25 10.75,10.25 L11.25,10.25 Z M7.25,10.25 C7.66421356,10.25 8,10.5857864 8,11 C8,11.4142136 7.66421356,11.75 7.25,11.75 L6.75,11.75 C6.33578644,11.75 6,11.4142136 6,11 C6,10.5857864 6.33578644,10.25 6.75,10.25 L7.25,10.25 Z M15.25,10.25 C15.6642136,10.25 16,10.5857864 16,11 C16,11.4142136 15.6642136,11.75 15.25,11.75 L14.75,11.75 C14.3357864,11.75 14,11.4142136 14,11 C14,10.5857864 14.3357864,10.25 14.75,10.25 L15.25,10.25 Z M9.5,7 C9.91421356,7 10.25,7.33578644 10.25,7.75 C10.25,8.16421356 9.91421356,8.5 9.5,8.5 L9,8.5 C8.58578644,8.5 8.25,8.16421356 8.25,7.75 C8.25,7.33578644 8.58578644,7 9,7 L9.5,7 Z M13.25,7 C13.6642136,7 14,7.33578644 14,7.75 C14,8.16421356 13.6642136,8.5 13.25,8.5 L12.75,8.5 C12.3357864,8.5 12,8.16421356 12,7.75 C12,7.33578644 12.3357864,7 12.75,7 L13.25,7 Z M17,7 C17.4142136,7 17.75,7.33578644 17.75,7.75 C17.75,8.16421356 17.4142136,8.5 17,8.5 L16.5,8.5 C16.0857864,8.5 15.75,8.16421356 15.75,7.75 C15.75,7.33578644 16.0857864,7 16.5,7 L17,7 Z M5.5,7 C5.91421356,7 6.25,7.33578644 6.25,7.75 C6.25,8.16421356 5.91421356,8.5 5.5,8.5 L5,8.5 C4.58578644,8.5 4.25,8.16421356 4.25,7.75 C4.25,7.33578644 4.58578644,7 5,7 L5.5,7 Z" transform="translate(1 1)"/>
</svg>
