<?xml version="1.0" standalone="no"?><!DOCTYPE svg PUBLIC "-//W3C//DTD SVG 1.1//EN" "http://www.w3.org/Graphics/SVG/1.1/DTD/svg11.dtd"><svg t="1749264086498" class="icon" viewBox="0 0 1024 1024" version="1.1" xmlns="http://www.w3.org/2000/svg" p-id="1708" xmlns:xlink="http://www.w3.org/1999/xlink" width="200" height="200"><path d="M408.234667 42.666667h207.530666c10.752 0 21.248 0 30.122667 0.725333 9.770667 0.810667 21.290667 2.688 32.853333 8.576a85.333333 85.333333 0 0 1 37.290667 37.290667c5.888 11.562667 7.808 23.082667 8.576 32.853333l0.426667 6.229333c16.810667 0.554667 31.274667 1.92 44.458666 5.461334a170.666667 170.666667 0 0 1 120.704 120.704C896 276.309333 896 301.525333 896 335.445333v400.170667c0 34.346667 0 62.72-1.877333 85.76-1.962667 24.021333-6.186667 46.08-16.725334 66.773333a170.666667 170.666667 0 0 1-74.581333 74.581334c-20.693333 10.538667-42.752 14.762667-66.730667 16.725333-23.082667 1.877333-51.456 1.877333-85.76 1.877333H373.674667c-34.346667 0-62.72 0-85.76-1.877333-24.021333-1.962667-46.08-6.186667-66.773334-16.725333a170.666667 170.666667 0 0 1-74.581333-74.581334c-10.538667-20.693333-14.762667-42.752-16.725333-66.730666C128 798.293333 128 769.962667 128 735.658667V341.333333v-5.888c0-33.92 0-59.136 5.802667-80.938666a170.666667 170.666667 0 0 1 120.704-120.704c13.226667-3.541333 27.648-4.906667 44.501333-5.461334 0.085333-2.133333 0.213333-4.266667 0.384-6.229333 0.810667-9.770667 2.688-21.290667 8.576-32.853333a85.333333 85.333333 0 0 1 37.290667-37.290667c11.605333-5.888 23.082667-7.765333 32.853333-8.576C386.986667 42.666667 397.482667 42.666667 408.234667 42.666667z m-109.226667 171.093333c-11.178667 0.384-17.28 1.109333-22.442667 2.474667a85.333333 85.333333 0 0 0-60.330666 60.330666C213.674667 286.08 213.333333 298.922667 213.333333 341.333333v392.533334c0 36.565333 0 61.397333 1.621334 80.597333 1.493333 18.688 4.266667 28.288 7.68 34.944a85.333333 85.333333 0 0 0 37.290666 37.290667c6.698667 3.413333 16.213333 6.186667 34.986667 7.68C314.069333 896 338.901333 896 375.466667 896h273.066666c36.565333 0 61.397333 0 80.64-1.621333 18.688-1.493333 28.245333-4.266667 34.901334-7.68a85.333333 85.333333 0 0 0 37.290666-37.290667c3.413333-6.656 6.186667-16.213333 7.68-34.944 1.578667-19.2 1.621333-44.032 1.621334-80.597333V341.333333c0-42.410667-0.384-55.253333-2.901334-64.768a85.333333 85.333333 0 0 0-60.330666-60.330666 99.242667 99.242667 0 0 0-22.485334-2.474667 172.373333 172.373333 0 0 1-0.341333 5.461333 86.272 86.272 0 0 1-8.533333 32.853334 85.333333 85.333333 0 0 1-37.333334 37.290666 86.272 86.272 0 0 1-32.853333 8.576C637.013333 298.666667 626.517333 298.666667 615.765333 298.666667H408.234667c-10.752 0-21.248 0-30.122667-0.725334a86.272 86.272 0 0 1-32.853333-8.576 85.333333 85.333333 0 0 1-37.290667-37.290666 86.272 86.272 0 0 1-8.576-32.853334 169.685333 169.685333 0 0 1-0.341333-5.461333zM640 153.6a350.08 350.08 0 0 0-0.469333-25.130667h-0.597334A349.312 349.312 0 0 0 614.4 128H409.6a349.269333 349.269333 0 0 0-25.088 0.469333l-0.085333 0.597334C384 133.973333 384 140.928 384 153.6v34.133333a349.226667 349.226667 0 0 0 0.512 25.130667h0.554667C389.973333 213.333333 396.970667 213.333333 409.6 213.333333h204.8a349.226667 349.226667 0 0 0 25.130667-0.469333v-0.597333C640 207.36 640 200.405333 640 187.733333v-34.133333z m-264.832 328.234667a42.666667 42.666667 0 0 1 60.330667 0L512 558.336l76.501333-76.501333a42.666667 42.666667 0 0 1 60.330667 60.330666L572.330667 618.666667l76.501333 76.501333a42.666667 42.666667 0 0 1-60.330667 60.330667L512 678.997333l-76.501333 76.501334a42.666667 42.666667 0 0 1-60.330667-60.330667l76.501333-76.501333-76.501333-76.501334a42.666667 42.666667 0 0 1 0-60.330666z" fill="#000000" p-id="1709"></path></svg>