<?xml version="1.0" standalone="no"?><!DOCTYPE svg PUBLIC "-//W3C//DTD SVG 1.1//EN" "http://www.w3.org/Graphics/SVG/1.1/DTD/svg11.dtd"><svg t="1749263947565" class="icon" viewBox="0 0 1024 1024" version="1.1" xmlns="http://www.w3.org/2000/svg" p-id="1555" xmlns:xlink="http://www.w3.org/1999/xlink" width="200" height="200"><path d="M262.869333 85.333333H341.333333a42.666667 42.666667 0 1 1 0 85.333334H264.533333c-24.618667 0-40.490667 0-52.565333 1.024-11.605333 0.938667-15.914667 2.56-18.005333 3.626666a42.666667 42.666667 0 0 0-18.645334 18.645334c-1.066667 2.133333-2.688 6.4-3.626666 18.005333C170.666667 224 170.666667 239.914667 170.666667 264.533333V341.333333a42.666667 42.666667 0 1 1-85.333334 0V262.869333c0-22.485333 0-41.856 1.28-57.856 1.408-16.853333 4.437333-33.664 12.672-49.792a128 128 0 0 1 55.936-55.936c16.128-8.234667 32.938667-11.264 49.792-12.629333C221.013333 85.333333 240.426667 85.333333 262.869333 85.333333z m549.162667 86.357334C800 170.666667 784.085333 170.666667 759.466667 170.666667H682.666667a42.666667 42.666667 0 1 1 0-85.333334h78.421333c22.528 0 41.898667 0 57.898667 1.28 16.853333 1.408 33.664 4.437333 49.792 12.672a128 128 0 0 1 55.936 55.936c8.234667 16.128 11.264 32.938667 12.629333 49.792 1.322667 16 1.322667 35.413333 1.322667 57.856V341.333333a42.666667 42.666667 0 1 1-85.333334 0V264.533333c0-24.618667 0-40.490667-1.024-52.565333-0.938667-11.605333-2.56-15.914667-3.626666-18.005333a42.666667 42.666667 0 0 0-18.645334-18.645334c-2.133333-1.066667-6.4-2.688-18.005333-3.626666zM512 384a128 128 0 1 0 0 256 128 128 0 0 0 0-256z m-213.333333 128a213.333333 213.333333 0 1 1 426.666666 0 213.333333 213.333333 0 0 1-426.666666 0z m-170.666667 128a42.666667 42.666667 0 0 1 42.666667 42.666667v76.8c0 24.618667 0 40.490667 1.024 52.565333 0.938667 11.605333 2.56 15.872 3.626666 18.005333a42.666667 42.666667 0 0 0 18.645334 18.645334c2.133333 1.066667 6.4 2.688 18.005333 3.626666C224 853.333333 239.914667 853.333333 264.533333 853.333333H341.333333a42.666667 42.666667 0 1 1 0 85.333334H262.869333c-22.485333 0-41.856 0-57.856-1.28-16.853333-1.408-33.664-4.437333-49.792-12.672a128 128 0 0 1-55.936-55.936c-8.234667-16.128-11.264-32.938667-12.629333-49.792A763.733333 763.733333 0 0 1 85.333333 761.088V682.666667a42.666667 42.666667 0 0 1 42.666667-42.666667z m768 0a42.666667 42.666667 0 0 1 42.666667 42.666667v78.464c0 22.485333 0 41.898667-1.28 57.856-1.408 16.853333-4.437333 33.664-12.672 49.792a128 128 0 0 1-55.936 55.936c-16.128 8.234667-32.938667 11.264-49.792 12.629333-16 1.322667-35.413333 1.322667-57.856 1.322667H682.666667a42.666667 42.666667 0 1 1 0-85.333334h76.8c24.618667 0 40.490667 0 52.565333-1.024 11.605333-0.938667 15.872-2.56 18.005333-3.626666a42.666667 42.666667 0 0 0 18.645334-18.645334c1.066667-2.133333 2.688-6.4 3.626666-18.005333C853.333333 800 853.333333 784.085333 853.333333 759.466667V682.666667a42.666667 42.666667 0 0 1 42.666667-42.666667z" fill="#000000" p-id="1556"></path></svg>