<?xml version="1.0" standalone="no"?>
<svg xmlns="http://www.w3.org/2000/svg" width="24" height="24"><rect width="24" height="24" opacity="0"></rect><g><path d="M3.84 11.18Q3.58 11.47 3.6 11.83Q3.62 12.19 3.88 12.44Q4.13 12.7 4.51 12.7L8.3 12.7L8.3 19.97Q8.3 20.38 8.6 20.68Q8.9 20.98 9.31 20.98L14.69 20.98Q15.1 20.98 15.4 20.68Q15.7 20.38 15.7 19.97L15.7 12.7L19.51 12.7Q19.87 12.7 20.12 12.44Q20.38 12.19 20.4 11.83Q20.42 11.47 20.16 11.18L12.96 3.43Q12.58 3.02 12.01 3.02Q11.45 3.02 11.04 3.43L3.84 11.18Z" fill="rgba(0,0,0,0.9019607843137255)"></path></g></svg>