<?xml version="1.0" standalone="no"?>
<svg xmlns="http://www.w3.org/2000/svg" width="24" height="24"><rect width="24" height="24" opacity="0"></rect><g><path d="M15.05 20.98Q15.55 20.98 15.9 20.62Q16.25 20.26 16.25 19.78L16.25 13.01L19.85 13.01Q20.16 13.01 20.42 12.83Q20.69 12.65 20.81 12.36Q20.93 12.07 20.87 11.76Q20.81 11.45 20.59 11.23L13.03 3.46Q12.62 3.02 12 3.02Q11.38 3.02 10.97 3.46L3.38 11.23Q3.17 11.45 3.12 11.76Q3.07 12.07 3.19 12.36Q3.31 12.65 3.58 12.83Q3.84 13.01 4.15 13.01L7.75 13.01L7.75 19.78Q7.75 20.28 8.11 20.63Q8.47 20.98 8.95 20.98L15.05 20.98ZM9.26 12.24Q9.26 11.93 9.05 11.71Q8.83 11.5 8.52 11.5L5.21 11.5L12 4.54L18.79 11.5L15.5 11.5Q15.19 11.5 14.98 11.71Q14.76 11.93 14.76 12.24L14.76 19.46L9.26 19.46L9.26 12.24Z" fill="rgba(0,0,0,0.9019607843137255)"></path></g></svg>