<svg width="31.000000" height="32.333008" viewBox="0 0 31 32.333" fill="none" xmlns="http://www.w3.org/2000/svg" xmlns:xlink="http://www.w3.org/1999/xlink">
	<desc>
			Created with Pixso.
	</desc>
	<defs>
		<filter id="filter_1325_79794_dd" x="0.000000" y="0.000000" width="31.000000" height="32.333008" filterUnits="userSpaceOnUse" color-interpolation-filters="sRGB">
			<feFlood flood-opacity="0" result="BackgroundImageFix"/>
			<feColorMatrix in="SourceAlpha" type="matrix" values="0 0 0 0 0 0 0 0 0 0 0 0 0 0 0 0 0 0 127 0" result="hardAlpha"/>
			<feOffset dx="0" dy="4"/>
			<feGaussianBlur stdDeviation="1.5"/>
			<feComposite in2="hardAlpha" operator="out" k2="-1" k3="1"/>
			<feColorMatrix type="matrix" values="0 0 0 0 0 0 0 0 0 0 0 0 0 0 0 0 0 0 0.25 0"/>
			<feBlend mode="normal" in2="BackgroundImageFix" result="effect_dropShadow_1"/>
			<feBlend mode="normal" in="SourceGraphic" in2="effect_dropShadow_1" result="shape"/>
		</filter>
		<filter id="filter_1325_79795_dd" x="4.500000" y="0.500000" width="22.000000" height="23.333008" filterUnits="userSpaceOnUse" color-interpolation-filters="sRGB">
			<feFlood flood-opacity="0" result="BackgroundImageFix"/>
			<feColorMatrix in="SourceAlpha" type="matrix" values="0 0 0 0 0 0 0 0 0 0 0 0 0 0 0 0 0 0 127 0" result="hardAlpha"/>
			<feOffset dx="0" dy="4"/>
			<feGaussianBlur stdDeviation="1.5"/>
			<feComposite in2="hardAlpha" operator="out" k2="-1" k3="1"/>
			<feColorMatrix type="matrix" values="0 0 0 0 0 0 0 0 0 0 0 0 0 0 0 0 0 0 0.25 0"/>
			<feBlend mode="normal" in2="BackgroundImageFix" result="effect_dropShadow_1"/>
			<feBlend mode="normal" in="SourceGraphic" in2="effect_dropShadow_1" result="shape"/>
		</filter>
	</defs>
	<g opacity="0.600000">
		<path id="path-3" d="M15.5 1C17.52 1 19.16 2.64 19.16 4.66L19.16 11.66C19.16 13.69 17.52 15.33 15.5 15.33C13.47 15.33 11.83 13.69 11.83 11.66L11.83 4.66C11.83 2.64 13.47 1 15.5 1ZM11.16 3.91L9 3.91C9.02 4.64 9.1 5.13 9.22 5.39C9.34 5.65 9.53 5.86 9.8 6.01L9.96 7.58L11.16 7.58L11.16 3.91ZM11.16 8.58L9 8.58C9.02 9.31 9.1 9.8 9.22 10.06C9.34 10.32 9.53 10.53 9.8 10.68L9.96 12.25L11.16 12.25L11.16 8.58ZM19.83 3.91L22 3.91C21.97 4.64 21.89 5.13 21.77 5.39C21.65 5.65 21.46 5.86 21.19 6.01L21.03 7.58L19.83 7.58L19.83 3.91ZM19.83 8.58L22 8.58C21.97 9.31 21.89 9.8 21.77 10.06C21.65 10.32 21.46 10.53 21.19 10.68L21.03 12.25L19.83 12.25L19.83 8.58Z" fill="#000000" fill-opacity="1.000000" fill-rule="nonzero"/>
		<path id="path-3" d="M19.16 4.66L19.16 11.66C19.16 13.69 17.52 15.33 15.5 15.33C13.47 15.33 11.83 13.69 11.83 11.66L11.83 4.66C11.83 2.64 13.47 1 15.5 1C17.52 1 19.16 2.64 19.16 4.66ZM9 3.91C9.02 4.64 9.1 5.13 9.22 5.39C9.34 5.65 9.53 5.86 9.8 6.01L9.96 7.58L11.16 7.58L11.16 3.91L9 3.91ZM9 8.58C9.02 9.31 9.1 9.8 9.22 10.06C9.34 10.32 9.53 10.53 9.8 10.68L9.96 12.25L11.16 12.25L11.16 8.58L9 8.58ZM22 3.91C21.97 4.64 21.89 5.13 21.77 5.39C21.65 5.65 21.46 5.86 21.19 6.01L21.03 7.58L19.83 7.58L19.83 3.91L22 3.91ZM22 8.58C21.97 9.31 21.89 9.8 21.77 10.06C21.65 10.32 21.46 10.53 21.19 10.68L21.03 12.25L19.83 12.25L19.83 8.58L22 8.58Z" stroke="#000000" stroke-opacity="0" stroke-width="1.000000"/>
		<g filter="url(#filter_1325_79794_dd)">
			<g filter="url(#filter_1325_79795_dd)">
				<path id="path-3" d="M15.5 1C17.52 1 19.16 2.64 19.16 4.66L19.16 11.66C19.16 13.69 17.52 15.33 15.5 15.33C13.47 15.33 11.83 13.69 11.83 11.66L11.83 4.66C11.83 2.64 13.47 1 15.5 1ZM11.16 3.91L9 3.91C9.02 4.64 9.1 5.13 9.22 5.39C9.34 5.65 9.53 5.86 9.8 6.01L9.96 7.58L11.16 7.58L11.16 3.91ZM11.16 8.58L9 8.58C9.02 9.31 9.1 9.8 9.22 10.06C9.34 10.32 9.53 10.53 9.8 10.68L9.96 12.25L11.16 12.25L11.16 8.58ZM19.83 3.91L22 3.91C21.97 4.64 21.89 5.13 21.77 5.39C21.65 5.65 21.46 5.86 21.19 6.01L21.03 7.58L19.83 7.58L19.83 3.91ZM19.83 8.58L22 8.58C21.97 9.31 21.89 9.8 21.77 10.06C21.65 10.32 21.46 10.53 21.19 10.68L21.03 12.25L19.83 12.25L19.83 8.58Z" fill="#000000" fill-opacity="1.000000" fill-rule="nonzero"/>
				<path id="path-3" d="M19.16 4.66L19.16 11.66C19.16 13.69 17.52 15.33 15.5 15.33C13.47 15.33 11.83 13.69 11.83 11.66L11.83 4.66C11.83 2.64 13.47 1 15.5 1C17.52 1 19.16 2.64 19.16 4.66ZM9 3.91C9.02 4.64 9.1 5.13 9.22 5.39C9.34 5.65 9.53 5.86 9.8 6.01L9.96 7.58L11.16 7.58L11.16 3.91L9 3.91ZM9 8.58C9.02 9.31 9.1 9.8 9.22 10.06C9.34 10.32 9.53 10.53 9.8 10.68L9.96 12.25L11.16 12.25L11.16 8.58L9 8.58ZM22 3.91C21.97 4.64 21.89 5.13 21.77 5.39C21.65 5.65 21.46 5.86 21.19 6.01L21.03 7.58L19.83 7.58L19.83 3.91L22 3.91ZM22 8.58C21.97 9.31 21.89 9.8 21.77 10.06C21.65 10.32 21.46 10.53 21.19 10.68L21.03 12.25L19.83 12.25L19.83 8.58L22 8.58Z" stroke="#000000" stroke-opacity="0" stroke-width="1.000000"/>
			</g>
		</g>
	</g>
	<circle id="椭圆形" cx="15.500000" cy="5.000000" r="2.333333" fill="#E02628" fill-opacity="1.000000"/>
	<circle id="椭圆形" cx="15.500000" cy="5.000000" r="2.333333" stroke="#000000" stroke-opacity="0" stroke-width="1.000000"/>
	<circle id="椭圆形备份" cx="15.500000" cy="11.500000" r="2.333333" fill="#7FC200" fill-opacity="1.000000"/>
	<circle id="椭圆形备份" cx="15.500000" cy="11.500000" r="2.333333" stroke="#000000" stroke-opacity="0" stroke-width="1.000000"/>
</svg>
