<?xml version="1.0" encoding="us-ascii" standalone="no"?><svg xmlns="http://www.w3.org/2000/svg" xmlns:xlink="http://www.w3.org/1999/xlink" contentStyleType="text/css" height="758px" preserveAspectRatio="none" style="width:961px;height:758px;background:#FFFFFF;" version="1.1" viewBox="0 0 961 758" width="961px" zoomAndPan="magnify"><defs/><g><rect fill="none" height="254.1953" style="stroke:#000000;stroke-width:1.5;" width="945" x="10" y="248.4531"/><rect fill="none" height="223.0625" style="stroke:#000000;stroke-width:1.5;" width="925" x="20" y="272.5859"/><line style="stroke:#181818;stroke-width:0.5;stroke-dasharray:5.0,5.0;" x1="66" x2="66" y1="36.2969" y2="723.5781"/><line style="stroke:#181818;stroke-width:0.5;stroke-dasharray:5.0,5.0;" x1="339" x2="339" y1="76.9453" y2="723.5781"/><line style="stroke:#181818;stroke-width:0.5;stroke-dasharray:5.0,5.0;" x1="517.5" x2="517.5" y1="189.5078" y2="723.5781"/><line style="stroke:#181818;stroke-width:0.5;stroke-dasharray:5.0,5.0;" x1="866" x2="866" y1="230.8047" y2="723.5781"/><rect fill="#E2E2F0" height="30.2969" rx="2.5" ry="2.5" style="stroke:#181818;stroke-width:0.5;" width="72" x="30" y="5"/><text fill="#000000" font-family="sans-serif" font-size="14" lengthAdjust="spacing" textLength="58" x="37" y="24.9951">Runtime</text><rect fill="#E2E2F0" height="30.2969" rx="2.5" ry="2.5" style="stroke:#181818;stroke-width:0.5;" width="72" x="30" y="722.5781"/><text fill="#000000" font-family="sans-serif" font-size="14" lengthAdjust="spacing" textLength="58" x="37" y="742.5732">Runtime</text><rect fill="#E2E2F0" height="30.2969" rx="2.5" ry="2.5" style="stroke:#181818;stroke-width:0.5;" width="84" x="297" y="722.5781"/><text fill="#000000" font-family="sans-serif" font-size="14" lengthAdjust="spacing" textLength="70" x="304" y="742.5732">Debugger</text><rect fill="#E2E2F0" height="30.2969" rx="2.5" ry="2.5" style="stroke:#181818;stroke-width:0.5;" width="79" x="478.5" y="722.5781"/><text fill="#000000" font-family="sans-serif" font-size="14" lengthAdjust="spacing" textLength="65" x="485.5" y="742.5732">Inspector</text><rect fill="#E2E2F0" height="30.2969" rx="2.5" ry="2.5" style="stroke:#181818;stroke-width:0.5;" width="137" x="798" y="722.5781"/><text fill="#000000" font-family="sans-serif" font-size="14" lengthAdjust="spacing" textLength="123" x="805" y="742.5732">WebSocketServer</text><polygon fill="#181818" points="285,63.4297,295,67.4297,285,71.4297,289,67.4297" style="stroke:#181818;stroke-width:1.0;"/><line style="stroke:#181818;stroke-width:1.0;" x1="66" x2="291" y1="67.4297" y2="67.4297"/><text fill="#000000" font-family="sans-serif" font-size="13" lengthAdjust="spacing" textLength="130" x="73" y="62.3638">instantiate singleton</text><rect fill="#E2E2F0" height="30.2969" rx="2.5" ry="2.5" style="stroke:#181818;stroke-width:0.5;" width="84" x="297" y="46.2969"/><text fill="#000000" font-family="sans-serif" font-size="14" lengthAdjust="spacing" textLength="70" x="304" y="66.292">Debugger</text><polygon fill="#181818" points="77,104.7266,67,108.7266,77,112.7266,73,108.7266" style="stroke:#181818;stroke-width:1.0;"/><line style="stroke:#181818;stroke-width:1.0;stroke-dasharray:2.0,2.0;" x1="71" x2="338" y1="108.7266" y2="108.7266"/><text fill="#000000" font-family="sans-serif" font-size="13" lengthAdjust="spacing" textLength="222" x="83" y="103.6606">AddListener(this, DEBUG_EVENTS)</text><line style="stroke:#181818;stroke-width:1.0;" x1="66" x2="108" y1="137.8594" y2="137.8594"/><line style="stroke:#181818;stroke-width:1.0;" x1="108" x2="108" y1="137.8594" y2="150.8594"/><line style="stroke:#181818;stroke-width:1.0;" x1="67" x2="108" y1="150.8594" y2="150.8594"/><polygon fill="#181818" points="77,146.8594,67,150.8594,77,154.8594,73,150.8594" style="stroke:#181818;stroke-width:1.0;"/><text fill="#000000" font-family="sans-serif" font-size="13" lengthAdjust="spacing" textLength="165" x="73" y="132.7935">dlopen(libarkinspector.so)</text><polygon fill="#181818" points="466.5,175.9922,476.5,179.9922,466.5,183.9922,470.5,179.9922" style="stroke:#181818;stroke-width:1.0;"/><line style="stroke:#181818;stroke-width:1.0;" x1="66" x2="472.5" y1="179.9922" y2="179.9922"/><text fill="#000000" font-family="sans-serif" font-size="13" lengthAdjust="spacing" textLength="105" x="73" y="174.9263">StartDebugger()</text><rect fill="#E2E2F0" height="30.2969" rx="2.5" ry="2.5" style="stroke:#181818;stroke-width:0.5;" width="79" x="478.5" y="158.8594"/><text fill="#000000" font-family="sans-serif" font-size="14" lengthAdjust="spacing" textLength="65" x="485.5" y="178.8545">Inspector</text><polygon fill="#181818" points="786,217.2891,796,221.2891,786,225.2891,790,221.2891" style="stroke:#181818;stroke-width:1.0;"/><line style="stroke:#181818;stroke-width:1.0;" x1="518" x2="792" y1="221.2891" y2="221.2891"/><text fill="#000000" font-family="sans-serif" font-size="13" lengthAdjust="spacing" textLength="256" x="525" y="216.2231">InitUnixWebSocket(), start server thread</text><rect fill="#E2E2F0" height="30.2969" rx="2.5" ry="2.5" style="stroke:#181818;stroke-width:0.5;" width="137" x="798" y="200.1563"/><text fill="#000000" font-family="sans-serif" font-size="14" lengthAdjust="spacing" textLength="123" x="805" y="220.1514">WebSocketServer</text><path d="M10,248.4531 L87,248.4531 L87,255.5859 L77,265.5859 L10,265.5859 L10,248.4531 " fill="#EEEEEE" style="stroke:#000000;stroke-width:1.5;"/><rect fill="none" height="254.1953" style="stroke:#000000;stroke-width:1.5;" width="945" x="10" y="248.4531"/><text fill="#000000" font-family="sans-serif" font-size="13" font-weight="bold" lengthAdjust="spacing" textLength="32" x="25" y="261.52">loop</text><text fill="#000000" font-family="sans-serif" font-size="11" font-weight="bold" lengthAdjust="spacing" textLength="112" x="102" y="260.6636">[while executing]</text><path d="M20,272.5859 L90,272.5859 L90,279.7188 L80,289.7188 L20,289.7188 L20,272.5859 " fill="#EEEEEE" style="stroke:#000000;stroke-width:1.5;"/><rect fill="none" height="223.0625" style="stroke:#000000;stroke-width:1.5;" width="925" x="20" y="272.5859"/><text fill="#000000" font-family="sans-serif" font-size="13" font-weight="bold" lengthAdjust="spacing" textLength="25" x="35" y="285.6528">par</text><polygon fill="#181818" points="529,306.8516,519,310.8516,529,314.8516,525,310.8516" style="stroke:#181818;stroke-width:1.0;"/><line style="stroke:#181818;stroke-width:1.0;" x1="523" x2="865.5" y1="310.8516" y2="310.8516"/><text fill="#000000" font-family="sans-serif" font-size="13" lengthAdjust="spacing" textLength="80" x="535" y="305.7856">CDP request</text><polygon fill="#181818" points="350,335.9844,340,339.9844,350,343.9844,346,339.9844" style="stroke:#181818;stroke-width:1.0;"/><line style="stroke:#181818;stroke-width:1.0;" x1="344" x2="517" y1="339.9844" y2="339.9844"/><text fill="#000000" font-family="sans-serif" font-size="13" lengthAdjust="spacing" textLength="155" x="356" y="334.9185">method implementation</text><polygon fill="#181818" points="506,365.1172,516,369.1172,506,373.1172,510,369.1172" style="stroke:#181818;stroke-width:1.0;"/><line style="stroke:#181818;stroke-width:1.0;stroke-dasharray:2.0,2.0;" x1="339" x2="512" y1="369.1172" y2="369.1172"/><text fill="#000000" font-family="sans-serif" font-size="13" lengthAdjust="spacing" textLength="36" x="346" y="364.0513">result</text><polygon fill="#181818" points="854.5,394.25,864.5,398.25,854.5,402.25,858.5,398.25" style="stroke:#181818;stroke-width:1.0;"/><line style="stroke:#181818;stroke-width:1.0;stroke-dasharray:2.0,2.0;" x1="518" x2="860.5" y1="398.25" y2="398.25"/><text fill="#000000" font-family="sans-serif" font-size="13" lengthAdjust="spacing" textLength="90" x="525" y="393.1841">CDP response</text><line style="stroke:#000000;stroke-width:1.0;stroke-dasharray:2.0,2.0;" x1="20" x2="945" y1="407.25" y2="407.25"/><polygon fill="#181818" points="327,425.3828,337,429.3828,327,433.3828,331,429.3828" style="stroke:#181818;stroke-width:1.0;"/><line style="stroke:#181818;stroke-width:1.0;" x1="66" x2="333" y1="429.3828" y2="429.3828"/><text fill="#000000" font-family="sans-serif" font-size="13" lengthAdjust="spacing" textLength="102" x="73" y="424.3169">execution event</text><polygon fill="#181818" points="506,454.5156,516,458.5156,506,462.5156,510,458.5156" style="stroke:#181818;stroke-width:1.0;"/><line style="stroke:#181818;stroke-width:1.0;" x1="339" x2="512" y1="458.5156" y2="458.5156"/><text fill="#000000" font-family="sans-serif" font-size="13" lengthAdjust="spacing" textLength="83" x="346" y="453.4497">tooling event</text><polygon fill="#181818" points="854.5,483.6484,864.5,487.6484,854.5,491.6484,858.5,487.6484" style="stroke:#181818;stroke-width:1.0;"/><line style="stroke:#181818;stroke-width:1.0;" x1="518" x2="860.5" y1="487.6484" y2="487.6484"/><text fill="#000000" font-family="sans-serif" font-size="13" lengthAdjust="spacing" textLength="67" x="525" y="482.5825">CDP event</text><polygon fill="#181818" points="506,526.7813,516,530.7813,506,534.7813,510,530.7813" style="stroke:#181818;stroke-width:1.0;"/><line style="stroke:#181818;stroke-width:1.0;" x1="66" x2="512" y1="530.7813" y2="530.7813"/><text fill="#000000" font-family="sans-serif" font-size="13" lengthAdjust="spacing" textLength="103" x="73" y="525.7153">StopDebugger()</text><polygon fill="#181818" points="854.5,555.9141,864.5,559.9141,854.5,563.9141,858.5,559.9141" style="stroke:#181818;stroke-width:1.0;"/><line style="stroke:#181818;stroke-width:1.0;" x1="518" x2="860.5" y1="559.9141" y2="559.9141"/><text fill="#000000" font-family="sans-serif" font-size="13" lengthAdjust="spacing" textLength="296" x="525" y="554.8481">CDP Runtime.executionContextsCleared event</text><polygon fill="#181818" points="854.5,585.0469,864.5,589.0469,854.5,593.0469,858.5,589.0469" style="stroke:#181818;stroke-width:1.0;"/><line style="stroke:#181818;stroke-width:1.0;" x1="518" x2="860.5" y1="589.0469" y2="589.0469"/><text fill="#000000" font-family="sans-serif" font-size="13" lengthAdjust="spacing" textLength="45" x="525" y="583.981">Close()</text><polygon fill="#181818" points="529,614.1797,519,618.1797,529,622.1797,525,618.1797" style="stroke:#181818;stroke-width:1.0;"/><line style="stroke:#181818;stroke-width:1.0;stroke-dasharray:2.0,2.0;" x1="523" x2="865.5" y1="618.1797" y2="618.1797"/><text fill="#000000" font-family="sans-serif" font-size="13" lengthAdjust="spacing" textLength="112" x="535" y="613.1138">join server thread</text><line style="stroke:#A80036;stroke-width:2.0;" x1="857.5" x2="875.5" y1="609.1797" y2="627.1797"/><line style="stroke:#A80036;stroke-width:2.0;" x1="857.5" x2="875.5" y1="627.1797" y2="609.1797"/><polygon fill="#181818" points="77,643.3125,67,647.3125,77,651.3125,73,647.3125" style="stroke:#181818;stroke-width:1.0;"/><line style="stroke:#181818;stroke-width:1.0;stroke-dasharray:2.0,2.0;" x1="71" x2="517" y1="647.3125" y2="647.3125"/><text fill="#000000" font-family="sans-serif" font-size="13" lengthAdjust="spacing" textLength="86" x="83" y="642.2466">unload library</text><line style="stroke:#A80036;stroke-width:2.0;" x1="509" x2="527" y1="638.3125" y2="656.3125"/><line style="stroke:#A80036;stroke-width:2.0;" x1="509" x2="527" y1="656.3125" y2="638.3125"/><polygon fill="#181818" points="327,672.4453,337,676.4453,327,680.4453,331,676.4453" style="stroke:#181818;stroke-width:1.0;"/><line style="stroke:#181818;stroke-width:1.0;" x1="66" x2="333" y1="676.4453" y2="676.4453"/><text fill="#000000" font-family="sans-serif" font-size="13" lengthAdjust="spacing" textLength="106" x="73" y="671.3794">destroy instance</text><polygon fill="#181818" points="77,701.5781,67,705.5781,77,709.5781,73,705.5781" style="stroke:#181818;stroke-width:1.0;"/><line style="stroke:#181818;stroke-width:1.0;stroke-dasharray:2.0,2.0;" x1="71" x2="338" y1="705.5781" y2="705.5781"/><text fill="#000000" font-family="sans-serif" font-size="13" lengthAdjust="spacing" textLength="249" x="83" y="700.5122">RemoveListener(this, DEBUG_EVENTS)</text><line style="stroke:#A80036;stroke-width:2.0;" x1="330" x2="348" y1="696.5781" y2="714.5781"/><line style="stroke:#A80036;stroke-width:2.0;" x1="330" x2="348" y1="714.5781" y2="696.5781"/><!--SRC=[XLHTJ-im37tFh_3Z9W4_O0zNkcmJGaBeYl7nYBBsQ0kaSMxYZl7lIKURhQL07jhAzZa-Zkrw7SGKncidT5SxCHMKAWAqW1POrviDWceTTFudssPaN9I4CaraD6vZ8UnKvwVp5DpYPlItB6zC53Y4YMnDFAF5ylBXwddvkBozNqtLQOOCAYrxk8arQnrUKpQFGZXSH9vcXTUTzPGW6sUqabHU9sbon3rXlUBY5R92sAK2CwJ13vopH6ZamPbzTaocPnGRQeg7499juYsLiioUthR6Wh17KKkw5wKe7Q_3uTsSGOA1vldY7mNyhn4b8thwZYse85ikoLJUee8JBIQre0FrMd6I823MTfHxhFXFET6pYpXWODkFvenEHbiwEy8kgHeHrDCZp3RTqo3uvvOqgexnSEdk3u_lne3zwHJypjtoNEHIvkm4Uubp2nrGjib_Ox8SaH9-QNXVtWiRDvYaCdK_yFkNGLNzRkLTgPrbNLBQbQ33UuOVzsDyXxkuprqkyCtwtg7Y7NxSu8uf_pC-0000]--></g></svg>