<svg width="24.000000" height="24.000000" viewBox="0 0 24 24" fill="none" xmlns="http://www.w3.org/2000/svg" xmlns:xlink="http://www.w3.org/1999/xlink">
	<desc>
			Created with Pixso.
	</desc>
	<defs>
		<clipPath id="clip676_8594">
			<rect id="chevron_backward" width="24.000000" height="24.000000" fill="white" fill-opacity="0"/>
		</clipPath>
	</defs>
	<rect id="chevron_backward" width="24.000000" height="24.000000" fill="#FFFFFF" fill-opacity="0"/>
	<g clip-path="url(#clip676_8594)">
		<g opacity="0.000000">
			<rect id="rect" width="24.000000" height="24.000000" fill="#000000" fill-opacity="1.000000"/>
		</g>
		<path id="path" d="M8.08 12L15.04 5.04C15.19 4.88 15.25 4.69 15.25 4.5C15.25 4.3 15.19 4.12 15.04 3.95C14.9 3.81 14.72 3.73 14.52 3.73C14.31 3.73 14.13 3.81 13.99 3.95L7 10.93C6.72 11.23 6.58 11.58 6.58 12C6.58 12.41 6.72 12.76 7 13.05L13.96 19.99C14.09 20.13 14.26 20.2 14.48 20.2C14.7 20.2 14.87 20.13 15.02 19.99C15.16 19.85 15.24 19.67 15.24 19.45C15.24 19.25 15.16 19.08 15.02 18.93L8.08 12Z" fill="#000000" fill-opacity="0.901961" fill-rule="nonzero"/>
	</g>
</svg>
