<svg width="24.000000" height="24.000000" viewBox="0 0 24 24" fill="none" xmlns="http://www.w3.org/2000/svg" xmlns:xlink="http://www.w3.org/1999/xlink">
	<desc>
			Created with Pixso.
	</desc>
	<defs/>
	<rect id="矩形" width="24.000000" height="24.000000" fill="#D8D8D8" fill-opacity="0"/>
	<rect id="矩形" x="0.500000" y="0.500000" width="23.000000" height="23.000000" stroke="#979797" stroke-opacity="0" stroke-width="1.000000"/>
	<path id="形状" d="M12.3885 2.50195C14.1525 2.50195 15.717 2.86597 17.082 3.59399C17.6444 3.89392 18.1562 4.25024 18.6177 4.66309C19.2761 5.2522 19.8317 5.95642 20.2845 6.77551C21.0545 8.16846 21.4395 9.81689 21.4395 11.7209C21.4395 13.345 21.135 14.661 20.526 15.6689C19.917 16.677 19.0245 17.1809 17.8485 17.1809C17.2753 17.1809 16.7705 17.0587 16.3342 16.8145C16.2483 16.7664 16.165 16.7135 16.0845 16.656C15.5945 16.3059 15.2655 15.7949 15.0975 15.1229C14.8116 15.6832 14.4418 16.1267 13.9879 16.4535C13.886 16.5269 13.7798 16.5944 13.6695 16.656C13.3567 16.8306 13.0325 16.9597 12.6971 17.0436C12.3869 17.1212 12.0671 17.1599 11.7375 17.1599C11.4164 17.1599 11.1042 17.1233 10.8008 17.05L10.8008 17.05C10.3898 16.9509 9.99506 16.7845 9.61652 16.5509C9.54187 16.5049 9.46887 16.4565 9.39758 16.4058C8.84027 16.0093 8.38477 15.4696 8.03101 14.787C7.63202 14.017 7.4325 13.1069 7.4325 12.057C7.4325 11.007 7.63202 10.0969 8.03101 9.3269C8.38477 8.64429 8.84027 8.10474 9.39758 7.70813L9.39789 7.70789C9.46912 7.65723 9.54199 7.60889 9.61652 7.56299C9.99506 7.32935 10.3898 7.16296 10.8007 7.06384C11.1042 6.9906 11.4164 6.95398 11.7375 6.95398C12.3675 6.95398 12.9625 7.09741 13.5225 7.3844C14.0825 7.67151 14.5445 8.09497 14.9085 8.65491C14.9505 8.375 14.9855 7.88501 15.0135 7.18494L16.5255 7.18494L16.5255 13.527C16.5255 14.4865 16.7469 15.1139 17.1898 15.4092C17.3866 15.5403 17.6272 15.606 17.9115 15.606C18.5975 15.606 19.084 15.256 19.371 14.5559C19.658 13.856 19.8015 12.953 19.8015 11.8469C19.8015 10.209 19.4865 8.80896 18.8565 7.64697C18.4712 6.93628 17.9942 6.32898 17.4256 5.8252C17.0645 5.50525 16.6665 5.22693 16.2315 4.99048C15.1115 4.38147 13.8165 4.0769 12.3465 4.0769C10.9547 4.0769 9.69977 4.35352 8.5816 4.90674C8.47382 4.96008 8.36725 5.01599 8.26202 5.07446C7.67352 5.40137 7.1485 5.7926 6.68689 6.24817C6.20959 6.71912 5.80011 7.25891 5.4585 7.86743C5.43042 7.91748 5.40295 7.96777 5.37604 8.01831L5.37579 8.0188C4.75891 9.18005 4.4505 10.505 4.4505 11.9939C4.4505 13.4713 4.7533 14.7909 5.35883 15.9525L5.35999 15.9547C5.38531 16.0033 5.41113 16.0515 5.4375 16.0995C5.78583 16.7332 6.20776 17.2914 6.70331 17.774C7.14374 18.203 7.64233 18.5723 8.19897 18.882C9.38202 19.5399 10.7295 19.8689 12.2415 19.8689C13.0815 19.8689 13.8655 19.7639 14.5935 19.554C15.3215 19.344 15.9585 19.057 16.5045 18.693L17.2395 19.953C16.6795 20.429 15.9655 20.7965 15.0975 21.0554C14.2295 21.3145 13.2775 21.444 12.2415 21.444C10.5989 21.444 9.11584 21.1189 7.79254 20.4689L7.79224 20.4688C7.64948 20.3986 7.50854 20.3247 7.36951 20.2469C6.65552 19.8479 6.02026 19.3702 5.46375 18.8137C4.90723 18.2572 4.4295 17.6219 4.03052 16.908C3.99414 16.8429 3.95862 16.7775 3.92395 16.7115C3.19696 15.3303 2.8335 13.7578 2.8335 11.9939C2.8335 10.3346 3.16364 8.83899 3.82397 7.50696C3.89905 7.35547 3.97839 7.20618 4.06201 7.05896C4.47839 6.32581 4.97626 5.67578 5.55554 5.10913C6.1156 4.56128 6.75177 4.09119 7.46399 3.69897C7.60962 3.61877 7.7572 3.5426 7.90668 3.47046L7.90698 3.47034C9.24506 2.82471 10.7389 2.50195 12.3885 2.50195ZM13.9635 14.6715C13.4035 15.2245 12.7245 15.501 11.9265 15.501C11.452 15.501 11.0349 15.3994 10.6752 15.1962C10.4193 15.0518 10.1924 14.8558 9.99451 14.6084C9.51849 14.0134 9.28052 13.163 9.28052 12.057C9.28052 10.965 9.51501 10.1215 9.98401 9.52649C10.1658 9.2959 10.3743 9.10999 10.6097 8.96875C10.9817 8.74561 11.4206 8.63391 11.9265 8.63391C12.3447 8.63391 12.7301 8.70984 13.0829 8.86169C13.4034 8.99963 13.697 9.2002 13.9635 9.4635C14.5235 10.0165 14.8035 10.881 14.8035 12.057C14.8035 13.2469 14.5235 14.1184 13.9635 14.6715Z" clip-rule="evenodd" fill="#000000" fill-opacity="0.901961" fill-rule="evenodd"/>
</svg>
