<svg width="24.000000" height="24.000000" viewBox="0 0 24 24" fill="none" xmlns="http://www.w3.org/2000/svg" xmlns:xlink="http://www.w3.org/1999/xlink">
	<desc>
			Created with Pixso.
	</desc>
	<defs/>
	<rect id="矩形" width="24.000000" height="24.000000" fill="#D8D8D8" fill-opacity="0"/>
	<rect id="矩形" x="0.500000" y="0.500000" width="23.000000" height="23.000000" stroke="#979797" stroke-opacity="0" stroke-width="1.000000"/>
	<path id="形状" d="M17.7041 6.66699L21.9089 6.66699L21.9089 8.30493L17.3259 8.30493L15.646 15.652L19.8511 15.652L19.8511 17.29L15.2681 17.29L13.9661 22.4923L12.2861 22.4923L13.5881 17.29L8.20703 17.29L6.90503 22.4923L5.2251 22.4923L6.5271 17.29L2.30103 17.29L2.30103 15.652L6.90503 15.652L8.58496 8.30493L4.35913 8.30493L4.35913 6.66699L8.96313 6.66699L10.0776 1.73999L11.7578 1.73999L10.6431 6.66699L16.0239 6.66699L17.1387 1.73999L18.8188 1.73999L17.7041 6.66699ZM8.58496 15.652L10.2651 8.30493L15.646 8.30493L13.9661 15.652L8.58496 15.652Z" clip-rule="evenodd" fill="#000000" fill-opacity="0.901961" fill-rule="evenodd"/>
</svg>
