<svg width="24.000000" height="24.000000" viewBox="0 0 24 24" fill="none" xmlns="http://www.w3.org/2000/svg" xmlns:xlink="http://www.w3.org/1999/xlink">
	<desc>
			Created with Pixso.
	</desc>
	<defs/>
	<rect id="矩形" width="24.000000" height="24.000000" fill="#D8D8D8" fill-opacity="0"/>
	<rect id="矩形" x="0.500000" y="0.500000" width="23.000000" height="23.000000" stroke="#979797" stroke-opacity="0" stroke-width="1.000000"/>
	<path id="形状" d="M12.3884 2.50195C14.1526 2.50195 15.717 2.86597 17.082 3.59399C17.6443 3.89392 18.1562 4.25024 18.6177 4.66309C19.2761 5.2522 19.8318 5.95642 20.2844 6.77551C21.0544 8.16846 21.4395 9.81689 21.4395 11.7209C21.4395 13.345 21.135 14.661 20.5259 15.6689C19.917 16.677 19.0244 17.1809 17.8484 17.1809C17.2754 17.1809 16.7705 17.0587 16.3342 16.8145C16.2483 16.7664 16.165 16.7135 16.0845 16.656C15.5945 16.3059 15.2654 15.7949 15.0974 15.1229C14.8118 15.6832 14.4419 16.1267 13.988 16.4535C13.886 16.5269 13.7798 16.5944 13.6694 16.656C13.3567 16.8306 13.0325 16.9597 12.697 17.0436C12.387 17.1212 12.0671 17.1599 11.7375 17.1599C11.4165 17.1599 11.1042 17.1233 10.8008 17.05L10.8008 17.05C10.3899 16.9509 9.99512 16.7845 9.61646 16.5509C9.54175 16.5049 9.46899 16.4565 9.39746 16.4058C8.84033 16.0093 8.38477 15.4696 8.03101 14.787C7.63208 14.017 7.43262 13.1069 7.43262 12.057C7.43262 11.007 7.63208 10.0969 8.03101 9.3269C8.38477 8.64429 8.84033 8.10474 9.39771 7.70813L9.39795 7.70789C9.46899 7.65723 9.54199 7.60889 9.61646 7.56299C9.99512 7.32935 10.3899 7.16296 10.8008 7.06384C11.1042 6.9906 11.4165 6.95398 11.7375 6.95398C12.3674 6.95398 12.9624 7.09741 13.5225 7.3844C14.0825 7.67151 14.5444 8.09497 14.9084 8.65491C14.9504 8.375 14.9856 7.88501 15.0134 7.18494L16.5254 7.18494L16.5254 13.527C16.5254 14.4865 16.7468 15.1139 17.1897 15.4092C17.3867 15.5403 17.6272 15.606 17.9114 15.606C18.5974 15.606 19.084 15.256 19.3711 14.5559C19.658 13.856 19.8015 12.953 19.8015 11.8469C19.8015 10.209 19.4866 8.80896 18.8564 7.64697C18.4712 6.93628 17.9941 6.32898 17.4255 5.8252C17.0645 5.50525 16.6665 5.22693 16.2314 4.99048C15.1116 4.38147 13.8164 4.0769 12.3464 4.0769C10.9546 4.0769 9.69971 4.35352 8.58154 4.90674C8.47388 4.96008 8.36719 5.01599 8.26196 5.07446C7.67358 5.40137 7.14844 5.7926 6.68701 6.24817C6.20972 6.71912 5.80005 7.25891 5.4585 7.86743C5.43042 7.91748 5.40283 7.96777 5.37598 8.01831L5.37573 8.0188C4.75903 9.18005 4.45044 10.505 4.45044 11.9939C4.45044 13.4713 4.75317 14.7909 5.35889 15.9525L5.35986 15.9547C5.38525 16.0033 5.41113 16.0515 5.4375 16.0995C5.78589 16.7332 6.20776 17.2914 6.70337 17.774C7.1438 18.203 7.64233 18.5723 8.19897 18.882C9.38208 19.5399 10.7295 19.8689 12.2415 19.8689C13.0815 19.8689 13.8655 19.7639 14.5935 19.554C15.3215 19.344 15.9585 19.057 16.5044 18.693L17.2395 19.953C16.6794 20.429 15.9656 20.7965 15.0974 21.0554C14.2295 21.3145 13.2776 21.444 12.2415 21.444C10.5989 21.444 9.11597 21.1189 7.79248 20.4689L7.79224 20.4688C7.64941 20.3986 7.50854 20.3247 7.36938 20.2469C6.65552 19.8479 6.02026 19.3702 5.46362 18.8137C4.90723 18.2572 4.42944 17.6219 4.03052 16.908C3.99414 16.8429 3.95874 16.7775 3.92383 16.7115C3.19702 15.3303 2.8335 13.7578 2.8335 11.9939C2.8335 10.3346 3.16357 8.83899 3.82397 7.50696C3.89893 7.35547 3.97827 7.20618 4.06201 7.05896C4.47852 6.32581 4.97632 5.67578 5.55566 5.10913C6.11548 4.56128 6.75171 4.09119 7.46411 3.69897C7.60962 3.61877 7.75708 3.5426 7.90674 3.47046L7.90698 3.47034C9.24512 2.82471 10.739 2.50195 12.3884 2.50195ZM13.9634 14.6715C13.4036 15.2245 12.7246 15.501 11.9265 15.501C11.4519 15.501 11.0349 15.3994 10.675 15.1962C10.4192 15.0518 10.1924 14.8558 9.99438 14.6084C9.51855 14.0134 9.28052 13.163 9.28052 12.057C9.28052 10.965 9.51489 10.1215 9.98389 9.52649C10.1658 9.2959 10.3743 9.10999 10.6096 8.96875C10.9817 8.74561 11.4207 8.63391 11.9265 8.63391C12.3447 8.63391 12.7302 8.70984 13.083 8.86169C13.4033 8.99963 13.697 9.2002 13.9634 9.4635C14.5234 10.0165 14.8035 10.881 14.8035 12.057C14.8035 13.2469 14.5234 14.1184 13.9634 14.6715Z" clip-rule="evenodd" fill="#000000" fill-opacity="0.901961" fill-rule="evenodd"/>
</svg>
