<?xml version="1.0" standalone="no"?>
<svg xmlns="http://www.w3.org/2000/svg" width="24" height="24"><rect width="24" height="24" opacity="0"></rect><g><path d="M7.03 16.2Q6.72 16.2 6.49 16.42Q6.26 16.63 6.26 16.94Q6.26 17.26 6.49 17.48Q6.72 17.71 7.03 17.71L9 17.71Q9.31 17.71 9.54 17.48Q9.77 17.26 9.77 16.94Q9.77 16.63 9.54 16.42Q9.31 16.2 9 16.2L7.03 16.2ZM14.14 7.68Q14.45 7.68 14.68 7.46Q14.9 7.25 14.9 6.94Q14.9 6.62 14.68 6.41Q14.45 6.19 14.14 6.19L7.03 6.19Q6.72 6.19 6.49 6.41Q6.26 6.62 6.26 6.94Q6.26 7.25 6.49 7.46Q6.72 7.68 7.03 7.68L14.14 7.68ZM7.03 11.18Q6.72 11.18 6.5 11.4Q6.29 11.62 6.29 11.93Q6.29 12.24 6.5 12.47Q6.72 12.7 7.03 12.7L11.81 12.7Q12.12 12.7 12.34 12.47Q12.55 12.24 12.55 11.93Q12.55 11.62 12.34 11.4Q12.12 11.18 11.81 11.18L7.03 11.18ZM17.33 6.84Q16.9 6.89 16.61 7.21Q16.32 7.54 16.32 7.99L16.34 9.5L16.34 12.31Q16.34 12.6 16.24 12.79Q16.13 12.98 15.91 13.15Q15.65 13.37 14.74 13.73L14.69 13.75Q13.63 14.16 12.96 14.62Q12.29 15.07 11.98 15.86Q11.78 16.39 11.86 16.92Q11.93 17.45 12.26 17.88Q12.7 18.43 13.44 18.64Q14.18 18.84 14.83 18.77Q16.44 18.58 17.05 17.5Q17.66 16.42 17.66 15.17L17.66 9.5Q17.71 9.12 17.82 9Q17.93 8.88 18.22 8.76Q18.58 8.62 18.89 8.42Q19.3 8.16 19.52 7.87Q19.75 7.58 19.82 7.26Q19.9 6.94 19.8 6.53L17.33 6.84ZM14.69 17.47Q13.7 17.54 13.3 17.06Q13.18 16.9 13.15 16.72Q13.13 16.54 13.22 16.32Q13.39 15.89 13.87 15.59Q14.35 15.29 15.17 14.98L15.22 14.95Q15.31 14.9 15.41 14.88Q15.65 14.78 15.89 14.68Q16.13 14.57 16.32 14.45L16.32 15.41Q16.32 16.08 16 16.72Q15.67 17.35 14.69 17.47Z" fill="rgba(254,249,255,1)"></path><path d="M19.01 22.01Q19.8 22.01 20.5 21.6Q21.19 21.19 21.6 20.5Q22.01 19.8 22.01 19.01L22.01 4.99Q22.01 4.2 21.6 3.5Q21.19 2.81 20.5 2.4Q19.8 1.99 19.01 1.99L4.99 1.99Q4.2 1.99 3.5 2.4Q2.81 2.81 2.4 3.5Q1.99 4.2 1.99 4.99L1.99 19.01Q1.99 19.8 2.4 20.5Q2.81 21.19 3.5 21.6Q4.2 22.01 4.99 22.01L19.01 22.01ZM19.01 3.5Q19.63 3.5 20.06 3.94Q20.5 4.37 20.5 4.99L20.5 19.01Q20.5 19.61 20.06 20.05Q19.63 20.5 19.01 20.5L4.99 20.5Q4.39 20.5 3.95 20.05Q3.5 19.61 3.5 19.01L3.5 4.99Q3.5 4.37 3.95 3.94Q4.39 3.5 4.99 3.5L19.01 3.5Z" fill="rgba(254,249,255,1)"></path></g></svg>