<?xml version="1.0" standalone="no"?>
<svg xmlns="http://www.w3.org/2000/svg" width="24" height="24"><rect width="24" height="24" opacity="0"></rect><g><path d="M13.75 21.36Q12.94 21.53 12.02 21.53Q9.43 21.53 7.25 20.24Q5.06 18.96 3.78 16.78Q2.5 14.59 2.5 12Q2.5 9.41 3.78 7.22Q5.06 5.04 7.25 3.76Q9.43 2.47 12.02 2.47Q14.35 2.47 16.42 3.55Q18.48 4.63 19.82 6.55Q19.99 6.79 20.3 6.85Q20.62 6.91 20.88 6.72Q21.12 6.55 21.18 6.25Q21.24 5.95 21.05 5.69Q19.49 3.48 17.1 2.23Q14.71 0.98 12.02 0.98Q9.05 0.98 6.52 2.47Q3.98 3.96 2.5 6.49Q1.01 9.02 1.01 12Q1.01 14.98 2.5 17.51Q3.98 20.04 6.52 21.53Q9.05 23.02 12.02 23.02Q13.1 23.02 14.02 22.85Q14.33 22.8 14.5 22.54Q14.66 22.27 14.62 21.96Q14.57 21.65 14.32 21.48Q14.06 21.31 13.75 21.36ZM10.15 9.22L15.17 11.98L10.15 14.78ZM10.2 7.61Q9.89 7.44 9.55 7.5Q9.22 7.56 8.99 7.84Q8.76 8.11 8.76 8.47L8.76 15.55Q8.76 15.91 8.99 16.18Q9.22 16.44 9.55 16.5Q9.89 16.56 10.2 16.39L16.34 12.84Q16.66 12.67 16.78 12.34Q16.9 12 16.78 11.68Q16.66 11.35 16.34 11.16L10.2 7.61Z" fill="rgba(254,249,255,1)"></path><path d="M20.14 8.88Q19.66 8.9 19.33 9.28Q19.01 9.65 19.01 10.15L19.03 11.69L19.03 14.52Q19.03 15.19 18.71 15.5Q18.38 15.82 17.62 16.13Q16.58 16.54 15.94 16.97Q15.29 17.4 14.98 18.19Q14.78 18.72 14.86 19.26Q14.93 19.8 15.26 20.21Q15.6 20.66 16.14 20.89Q16.68 21.12 17.35 21.12L17.78 21.12Q19.37 20.95 19.96 19.93Q20.54 18.91 20.54 17.69L20.54 11.93Q20.54 11.59 20.71 11.42Q20.88 11.26 21.31 11.06Q21.74 10.9 22.13 10.66Q22.8 10.25 23.04 9.71Q23.28 9.17 23.14 8.47L20.14 8.88ZM17.62 19.61Q17.21 19.66 16.9 19.57Q16.58 19.49 16.44 19.3Q16.25 19.08 16.37 18.72Q16.51 18.34 16.94 18.08Q17.38 17.83 18.17 17.52Q18.6 17.33 19.03 17.16L19.03 17.64Q19.03 18.36 18.78 18.92Q18.53 19.49 17.62 19.61Z" fill="rgba(254,249,255,1)"></path></g></svg>