<?xml version="1.0" standalone="no"?>
<svg xmlns="http://www.w3.org/2000/svg" width="24" height="24"><rect width="24" height="24" opacity="0"></rect><g mask="url(#hms_mask_0)"><path d="M12 2.02Q9.29 2.02 6.98 3.36Q4.68 4.7 3.34 7Q1.99 9.29 1.99 12Q1.99 14.71 3.34 17Q4.68 19.3 6.98 20.64Q9.29 21.98 12 21.98Q14.71 21.98 17 20.64Q19.3 19.3 20.64 17Q21.98 14.71 21.98 12Q21.98 9.29 20.64 7Q19.3 4.7 17 3.36Q14.71 2.02 12 2.02ZM12 20.5Q9.7 20.5 7.74 19.36Q5.78 18.22 4.64 16.26Q3.5 14.3 3.5 12Q3.5 9.7 4.64 7.74Q5.78 5.78 7.74 4.64Q9.7 3.5 12 3.5Q14.3 3.5 16.26 4.64Q18.22 5.78 19.36 7.74Q20.5 9.7 20.5 12Q20.5 14.3 19.36 16.26Q18.22 18.22 16.26 19.36Q14.3 20.5 12 20.5ZM12 9Q11.18 9 10.5 9.41Q9.82 9.82 9.41 10.5Q9 11.18 9 12Q9 12.82 9.41 13.51Q9.82 14.21 10.5 14.62Q11.18 15.02 12 15.02Q12.82 15.02 13.51 14.62Q14.21 14.21 14.62 13.51Q15.02 12.82 15.02 12Q15.02 11.18 14.62 10.5Q14.21 9.82 13.51 9.41Q12.82 9 12 9ZM12 13.51Q11.38 13.51 10.94 13.07Q10.51 12.62 10.51 12Q10.51 11.38 10.96 10.93Q11.4 10.49 12 10.49Q12.62 10.49 13.07 10.93Q13.51 11.38 13.51 12Q13.51 12.62 13.07 13.07Q12.62 13.51 12 13.51ZM11.57 5.38Q9.91 5.47 8.53 6.32Q7.15 7.18 6.3 8.57Q5.45 9.96 5.35 11.62Q5.33 12.1 5.69 12.3Q6.05 12.5 6.43 12.34Q6.82 12.17 6.86 11.69Q6.94 10.42 7.6 9.35Q8.26 8.28 9.34 7.62Q10.42 6.96 11.69 6.89Q12.14 6.84 12.29 6.46Q12.43 6.07 12.23 5.71Q12.02 5.35 11.57 5.38Z" fill="rgba(254,249,255,1)"></path></g><defs><mask id="hms_mask_0"><rect width="24" height="24" fill="#ffffff"></rect><g><path d="M22.44 15.1Q21.94 14.59 21.41 14.35Q20.88 14.11 20.28 14.06Q19.8 14.02 19.32 14.09Q18.84 14.16 18.29 14.4Q17.81 14.21 17.33 14.12Q16.85 14.04 16.32 14.06Q15.72 14.11 15.12 14.39Q14.52 14.66 14.09 15.1Q13.1 16.1 13.16 17.62Q13.22 19.13 14.28 20.52Q15.26 21.79 16.68 22.82Q17.11 23.14 17.52 23.28Q17.93 23.42 18.29 23.42Q18.67 23.42 19.12 23.27Q19.56 23.11 19.92 22.82Q20.64 22.37 21.23 21.78Q21.82 21.19 22.58 20.26Q23.18 19.44 23.39 18.48Q23.59 17.52 23.35 16.63Q23.11 15.74 22.44 15.1Z" fill="#000000"></path></g></mask></defs><g><path d="M18.34 22.46Q19.08 22.46 19.9 21.8Q20.71 21.14 21.35 20.26Q21.98 19.37 22.25 18.7Q22.44 18.26 22.44 17.52Q22.44 16.32 21.62 15.67Q20.81 15.02 19.73 15.02Q18.98 15.02 18.31 15.46Q17.62 15.02 16.87 15.02Q15.79 15.02 14.98 15.68Q14.16 16.34 14.16 17.5Q14.16 18.26 14.38 18.77Q14.59 19.42 15.29 20.3Q15.98 21.19 16.81 21.83Q17.64 22.46 18.34 22.46ZM21.05 17.69Q21.05 17.98 20.93 18.34Q20.78 18.77 20.3 19.44Q19.82 20.11 19.26 20.62Q18.7 21.12 18.34 21.12Q17.95 21.12 17.38 20.63Q16.8 20.14 16.3 19.49Q15.79 18.84 15.67 18.41Q15.55 17.98 15.55 17.71Q15.55 17.06 15.97 16.74Q16.39 16.42 16.87 16.44Q17.14 16.44 17.4 16.55Q17.66 16.66 17.83 16.82L17.93 16.92Q18.02 17.02 18.13 17.09Q18.24 17.16 18.31 17.16Q18.46 17.16 18.77 16.85Q18.94 16.68 19.21 16.56Q19.49 16.44 19.73 16.44Q20.23 16.44 20.64 16.75Q21.05 17.06 21.05 17.69Z" fill="rgba(254,249,255,1)"></path></g></svg>