<?xml version="1.0" standalone="no"?>
<svg xmlns="http://www.w3.org/2000/svg" width="24" height="24"><rect width="24" height="24" opacity="0"></rect><g><path d="M6.34 3Q5.69 3 5.16 3.31Q4.63 3.62 4.32 4.16Q4.01 4.7 4.01 5.35L4.01 18.65Q4.01 19.3 4.32 19.84Q4.63 20.38 5.16 20.69Q5.69 21 6.34 21L7.25 21Q7.9 21 8.44 20.69Q8.98 20.38 9.29 19.84Q9.6 19.3 9.6 18.65L9.6 5.35Q9.6 4.7 9.29 4.16Q8.98 3.62 8.44 3.31Q7.9 3 7.25 3L6.34 3ZM16.73 3Q16.1 3 15.56 3.31Q15.02 3.62 14.71 4.16Q14.4 4.7 14.4 5.35L14.4 18.65Q14.4 19.3 14.71 19.84Q15.02 20.38 15.56 20.69Q16.1 21 16.73 21L17.64 21Q18.29 21 18.83 20.69Q19.37 20.38 19.68 19.84Q19.99 19.3 19.99 18.65L19.99 5.35Q19.99 4.7 19.68 4.16Q19.37 3.62 18.83 3.31Q18.29 3 17.64 3L16.73 3Z" fill="rgba(254,249,255,1)"></path></g></svg>