<?xml version="1.0" standalone="no"?>
<svg xmlns="http://www.w3.org/2000/svg" width="24" height="24"><rect width="24" height="24" opacity="0"></rect><g mask="url(#hms_mask_0)"><path d="M17.28 1.44Q14.69 0.65 11.48 1.56Q8.28 2.47 5.06 5.57Q1.97 8.57 1.36 11.2Q0.74 13.82 1.51 16.06Q1.94 17.3 3.38 18.74Q4.82 20.18 7.15 21.32Q9.48 22.46 12.41 22.8Q17.26 23.35 19.86 21.5Q22.46 19.66 22.87 14.83Q23.14 11.66 22.39 8.75Q21.65 5.83 20.24 3.88Q18.84 1.92 17.28 1.44Z" fill="rgba(254,249,255,1)"></path></g><defs><mask id="hms_mask_0"><rect width="24" height="24" fill="#ffffff"></rect><g><path d="M15.86 11.06Q16.32 11.33 16.5 11.9Q16.68 12.48 16.52 13.07Q16.37 13.66 15.91 13.92L11.57 16.42Q10.99 16.75 10.36 16.63Q9.72 16.51 9.29 16.04Q8.86 15.58 8.86 14.98L8.86 9.96Q8.86 9.36 9.29 8.92Q9.72 8.47 10.36 8.35Q10.99 8.23 11.54 8.54L15.86 11.06Z" fill="#000000"></path></g></mask></defs></svg>