<?xml version="1.0" standalone="no"?>
<svg xmlns="http://www.w3.org/2000/svg" width="24" height="24"><rect width="24" height="24" opacity="0"></rect><g><path d="M16.56 21.07Q17.04 20.83 17.33 20.38Q17.62 19.92 17.62 19.39L17.62 4.58Q17.62 4.06 17.33 3.61Q17.04 3.17 16.56 2.93Q16.06 2.69 15.54 2.76Q15.02 2.83 14.62 3.17L9.74 7.08L6.02 7.08Q5.38 7.08 4.81 7.4Q4.25 7.73 3.92 8.28Q3.6 8.83 3.6 9.48L3.6 14.52Q3.6 15.17 3.92 15.72Q4.25 16.27 4.8 16.6Q5.35 16.92 6.02 16.92L9.77 16.92L14.62 20.83Q15.02 21.17 15.59 21.23Q16.15 21.29 16.56 21.07Z" fill="#FE1B48"></path></g></svg>